<svg id="Chalet" xmlns="http://www.w3.org/2000/svg" width="288" height="51" viewBox="0 0 288 51">
  <defs>
    <style>
      .cls-1 {
        fill: #ff2a39;
      }

      .cls-1, .cls-2 {
        fill-rule: evenodd;
      }

      .cls-2 {
        fill: #212121;
      }
    </style>
  </defs>
  <path class="cls-1" d="M52.5,1A24.5,24.5,0,1,1,28,25.5,24.5,24.5,0,0,1,52.5,1ZM36,23C31.958,20.083,41.042,6.75,52,7S73.72,19.433,69,23c-4.763,3.6-6.476-4.432-16.008-4C41.621,19.521,40.042,25.917,36,23ZM49,44c-6.571-1.571-14.659-8.941-11-13C43.151,25.287,49.286,38.571,49,44Zm8,0c5.429-1.143,13.759-8.083,12-12C65.549,24.317,56.429,37.286,57,44Z"/>
  <path class="cls-1" d="M78.314,16a27.411,27.411,0,0,0-3.1-6H98s-5,5.938-8,6S78.314,16,78.314,16ZM26.686,16S16.938,15.938,14,16s-7-6-7-6H29.785A27.411,27.411,0,0,0,26.686,16Zm-1.674,9S10.938,24.938,8,25s-7-6-7-6H25.78A27.541,27.541,0,0,0,25.013,25Zm1.333,9H16c-3.312,0-7-6-7-6H25.118A27.358,27.358,0,0,0,26.345,34Zm4.941,9H26c-2.937,0-7-6-7-6h8.521A27.511,27.511,0,0,0,31.286,43Zm46.193-6H86s-4,6-7,6H73.714A27.511,27.511,0,0,0,77.479,37Zm2.4-9H96s-5,6-8,6H78.655A27.358,27.358,0,0,0,79.882,28ZM79.22,19H104s-5.062,6-8,6H79.987A27.535,27.535,0,0,0,79.22,19Z"/>
  <path id="EUROPEAN_copy_3" data-name="EUROPEAN copy 3" class="cls-2" d="M114.932,25.036h14.519v-3.57H118.8v-5.28h8.82v-3.57H118.8V8.176h10.439V4.637H114.932v20.4Zm28.23,0.36c5.16,0,7.889-3.12,7.889-8.22V4.637h-3.9V17.3c0,3.03-1.32,4.62-3.99,4.62-2.64,0-3.96-1.59-3.96-4.62V4.637h-3.9V17.176C135.3,22.276,138.032,25.4,143.162,25.4Zm14.61-.36h3.87v-7.98h5.16c1.8,0,2.49.81,2.64,2.64l0.24,2.97a5.176,5.176,0,0,0,.69,2.37H174.3a7.519,7.519,0,0,1-.75-2.61l-0.24-2.7c-0.24-2.61-1.05-3.6-2.759-4.41a4.532,4.532,0,0,0,3.209-4.59c0-3.84-2.729-6.09-6.989-6.09h-9v20.4Zm3.87-11.309V8.236h5.13c2.01,0,3.09.84,3.09,2.7s-0.99,2.79-3,2.79h-5.22Zm27.9,11.67c5.759,0,9.959-4.65,9.959-10.65,0-5.97-4.2-10.62-9.959-10.62-5.82,0-10.02,4.65-10.02,10.62C179.522,20.746,183.722,25.4,189.542,25.4Zm0-3.48c-3.33,0-6-2.55-6-7.17,0-4.59,2.67-7.14,6-7.14,3.27,0,5.939,2.55,5.939,7.14C195.481,19.366,192.812,21.916,189.542,21.916Zm15.93,3.12h3.9v-7.35h4.11c4.47,0,7.229-2.64,7.229-6.45,0-3.99-2.609-6.6-7.319-6.6h-7.92v20.4Zm3.9-10.8V8.116h3.99c2.25,0,3.48,1.08,3.48,3.12,0,2.07-1.23,3-3.48,3h-3.99Zm17.1,10.8h14.519v-3.57H230.342v-5.28h8.82v-3.57h-8.82V8.176h10.439V4.637H226.472v20.4Zm18.84,0h3.99l1.41-4.08h8.1l1.41,4.08h4.109l-7.469-20.4h-4.08Zm8.91-14.309c0.18-.6.48-1.86,0.51-2.01a19.427,19.427,0,0,0,.54,2.01l2.37,6.9h-5.79Zm15.3,14.309h3.6V10.516l8.58,14.519h4.379V4.637h-3.6V19.156l-8.55-14.519h-4.41v20.4Z"/>
  <path id="Auto_Service_copy_2" data-name="Auto Service copy 2" class="cls-2" d="M113.492,49.036h2.64l1.92-5.43h8.31l1.92,5.43h2.7l-7.319-20.4h-2.7Zm8.04-15.149c0.36-.99.72-2.46,0.72-2.46l0.72,2.46,2.58,7.38h-6.66ZM138.911,49.4a5.324,5.324,0,0,0,4.68-2.58v2.22h2.37V33.586H143.5v9.63a3.806,3.806,0,0,1-4.02,3.87c-2.4,0-3.57-1.56-3.57-3.93v-9.57h-2.46v9.48C133.451,46.906,135.551,49.4,138.911,49.4Zm17.6-.09a4.7,4.7,0,0,0,.96-0.09v-2.25a4.057,4.057,0,0,1-.72.06c-1.83,0-3.03-.84-3.03-3.39v-7.77h3.51v-2.28h-3.51v-4.41h-2.46v4.41h-2.25v2.28h2.25v7.77C151.259,47.416,153.269,49.306,156.509,49.306Zm10.113,0.09c4.2,0,7.409-3.42,7.409-8.04,0-4.68-3.209-8.16-7.409-8.16-4.14,0-7.41,3.48-7.41,8.16C159.212,45.976,162.482,49.4,166.622,49.4Zm0-2.25c-2.58,0-4.86-2.07-4.86-5.79,0-3.78,2.28-5.91,4.86-5.91,2.61,0,4.89,2.13,4.89,5.91C171.512,45.076,169.232,47.146,166.622,47.146Zm27.57,2.25c4.26,0,7.349-2.04,7.349-5.82,0-4.11-2.519-5.34-7.139-6.39-4.05-.93-4.92-1.83-4.92-3.57,0-1.92,1.38-3.06,4.2-3.06,3.09,0,4.59,1.53,4.8,3.54h2.579c-0.359-3.54-2.939-5.85-7.409-5.85-3.93,0-6.72,1.95-6.72,5.43,0,3.51,2.25,4.98,6.87,5.97,4.32,0.93,5.22,2.01,5.22,3.93,0,2.07-1.59,3.51-4.83,3.51-3.15,0-5.25-1.71-5.37-4.32h-2.64C186.332,46.456,189.482,49.4,194.192,49.4Zm17.8,0c3.48,0,6.03-1.98,6.75-4.68h-2.61a4.1,4.1,0,0,1-4.14,2.46c-2.46,0-4.77-1.68-5.04-5.1H219.1c0.15-5.82-3.329-8.88-7.2-8.88-4.17,0-7.5,3.42-7.5,8.13C204.4,46.1,207.7,49.4,211.991,49.4Zm-4.95-9.45c0.6-3.21,2.79-4.53,4.86-4.53,2.22,0,4.11,1.41,4.44,4.53h-9.3Zm15.666,9.09h2.46V40.1c0-3.12,2.31-4.41,5.01-4.17v-2.49a5.173,5.173,0,0,0-5.1,2.76v-2.61h-2.37V49.036Zm15.387,0h2.64l5.64-15.449h-2.58l-3.72,10.5a20.211,20.211,0,0,0-.63,2.46,20.211,20.211,0,0,0-.63-2.46l-3.72-10.5h-2.64Zm11.226,0h2.46V33.586h-2.46V49.036ZM249.2,30.647h2.7v-3.03h-2.7v3.03ZM262.907,49.4a6.517,6.517,0,0,0,6.63-5.1h-2.61a4.065,4.065,0,0,1-4.02,2.85c-2.76,0-4.89-2.07-4.89-5.79,0-3.78,2.13-5.91,4.89-5.91a4.07,4.07,0,0,1,4.02,2.85h2.61a6.516,6.516,0,0,0-6.63-5.1c-4.14,0-7.44,3.48-7.44,8.16C255.467,45.976,258.767,49.4,262.907,49.4Zm16.719,0c3.48,0,6.03-1.98,6.749-4.68h-2.609a4.1,4.1,0,0,1-4.14,2.46c-2.46,0-4.77-1.68-5.04-5.1h12.149c0.15-5.82-3.329-8.88-7.2-8.88-4.17,0-7.5,3.42-7.5,8.13C272.036,46.1,275.336,49.4,279.626,49.4Zm-4.95-9.45c0.6-3.21,2.79-4.53,4.86-4.53,2.22,0,4.11,1.41,4.44,4.53h-9.3Z"/>
</svg>
