<?xml version="1.0" encoding="UTF-8" standalone="no"?>
<!-- Created with Inkscape (http://www.inkscape.org/) -->

<svg
   version="1.1"
   id="svg2"
   width="385.33334"
   height="238.03999"
   viewBox="0 0 385.33334 238.03999"
   sodipodi:docname="Audi.eps"
   xmlns:inkscape="http://www.inkscape.org/namespaces/inkscape"
   xmlns:sodipodi="http://sodipodi.sourceforge.net/DTD/sodipodi-0.dtd"
   xmlns="http://www.w3.org/2000/svg"
   xmlns:svg="http://www.w3.org/2000/svg">
  <defs
     id="defs6">
    <clipPath
       clipPathUnits="userSpaceOnUse"
       id="clipPath36">
      <path
         d="m 2813.64,1276.49 c 0,238.83 -193.63,432.45 -432.45,432.45 -238.84,0 -432.46,-193.62 -432.46,-432.45 0,-238.84 193.62,-432.443 432.46,-432.443 238.82,0 432.45,193.603 432.45,432.443 z m -432.45,-388.4 c -214.52,0 -388.42,173.89 -388.42,388.4 0,214.51 173.9,388.4 388.42,388.4 214.5,0 388.39,-173.89 388.39,-388.4 0,-214.51 -173.89,-388.4 -388.39,-388.4 z"
         id="path34" />
    </clipPath>
    <linearGradient
       x1="0"
       y1="0"
       x2="1"
       y2="0"
       gradientUnits="userSpaceOnUse"
       gradientTransform="matrix(-611.578,611.578,611.578,611.578,2686.98,970.701)"
       spreadMethod="pad"
       id="linearGradient46">
      <stop
         style="stop-opacity:1;stop-color:#ffffff"
         offset="0"
         id="stop38" />
      <stop
         style="stop-opacity:1;stop-color:#ffffff"
         offset="0.05"
         id="stop40" />
      <stop
         style="stop-opacity:1;stop-color:#5a5758"
         offset="0.59887913"
         id="stop42" />
      <stop
         style="stop-opacity:1;stop-color:#5a5758"
         offset="1"
         id="stop44" />
    </linearGradient>
    <clipPath
       clipPathUnits="userSpaceOnUse"
       id="clipPath56">
      <path
         d="m 2829.64,1276.49 c 0,247.68 -200.78,448.47 -448.45,448.47 -247.69,0 -448.48,-200.79 -448.48,-448.47 0,-247.69 200.79,-448.47 448.48,-448.47 247.67,0 448.45,200.78 448.45,448.47 z M 2381.19,772.672 c -278.26,0 -503.83,225.562 -503.83,503.818 0,278.25 225.57,503.82 503.83,503.82 278.24,0 503.82,-225.57 503.82,-503.82 0,-278.256 -225.58,-503.818 -503.82,-503.818 z"
         id="path54" />
    </clipPath>
    <linearGradient
       x1="0"
       y1="0"
       x2="1"
       y2="0"
       gradientUnits="userSpaceOnUse"
       gradientTransform="matrix(712.514,-712.514,-712.514,-712.514,2024.93,1632.74)"
       spreadMethod="pad"
       id="linearGradient66">
      <stop
         style="stop-opacity:1;stop-color:#ffffff"
         offset="0"
         id="stop58" />
      <stop
         style="stop-opacity:1;stop-color:#ffffff"
         offset="0.05"
         id="stop60" />
      <stop
         style="stop-opacity:1;stop-color:#5a5758"
         offset="0.59887913"
         id="stop62" />
      <stop
         style="stop-opacity:1;stop-color:#5a5758"
         offset="1"
         id="stop64" />
    </linearGradient>
    <clipPath
       clipPathUnits="userSpaceOnUse"
       id="clipPath78">
      <path
         d="m 941.27,1276.49 c 0,238.83 -193.614,432.45 -432.446,432.45 -238.84,0 -432.4568,-193.62 -432.4568,-432.45 0,-238.84 193.6168,-432.443 432.4568,-432.443 238.832,0 432.446,193.603 432.446,432.443 z M 508.824,888.09 c -214.511,0 -388.41,173.89 -388.41,388.4 0,214.51 173.899,388.4 388.41,388.4 214.504,0 388.399,-173.89 388.399,-388.4 0,-214.51 -173.895,-388.4 -388.399,-388.4 z"
         id="path76" />
    </clipPath>
    <linearGradient
       x1="0"
       y1="0"
       x2="1"
       y2="0"
       gradientUnits="userSpaceOnUse"
       gradientTransform="matrix(-611.585,611.585,611.585,611.585,814.614,970.696)"
       spreadMethod="pad"
       id="linearGradient88">
      <stop
         style="stop-opacity:1;stop-color:#ffffff"
         offset="0"
         id="stop80" />
      <stop
         style="stop-opacity:1;stop-color:#ffffff"
         offset="0.05"
         id="stop82" />
      <stop
         style="stop-opacity:1;stop-color:#5a5758"
         offset="0.59887913"
         id="stop84" />
      <stop
         style="stop-opacity:1;stop-color:#5a5758"
         offset="1"
         id="stop86" />
    </linearGradient>
    <clipPath
       clipPathUnits="userSpaceOnUse"
       id="clipPath98">
      <path
         d="m 957.285,1276.49 c 0,247.68 -200.781,448.47 -448.461,448.47 -247.687,0 -448.4724,-200.79 -448.4724,-448.47 0,-247.69 200.7854,-448.47 448.4724,-448.47 247.68,0 448.461,200.78 448.461,448.47 z M 508.824,772.672 C 230.57,772.672 5,998.234 5,1276.49 c 0,278.25 225.57,503.82 503.824,503.82 278.25,0 503.816,-225.57 503.816,-503.82 0,-278.256 -225.566,-503.818 -503.816,-503.818 z"
         id="path96" />
    </clipPath>
    <linearGradient
       x1="0"
       y1="0"
       x2="1"
       y2="0"
       gradientUnits="userSpaceOnUse"
       gradientTransform="matrix(712.507,-712.507,-712.507,-712.507,152.573,1632.74)"
       spreadMethod="pad"
       id="linearGradient108">
      <stop
         style="stop-opacity:1;stop-color:#ffffff"
         offset="0"
         id="stop100" />
      <stop
         style="stop-opacity:1;stop-color:#ffffff"
         offset="0.05"
         id="stop102" />
      <stop
         style="stop-opacity:1;stop-color:#5a5758"
         offset="0.59887913"
         id="stop104" />
      <stop
         style="stop-opacity:1;stop-color:#5a5758"
         offset="1"
         id="stop106" />
    </linearGradient>
    <clipPath
       clipPathUnits="userSpaceOnUse"
       id="clipPath120">
      <path
         d="m 820.867,1045.22 c -47.961,64.6 -76.332,144.62 -76.332,231.27 0,86.65 28.375,166.68 76.348,231.29 l -0.004,68.1 c -74.566,-77.7 -120.391,-183.2 -120.391,-299.39 0,-116.01 45.672,-221.35 120.032,-299.013 z m 612.663,542.17 c -77.82,75.25 -183.79,121.55 -300.59,121.55 -116.88,0 -222.936,-46.37 -300.76,-121.71 l 71.195,2.6 c 64.313,47.19 143.685,75.06 229.565,75.06 85.89,0 165.27,-27.87 229.57,-75.07 z m 11.47,-79.61 c 47.96,-64.61 76.34,-144.64 76.34,-231.29 0,-86.66 -28.38,-166.68 -76.34,-231.29 l 0.25,-67.845 c 74.41,77.675 120.14,183.065 120.14,299.135 0,116.19 -45.82,221.68 -120.39,299.38 z m -82.5,-544.624 c -64.31,-47.191 -143.68,-75.066 -229.56,-75.066 -85.87,0 -165.245,27.875 -229.549,75.058 l -71.172,2.567 c 77.82,-75.32 183.861,-121.668 300.721,-121.668 116.88,0 222.93,46.359 300.77,121.703 z"
         id="path118" />
    </clipPath>
    <linearGradient
       x1="0"
       y1="0"
       x2="1"
       y2="0"
       gradientUnits="userSpaceOnUse"
       gradientTransform="matrix(-611.502,611.502,611.502,611.502,1438.7,970.73)"
       spreadMethod="pad"
       id="linearGradient130">
      <stop
         style="stop-opacity:1;stop-color:#ffffff"
         offset="0"
         id="stop122" />
      <stop
         style="stop-opacity:1;stop-color:#ffffff"
         offset="0.05"
         id="stop124" />
      <stop
         style="stop-opacity:1;stop-color:#5a5758"
         offset="0.59887913"
         id="stop126" />
      <stop
         style="stop-opacity:1;stop-color:#5a5758"
         offset="1"
         id="stop128" />
    </linearGradient>
    <clipPath
       clipPathUnits="userSpaceOnUse"
       id="clipPath140">
      <path
         d="m 738.363,963.172 c -68.386,86.008 -109.242,194.888 -109.242,313.318 0,118.43 40.859,227.31 109.262,313.33 l 71.187,-2.59 c -77.468,-80.6 -125.097,-190.11 -125.097,-310.74 0,-120.64 47.632,-230.15 125.117,-310.756 z M 1527.5,1589.82 c 68.4,-86.02 109.26,-194.91 109.26,-313.33 0,-118.44 -40.86,-227.32 -109.26,-313.334 l -71.2,2.59 c 77.47,80.594 125.1,190.104 125.1,310.744 0,120.64 -47.64,230.16 -125.12,310.76 z M 1445,880.922 c -85.81,-67.793 -194.21,-108.25 -312.06,-108.25 -117.84,0 -226.229,40.457 -312.045,108.23 l -0.016,73.5 C 901.602,876.164 1011.65,828.02 1132.94,828.02 c 121.29,0 231.34,48.156 312.06,126.382 z m 0.02,717.638 c -80.72,78.24 -190.78,126.4 -312.08,126.4 -121.29,0 -231.338,-48.16 -312.061,-126.38 l 0.004,73.47 c 85.812,67.8 194.207,108.26 312.057,108.26 117.87,0 226.27,-40.47 312.1,-108.27 z"
         id="path138" />
    </clipPath>
    <linearGradient
       x1="0"
       y1="0"
       x2="1"
       y2="0"
       gradientUnits="userSpaceOnUse"
       gradientTransform="matrix(707.894,-707.894,-707.894,-707.894,778.999,1630.43)"
       spreadMethod="pad"
       id="linearGradient150">
      <stop
         style="stop-opacity:1;stop-color:#ffffff"
         offset="0"
         id="stop142" />
      <stop
         style="stop-opacity:1;stop-color:#ffffff"
         offset="0.05"
         id="stop144" />
      <stop
         style="stop-opacity:1;stop-color:#5a5758"
         offset="0.59887913"
         id="stop146" />
      <stop
         style="stop-opacity:1;stop-color:#5a5758"
         offset="1"
         id="stop148" />
    </linearGradient>
    <clipPath
       clipPathUnits="userSpaceOnUse"
       id="clipPath162">
      <path
         d="m 1444.99,1045.22 c -47.96,64.6 -76.33,144.62 -76.33,231.27 0,86.65 28.37,166.68 76.34,231.29 v 68.1 c -74.57,-77.7 -120.39,-183.2 -120.39,-299.39 0,-116.01 45.68,-221.35 120.03,-299.013 z m 612.66,542.17 c -77.82,75.25 -183.8,121.55 -300.58,121.55 -116.89,0 -222.94,-46.37 -300.77,-121.71 l 71.2,2.6 c 64.31,47.19 143.68,75.06 229.57,75.06 85.88,0 165.26,-27.87 229.57,-75.07 z m 11.47,-79.61 c 47.96,-64.61 76.34,-144.64 76.34,-231.29 0,-86.66 -28.38,-166.68 -76.34,-231.29 l 0.25,-67.845 c 74.41,77.675 120.15,183.065 120.15,299.135 0,116.19 -45.83,221.68 -120.4,299.38 z m -82.5,-544.624 c -64.31,-47.191 -143.68,-75.066 -229.55,-75.066 -85.87,0 -165.25,27.875 -229.56,75.058 l -71.18,2.567 c 77.83,-75.32 183.88,-121.668 300.74,-121.668 116.87,0 222.92,46.359 300.76,121.703 z"
         id="path160" />
    </clipPath>
    <linearGradient
       x1="0"
       y1="0"
       x2="1"
       y2="0"
       gradientUnits="userSpaceOnUse"
       gradientTransform="matrix(-611.502,611.502,611.502,611.502,2062.82,970.73)"
       spreadMethod="pad"
       id="linearGradient172">
      <stop
         style="stop-opacity:1;stop-color:#ffffff"
         offset="0"
         id="stop164" />
      <stop
         style="stop-opacity:1;stop-color:#ffffff"
         offset="0.05"
         id="stop166" />
      <stop
         style="stop-opacity:1;stop-color:#5a5758"
         offset="0.59887913"
         id="stop168" />
      <stop
         style="stop-opacity:1;stop-color:#5a5758"
         offset="1"
         id="stop170" />
    </linearGradient>
    <clipPath
       clipPathUnits="userSpaceOnUse"
       id="clipPath182">
      <path
         d="m 1362.49,963.172 c -68.39,86.008 -109.25,194.888 -109.25,313.318 0,118.43 40.87,227.31 109.26,313.33 l 71.2,-2.59 c -77.48,-80.6 -125.11,-190.11 -125.11,-310.74 0,-120.64 47.64,-230.15 125.12,-310.756 z m 789.14,626.648 c 68.39,-86.02 109.26,-194.91 109.26,-313.33 0,-118.44 -40.87,-227.32 -109.26,-313.334 l -71.21,2.59 c 77.49,80.594 125.11,190.104 125.11,310.744 0,120.64 -47.63,230.16 -125.12,310.76 z m -82.5,-708.898 c -85.82,-67.793 -194.21,-108.25 -312.06,-108.25 -117.85,0 -226.24,40.457 -312.05,108.23 l -0.02,73.5 c 80.73,-78.238 190.78,-126.382 312.07,-126.382 121.28,0 231.33,48.156 312.06,126.382 z m 0.02,717.638 c -80.73,78.24 -190.79,126.4 -312.08,126.4 -121.29,0 -231.34,-48.16 -312.07,-126.38 v 73.47 c 85.83,67.8 194.21,108.26 312.07,108.26 117.87,0 226.27,-40.47 312.1,-108.27 z"
         id="path180" />
    </clipPath>
    <linearGradient
       x1="0"
       y1="0"
       x2="1"
       y2="0"
       gradientUnits="userSpaceOnUse"
       gradientTransform="matrix(707.887,-707.887,-707.887,-707.887,1403.13,1630.43)"
       spreadMethod="pad"
       id="linearGradient192">
      <stop
         style="stop-opacity:1;stop-color:#ffffff"
         offset="0"
         id="stop184" />
      <stop
         style="stop-opacity:1;stop-color:#ffffff"
         offset="0.05"
         id="stop186" />
      <stop
         style="stop-opacity:1;stop-color:#5a5758"
         offset="0.59887913"
         id="stop188" />
      <stop
         style="stop-opacity:1;stop-color:#5a5758"
         offset="1"
         id="stop190" />
    </linearGradient>
  </defs>
  <sodipodi:namedview
     id="namedview4"
     pagecolor="#ffffff"
     bordercolor="#000000"
     borderopacity="0.25"
     inkscape:showpageshadow="2"
     inkscape:pageopacity="0.0"
     inkscape:pagecheckerboard="0"
     inkscape:deskcolor="#d1d1d1" />
  <g
     id="g8"
     inkscape:groupmode="layer"
     inkscape:label="ink_ext_XXXXXX"
     transform="matrix(1.3333333,0,0,-1.3333333,0,238.04)">
    <g
       id="g10"
       transform="scale(0.1)">
      <path
         d="m 508.824,888.09 c -214.511,0 -388.41,173.89 -388.41,388.4 0,214.51 173.899,388.4 388.41,388.4 214.504,0 388.399,-173.89 388.399,-388.4 0,-214.51 -173.895,-388.4 -388.399,-388.4 z"
         style="fill:none;stroke:#918f90;stroke-width:10;stroke-linecap:butt;stroke-linejoin:miter;stroke-miterlimit:4;stroke-dasharray:none;stroke-opacity:1"
         id="path12" />
      <path
         d="m 1132.94,888.09 c -214.506,0 -388.405,173.89 -388.405,388.4 0,214.51 173.899,388.4 388.405,388.4 214.51,0 388.4,-173.89 388.4,-388.4 0,-214.51 -173.89,-388.4 -388.4,-388.4 z"
         style="fill:none;stroke:#918f90;stroke-width:10;stroke-linecap:butt;stroke-linejoin:miter;stroke-miterlimit:4;stroke-dasharray:none;stroke-opacity:1"
         id="path14" />
      <path
         d="m 1757.07,888.09 c -214.52,0 -388.41,173.89 -388.41,388.4 0,214.51 173.89,388.4 388.41,388.4 214.5,0 388.39,-173.89 388.39,-388.4 0,-214.51 -173.89,-388.4 -388.39,-388.4 z"
         style="fill:none;stroke:#918f90;stroke-width:10;stroke-linecap:butt;stroke-linejoin:miter;stroke-miterlimit:4;stroke-dasharray:none;stroke-opacity:1"
         id="path16" />
      <path
         d="m 2381.19,888.09 c -214.52,0 -388.41,173.89 -388.41,388.4 0,214.51 173.89,388.4 388.41,388.4 214.5,0 388.39,-173.89 388.39,-388.4 0,-214.51 -173.89,-388.4 -388.39,-388.4 z"
         style="fill:none;stroke:#918f90;stroke-width:10;stroke-linecap:butt;stroke-linejoin:miter;stroke-miterlimit:4;stroke-dasharray:none;stroke-opacity:1"
         id="path18" />
      <path
         d="M 508.824,772.672 C 230.57,772.672 5,998.234 5,1276.49 c 0,278.25 225.57,503.82 503.824,503.82 278.25,0 503.816,-225.57 503.816,-503.82 0,-278.256 -225.566,-503.818 -503.816,-503.818 z"
         style="fill:none;stroke:#918f90;stroke-width:10;stroke-linecap:butt;stroke-linejoin:miter;stroke-miterlimit:4;stroke-dasharray:none;stroke-opacity:1"
         id="path20" />
      <path
         d="m 1132.94,772.672 c -278.249,0 -503.819,225.562 -503.819,503.818 0,278.25 225.57,503.82 503.819,503.82 278.26,0 503.82,-225.57 503.82,-503.82 0,-278.256 -225.56,-503.818 -503.82,-503.818 z"
         style="fill:none;stroke:#918f90;stroke-width:10;stroke-linecap:butt;stroke-linejoin:miter;stroke-miterlimit:4;stroke-dasharray:none;stroke-opacity:1"
         id="path22" />
      <path
         d="m 1757.07,772.672 c -278.26,0 -503.83,225.562 -503.83,503.818 0,278.25 225.57,503.82 503.83,503.82 278.25,0 503.81,-225.57 503.81,-503.82 0,-278.256 -225.56,-503.818 -503.81,-503.818 z"
         style="fill:none;stroke:#918f90;stroke-width:10;stroke-linecap:butt;stroke-linejoin:miter;stroke-miterlimit:4;stroke-dasharray:none;stroke-opacity:1"
         id="path24" />
      <path
         d="m 2381.19,772.672 c -278.26,0 -503.82,225.562 -503.82,503.818 0,278.25 225.56,503.82 503.82,503.82 278.25,0 503.81,-225.57 503.81,-503.82 0,-278.256 -225.56,-503.818 -503.81,-503.818 z"
         style="fill:none;stroke:#918f90;stroke-width:10;stroke-linecap:butt;stroke-linejoin:miter;stroke-miterlimit:4;stroke-dasharray:none;stroke-opacity:1"
         id="path26" />
      <path
         d="m 2083.14,207.391 c 0,57.64 -65.32,104.359 -145.91,104.359 -80.59,0 -145.92,-46.719 -145.92,-104.359 0,-57.621 65.33,-104.352 145.92,-104.352 80.59,0 145.91,46.731 145.91,104.352 z m 109.72,122.5 c 27.51,-36.832 43.35,-80.082 43.35,-126.34 C 2236.21,91.1406 2102.35,0 1937.24,0 1772.1,0 1638.26,91.1406 1638.26,203.551 c 0,224.328 311.09,205.019 343.99,191.988 l -136.14,144.59 H 2031.6 Z M 1447.67,176.16 c 0,-29.82 -26.27,-74.148 -89.88,-74.148 -63.61,0 -89.89,44.328 -89.89,74.148 0,29.84 0,218.012 0,218.012 H 1112.22 V 176.16 C 1112.22,71.6094 1201.9,0 1357.8,0 c 155.89,0 245.55,71.6094 245.55,176.16 v 218.012 h -155.68 c 0,0 0,-188.172 0,-218.012 z M 847.246,206.121 741.543,380.422 637.582,206.121 Z M 794.938,540.129 1143.44,17.6719 H 961.527 L 909.105,104.109 H 576.742 L 525.18,17.6719 H 349.68 L 656.352,477.41 599.836,540.129 Z M 2432.65,394.172 c 0,0 0,-346.672 0,-376.5001 H 2276.97 V 394.172 h 155.68"
         style="fill:#ed1c24;fill-opacity:1;fill-rule:nonzero;stroke:none"
         id="path28" />
      <g
         id="g30">
        <g
           id="g32"
           clip-path="url(#clipPath36)">
          <path
             d="m 2813.64,1276.49 c 0,238.83 -193.63,432.45 -432.45,432.45 -238.84,0 -432.46,-193.62 -432.46,-432.45 0,-238.84 193.62,-432.443 432.46,-432.443 238.82,0 432.45,193.603 432.45,432.443 z m -432.45,-388.4 c -214.52,0 -388.42,173.89 -388.42,388.4 0,214.51 173.9,388.4 388.42,388.4 214.5,0 388.39,-173.89 388.39,-388.4 0,-214.51 -173.89,-388.4 -388.39,-388.4"
             style="fill:url(#linearGradient46);fill-opacity:1;fill-rule:nonzero;stroke:none"
             id="path48" />
        </g>
      </g>
      <g
         id="g50">
        <g
           id="g52"
           clip-path="url(#clipPath56)">
          <path
             d="m 2829.64,1276.49 c 0,247.68 -200.78,448.47 -448.45,448.47 -247.69,0 -448.48,-200.79 -448.48,-448.47 0,-247.69 200.79,-448.47 448.48,-448.47 247.67,0 448.45,200.78 448.45,448.47 z M 2381.19,772.672 c -278.26,0 -503.83,225.562 -503.83,503.818 0,278.25 225.57,503.82 503.83,503.82 278.24,0 503.82,-225.57 503.82,-503.82 0,-278.256 -225.58,-503.818 -503.82,-503.818"
             style="fill:url(#linearGradient66);fill-opacity:1;fill-rule:nonzero;stroke:none"
             id="path68" />
        </g>
      </g>
      <path
         d="m 2381.19,844.047 c -238.84,0 -432.46,193.603 -432.46,432.443 0,238.83 193.62,432.45 432.46,432.45 238.82,0 432.45,-193.62 432.45,-432.45 0,-238.84 -193.63,-432.443 -432.45,-432.443 z m 0,880.913 c -247.69,0 -448.48,-200.79 -448.48,-448.47 0,-247.69 200.79,-448.47 448.48,-448.47 247.67,0 448.45,200.78 448.45,448.47 0,247.68 -200.78,448.47 -448.45,448.47"
         style="fill:#ffffff;fill-opacity:1;fill-rule:nonzero;stroke:none"
         id="path70" />
      <g
         id="g72">
        <g
           id="g74"
           clip-path="url(#clipPath78)">
          <path
             d="m 941.27,1276.49 c 0,238.83 -193.614,432.45 -432.446,432.45 -238.84,0 -432.4568,-193.62 -432.4568,-432.45 0,-238.84 193.6168,-432.443 432.4568,-432.443 238.832,0 432.446,193.603 432.446,432.443 z M 508.824,888.09 c -214.511,0 -388.41,173.89 -388.41,388.4 0,214.51 173.899,388.4 388.41,388.4 214.504,0 388.399,-173.89 388.399,-388.4 0,-214.51 -173.895,-388.4 -388.399,-388.4"
             style="fill:url(#linearGradient88);fill-opacity:1;fill-rule:nonzero;stroke:none"
             id="path90" />
        </g>
      </g>
      <g
         id="g92">
        <g
           id="g94"
           clip-path="url(#clipPath98)">
          <path
             d="m 957.285,1276.49 c 0,247.68 -200.781,448.47 -448.461,448.47 -247.687,0 -448.4724,-200.79 -448.4724,-448.47 0,-247.69 200.7854,-448.47 448.4724,-448.47 247.68,0 448.461,200.78 448.461,448.47 z M 508.824,772.672 C 230.57,772.672 5,998.234 5,1276.49 c 0,278.25 225.57,503.82 503.824,503.82 278.25,0 503.816,-225.57 503.816,-503.82 0,-278.256 -225.566,-503.818 -503.816,-503.818"
             style="fill:url(#linearGradient108);fill-opacity:1;fill-rule:nonzero;stroke:none"
             id="path110" />
        </g>
      </g>
      <path
         d="m 508.824,844.047 c -238.84,0 -432.4568,193.603 -432.4568,432.443 0,238.83 193.6168,432.45 432.4568,432.45 238.832,0 432.446,-193.62 432.446,-432.45 0,-238.84 -193.614,-432.443 -432.446,-432.443 z m 0,880.913 c -247.687,0 -448.4724,-200.79 -448.4724,-448.47 0,-247.69 200.7854,-448.47 448.4724,-448.47 247.68,0 448.461,200.78 448.461,448.47 0,247.68 -200.781,448.47 -448.461,448.47"
         style="fill:#ffffff;fill-opacity:1;fill-rule:nonzero;stroke:none"
         id="path112" />
      <g
         id="g114">
        <g
           id="g116"
           clip-path="url(#clipPath120)">
          <path
             d="m 820.867,1045.22 c -47.961,64.6 -76.332,144.62 -76.332,231.27 0,86.65 28.375,166.68 76.348,231.29 l -0.004,68.1 c -74.566,-77.7 -120.391,-183.2 -120.391,-299.39 0,-116.01 45.672,-221.35 120.032,-299.013 z m 612.663,542.17 c -77.82,75.25 -183.79,121.55 -300.59,121.55 -116.88,0 -222.936,-46.37 -300.76,-121.71 l 71.195,2.6 c 64.313,47.19 143.685,75.06 229.565,75.06 85.89,0 165.27,-27.87 229.57,-75.07 z m 11.47,-79.61 c 47.96,-64.61 76.34,-144.64 76.34,-231.29 0,-86.66 -28.38,-166.68 -76.34,-231.29 l 0.25,-67.845 c 74.41,77.675 120.14,183.065 120.14,299.135 0,116.19 -45.82,221.68 -120.39,299.38 z m -82.5,-544.624 c -64.31,-47.191 -143.68,-75.066 -229.56,-75.066 -85.87,0 -165.245,27.875 -229.549,75.058 l -71.172,2.567 c 77.82,-75.32 183.861,-121.668 300.721,-121.668 116.88,0 222.93,46.359 300.77,121.703 l -71.21,-2.594"
             style="fill:url(#linearGradient130);fill-opacity:1;fill-rule:nonzero;stroke:none"
             id="path132" />
        </g>
      </g>
      <g
         id="g134">
        <g
           id="g136"
           clip-path="url(#clipPath140)">
          <path
             d="m 738.363,963.172 c -68.386,86.008 -109.242,194.888 -109.242,313.318 0,118.43 40.859,227.31 109.262,313.33 l 71.187,-2.59 c -77.468,-80.6 -125.097,-190.11 -125.097,-310.74 0,-120.64 47.632,-230.15 125.117,-310.756 z M 1527.5,1589.82 c 68.4,-86.02 109.26,-194.91 109.26,-313.33 0,-118.44 -40.86,-227.32 -109.26,-313.334 l -71.2,2.59 c 77.47,80.594 125.1,190.104 125.1,310.744 0,120.64 -47.64,230.16 -125.12,310.76 z M 1445,880.922 c -85.81,-67.793 -194.21,-108.25 -312.06,-108.25 -117.84,0 -226.229,40.457 -312.045,108.23 l -0.016,73.5 C 901.602,876.164 1011.65,828.02 1132.94,828.02 c 121.29,0 231.34,48.156 312.06,126.382 z m 0.02,717.638 c -80.72,78.24 -190.78,126.4 -312.08,126.4 -121.29,0 -231.338,-48.16 -312.061,-126.38 l 0.004,73.47 c 85.812,67.8 194.207,108.26 312.057,108.26 117.87,0 226.27,-40.47 312.1,-108.27 l -0.02,-73.48"
             style="fill:url(#linearGradient150);fill-opacity:1;fill-rule:nonzero;stroke:none"
             id="path152" />
        </g>
      </g>
      <path
         d="m 1132.94,844.047 c -238.835,0 -432.452,193.603 -432.452,432.443 0,238.83 193.617,432.45 432.452,432.45 238.84,0 432.45,-193.62 432.45,-432.45 0,-238.84 -193.61,-432.443 -432.45,-432.443 z m 0,880.913 c -247.682,0 -448.467,-200.79 -448.467,-448.47 0,-247.69 200.785,-448.47 448.467,-448.47 247.69,0 448.46,200.78 448.46,448.47 0,247.68 -200.77,448.47 -448.46,448.47"
         style="fill:#ffffff;fill-opacity:1;fill-rule:nonzero;stroke:none"
         id="path154" />
      <g
         id="g156">
        <g
           id="g158"
           clip-path="url(#clipPath162)">
          <path
             d="m 1444.99,1045.22 c -47.96,64.6 -76.33,144.62 -76.33,231.27 0,86.65 28.37,166.68 76.34,231.29 v 68.1 c -74.57,-77.7 -120.39,-183.2 -120.39,-299.39 0,-116.01 45.68,-221.35 120.03,-299.013 z m 612.66,542.17 c -77.82,75.25 -183.8,121.55 -300.58,121.55 -116.89,0 -222.94,-46.37 -300.77,-121.71 l 71.2,2.6 c 64.31,47.19 143.68,75.06 229.57,75.06 85.88,0 165.26,-27.87 229.57,-75.07 z m 11.47,-79.61 c 47.96,-64.61 76.34,-144.64 76.34,-231.29 0,-86.66 -28.38,-166.68 -76.34,-231.29 l 0.25,-67.845 c 74.41,77.675 120.15,183.065 120.15,299.135 0,116.19 -45.83,221.68 -120.4,299.38 z m -82.5,-544.624 c -64.31,-47.191 -143.68,-75.066 -229.55,-75.066 -85.87,0 -165.25,27.875 -229.56,75.058 l -71.18,2.567 c 77.83,-75.32 183.88,-121.668 300.74,-121.668 116.87,0 222.92,46.359 300.76,121.703 l -71.21,-2.594"
             style="fill:url(#linearGradient172);fill-opacity:1;fill-rule:nonzero;stroke:none"
             id="path174" />
        </g>
      </g>
      <g
         id="g176">
        <g
           id="g178"
           clip-path="url(#clipPath182)">
          <path
             d="m 1362.49,963.172 c -68.39,86.008 -109.25,194.888 -109.25,313.318 0,118.43 40.87,227.31 109.26,313.33 l 71.2,-2.59 c -77.48,-80.6 -125.11,-190.11 -125.11,-310.74 0,-120.64 47.64,-230.15 125.12,-310.756 z m 789.14,626.648 c 68.39,-86.02 109.26,-194.91 109.26,-313.33 0,-118.44 -40.87,-227.32 -109.26,-313.334 l -71.21,2.59 c 77.49,80.594 125.11,190.104 125.11,310.744 0,120.64 -47.63,230.16 -125.12,310.76 z m -82.5,-708.898 c -85.82,-67.793 -194.21,-108.25 -312.06,-108.25 -117.85,0 -226.24,40.457 -312.05,108.23 l -0.02,73.5 c 80.73,-78.238 190.78,-126.382 312.07,-126.382 121.28,0 231.33,48.156 312.06,126.382 z m 0.02,717.638 c -80.73,78.24 -190.79,126.4 -312.08,126.4 -121.29,0 -231.34,-48.16 -312.07,-126.38 v 73.47 c 85.83,67.8 194.21,108.26 312.07,108.26 117.87,0 226.27,-40.47 312.1,-108.27 l -0.02,-73.48"
             style="fill:url(#linearGradient192);fill-opacity:1;fill-rule:nonzero;stroke:none"
             id="path194" />
        </g>
      </g>
      <path
         d="m 1757.07,844.047 c -238.84,0 -432.46,193.603 -432.46,432.443 0,238.83 193.62,432.45 432.46,432.45 238.83,0 432.45,-193.62 432.45,-432.45 0,-238.84 -193.62,-432.443 -432.45,-432.443 z m 0,880.913 c -247.69,0 -448.48,-200.79 -448.48,-448.47 0,-247.69 200.79,-448.47 448.48,-448.47 247.68,0 448.46,200.78 448.46,448.47 0,247.68 -200.78,448.47 -448.46,448.47"
         style="fill:#ffffff;fill-opacity:1;fill-rule:nonzero;stroke:none"
         id="path196" />
    </g>
  </g>
</svg>
