<?xml version="1.0" encoding="UTF-8" ?>
<!DOCTYPE svg PUBLIC "-//W3C//DTD SVG 1.1//EN" "http://www.w3.org/Graphics/SVG/1.1/DTD/svg11.dtd">
<svg width="320px" height="100px" viewBox="0 0 1266 410" version="1.1" xmlns="http://www.w3.org/2000/svg">
<g>
<path fill="#000000" opacity="1.00" d=" M 608.48 0.00 L 650.52 0.00 C 680.09 2.88 709.71 8.90 736.90 21.20 C 741.87 23.63 747.56 25.45 753.00 23.15 C 787.11 14.32 822.83 16.29 857.50 20.37 C 898.07 24.92 938.90 21.89 979.50 19.49 C 1006.94 17.26 1034.50 18.03 1062.01 18.03 C 1084.02 18.07 1105.96 20.18 1127.93 21.30 C 1164.85 23.34 1201.76 19.75 1238.51 16.46 C 1242.73 16.88 1247.89 14.62 1251.65 17.46 C 1257.63 22.30 1262.22 28.70 1266.00 35.36 L 1266.00 39.94 C 1255.67 46.63 1244.87 52.57 1233.63 57.59 C 1236.68 64.83 1239.90 71.99 1242.63 79.37 C 1232.87 87.79 1219.85 90.03 1207.98 94.03 C 1208.91 101.34 1214.04 110.39 1207.23 116.21 C 1197.11 124.30 1182.87 122.70 1171.95 128.92 C 1168.42 136.00 1173.03 145.97 1167.30 152.30 C 1155.65 160.46 1140.20 156.38 1127.48 161.63 C 1126.18 162.23 1125.54 163.59 1125.14 164.88 C 1123.25 170.86 1122.84 177.37 1119.86 182.99 C 1117.43 186.76 1112.99 189.11 1108.57 189.48 C 1095.52 190.46 1082.41 189.49 1069.38 190.46 C 1064.79 196.39 1064.77 204.93 1059.69 210.67 C 1043.57 216.68 1025.99 212.22 1009.35 214.43 C 1006.37 219.56 1005.92 225.84 1002.84 230.92 C 999.10 236.01 991.56 235.28 986.05 235.96 C 973.72 237.00 961.75 233.57 949.65 232.01 C 946.55 237.79 943.13 244.26 936.32 246.31 C 923.08 249.05 910.51 243.73 897.83 240.92 C 895.54 245.34 893.66 250.51 888.96 252.96 C 879.89 256.64 870.21 252.77 861.65 249.59 C 844.82 304.01 802.22 348.25 750.94 371.86 C 744.82 375.44 736.04 376.60 733.21 384.07 C 731.26 387.59 729.60 391.24 727.87 394.86 C 720.80 392.35 713.90 389.31 706.55 387.65 C 703.34 392.87 700.09 398.07 696.78 403.23 C 690.47 400.04 684.24 396.68 677.92 393.53 C 673.57 398.50 669.25 403.50 664.96 408.52 C 659.41 404.36 653.89 400.18 648.28 396.11 C 643.27 400.68 638.50 405.51 633.42 410.00 L 631.55 410.00 C 627.29 405.40 622.94 400.88 618.22 396.75 C 612.77 400.64 607.30 404.51 601.82 408.35 C 597.54 403.44 593.28 398.52 589.05 393.58 C 582.80 396.85 576.56 400.12 570.27 403.29 C 566.75 398.05 563.24 392.83 559.73 387.60 C 552.77 389.33 546.17 392.15 539.48 394.69 C 535.98 389.38 533.69 382.05 526.92 380.13 C 478.90 362.07 435.91 328.28 410.96 283.03 C 403.75 270.52 399.24 256.76 394.99 243.03 C 383.78 246.95 371.98 251.53 359.93 249.16 C 353.24 247.58 351.79 239.76 348.65 234.57 C 333.72 236.26 319.21 241.28 304.04 240.85 C 300.75 240.62 297.38 239.36 295.15 236.87 C 291.62 232.64 291.16 226.61 287.53 222.48 C 271.51 220.37 254.75 224.58 239.12 219.85 C 231.31 216.94 232.52 206.72 227.33 201.68 C 206.60 194.88 183.13 199.97 163.34 189.67 C 158.91 185.06 159.57 177.75 157.80 171.92 C 142.30 168.51 126.43 166.59 111.31 161.59 C 110.20 161.16 109.14 160.56 108.27 159.73 C 106.87 153.05 106.70 146.20 105.82 139.45 C 105.83 137.97 104.28 137.46 103.20 136.90 C 91.71 132.26 79.14 130.54 68.09 124.78 C 64.99 123.67 63.39 120.39 63.74 117.25 C 64.32 112.04 66.57 107.23 68.10 102.26 C 54.55 94.82 40.06 89.36 26.07 82.85 C 27.63 74.40 29.71 66.02 32.97 58.06 C 21.33 52.96 9.76 47.47 0.00 39.17 L 0.00 35.58 C 4.65 28.66 9.15 21.08 16.27 16.42 C 20.85 15.46 25.61 16.43 30.23 16.54 C 67.65 20.56 105.37 23.36 143.00 21.06 C 184.22 17.69 225.62 17.28 266.94 18.42 C 312.21 20.65 357.66 25.53 402.94 20.80 C 437.80 17.08 473.53 14.03 508.03 22.10 C 515.70 25.08 522.95 20.58 529.91 17.94 C 555.02 8.11 581.64 2.40 608.48 0.00 M 528.68 28.47 C 533.30 30.88 537.97 33.36 543.02 34.72 C 553.87 32.97 564.19 28.94 574.98 26.86 C 591.72 22.72 608.96 21.30 626.13 20.28 C 656.92 19.85 687.57 25.58 716.64 35.55 C 723.38 38.43 729.88 33.19 735.33 29.74 C 720.15 22.48 703.64 18.44 687.33 14.64 C 670.47 10.77 653.22 8.91 635.96 8.20 C 599.38 8.46 562.74 15.01 528.68 28.47 M 18.71 23.79 C 12.53 25.97 8.47 31.55 4.51 36.47 C 9.99 39.02 15.45 41.66 21.18 43.65 C 41.93 51.61 64.60 49.30 86.32 50.69 C 137.23 51.53 188.12 53.13 239.00 54.95 C 267.33 56.14 295.70 55.87 324.00 57.64 C 324.40 56.16 324.80 54.68 325.19 53.20 C 309.11 50.72 293.07 47.79 276.86 46.27 C 238.34 42.96 199.64 42.35 161.00 41.81 C 156.55 42.27 152.46 40.41 149.13 37.69 C 159.39 36.79 169.68 35.83 180.00 36.01 C 217.22 36.63 254.47 38.05 291.54 41.60 C 320.57 45.50 349.58 50.59 378.97 50.38 C 408.66 52.20 438.39 48.21 468.06 50.76 C 476.51 51.61 485.27 52.98 492.72 57.29 C 496.80 61.95 500.09 68.17 498.46 74.57 C 496.52 92.86 480.26 105.88 478.24 124.11 C 477.70 130.53 481.79 135.51 486.17 139.56 C 490.37 135.61 494.24 131.34 497.72 126.73 C 491.33 119.41 492.17 108.33 497.99 100.99 C 505.41 88.04 518.79 80.44 528.04 69.04 C 533.18 62.83 539.52 56.36 540.63 47.99 C 539.38 42.02 533.03 39.19 527.96 37.10 C 501.38 26.65 472.16 26.34 444.03 27.24 C 416.34 28.54 388.69 30.70 361.00 31.65 C 324.77 30.58 288.69 26.57 252.46 25.41 C 216.93 23.47 181.50 27.71 146.00 28.11 C 117.29 29.32 88.55 27.69 59.96 25.18 C 46.23 24.26 32.44 21.81 18.71 23.79 M 1129.87 28.39 C 1109.90 27.92 1089.94 27.03 1070.00 25.93 C 1025.64 22.97 981.28 27.40 937.04 30.28 C 918.38 31.86 899.61 32.10 880.97 30.26 C 843.17 28.65 805.10 24.19 767.41 29.44 C 753.66 31.74 739.33 34.51 727.72 42.74 C 723.77 45.70 725.23 51.07 727.26 54.71 C 734.29 67.52 745.78 76.88 756.13 86.88 C 763.29 94.28 770.93 102.61 772.68 113.16 C 773.62 118.26 770.15 122.23 768.03 126.45 C 771.16 131.14 774.79 135.45 778.50 139.70 C 782.16 136.97 786.24 133.80 787.03 128.99 C 788.72 115.41 779.46 104.48 773.98 93.01 C 769.47 84.01 764.10 72.89 768.99 62.99 C 771.27 56.70 778.14 54.72 783.88 52.84 C 804.10 48.27 825.04 50.11 845.59 50.51 C 862.05 51.63 878.53 50.25 895.01 49.99 C 921.41 49.64 947.43 44.71 973.58 41.54 C 993.07 39.05 1012.74 38.74 1032.32 37.32 C 1060.51 36.60 1088.79 34.99 1116.92 37.98 C 1113.15 40.61 1108.62 42.05 1104.00 41.81 C 1068.62 42.14 1033.24 43.11 997.96 45.76 C 978.73 46.96 959.80 50.60 940.75 53.23 C 941.56 55.96 942.35 58.67 943.26 61.38 C 943.18 59.96 943.10 58.53 943.05 57.10 C 1030.04 54.89 1117.00 51.30 1204.02 49.88 C 1223.96 49.97 1243.98 45.97 1261.68 36.60 C 1256.77 29.03 1248.80 21.41 1239.02 23.05 C 1202.66 25.15 1166.35 29.89 1129.87 28.39 M 548.19 41.98 C 549.10 50.43 549.58 59.79 543.81 66.80 C 531.93 83.32 514.34 94.80 502.57 111.44 C 500.99 113.77 500.20 116.49 499.43 119.17 C 510.13 110.16 520.83 100.96 533.08 94.07 C 583.01 65.31 645.43 60.19 699.69 79.31 C 724.53 87.60 746.89 101.99 766.53 119.14 C 764.65 113.90 762.22 108.76 758.23 104.78 C 745.65 89.75 728.37 78.67 718.77 61.22 C 715.98 56.18 717.69 50.16 717.52 44.70 C 663.74 23.22 603.00 25.41 548.19 41.98 M 876.92 57.46 C 878.57 60.87 880.96 64.44 885.11 64.80 C 903.24 67.14 923.02 69.58 939.52 60.03 C 938.81 57.70 938.05 55.38 937.20 53.10 C 917.17 55.45 896.96 55.30 876.92 57.46 M 327.98 53.93 C 327.55 55.96 327.14 58.00 326.76 60.04 C 334.04 63.55 341.65 67.37 349.97 66.83 C 360.79 66.43 371.68 66.11 382.38 64.28 C 385.99 63.84 387.26 60.01 388.83 57.30 C 368.62 55.25 348.29 54.24 327.98 53.93 M 36.80 56.90 C 33.00 62.80 29.09 69.58 29.17 76.70 C 33.97 81.21 40.93 82.13 47.01 83.96 C 65.19 89.13 84.19 90.29 103.00 90.06 C 132.89 90.62 162.69 88.06 192.55 87.42 C 239.95 85.98 287.28 82.80 334.68 81.53 C 334.23 82.82 333.77 84.10 333.33 85.39 C 334.89 84.64 336.45 83.87 338.00 83.09 C 338.25 80.59 338.75 75.59 339.00 73.09 C 330.27 68.28 321.59 61.42 311.03 62.15 C 260.25 60.84 209.45 60.48 158.68 59.35 C 118.04 58.94 77.44 56.86 36.80 56.90 M 391.63 56.80 C 390.33 60.10 389.29 63.49 388.49 66.94 C 391.35 68.84 393.86 71.50 397.14 72.68 C 402.05 72.75 406.65 70.56 411.38 69.51 C 406.02 74.91 396.51 78.11 396.96 87.26 C 399.92 87.97 402.90 88.90 405.98 88.78 C 413.69 89.27 419.68 83.94 426.42 81.16 C 420.27 88.58 408.88 92.36 407.93 103.13 C 413.31 105.46 419.30 107.01 425.12 105.15 C 432.88 102.17 439.51 96.95 446.04 91.92 C 440.54 99.70 432.97 105.65 427.11 113.12 C 424.48 116.54 427.74 122.19 432.00 122.04 C 442.83 122.89 450.20 113.68 457.50 107.20 C 453.28 116.25 445.06 123.96 445.84 134.66 C 449.28 134.91 452.65 135.08 456.11 135.31 C 458.93 132.82 461.79 130.33 464.58 127.79 C 463.69 132.23 461.14 137.33 463.32 141.67 C 467.91 146.46 475.25 143.96 481.11 143.76 C 477.24 136.93 472.07 129.84 474.59 121.46 C 476.61 112.44 482.61 104.95 486.98 96.97 C 491.45 89.62 496.63 81.55 494.58 72.47 C 491.89 67.31 486.12 64.92 480.90 63.10 C 459.88 56.72 437.67 58.46 416.03 57.57 C 407.90 57.11 399.76 57.00 391.63 56.80 M 784.98 62.98 C 778.72 65.25 770.04 68.91 770.57 76.79 C 773.11 94.95 790.10 107.50 792.00 125.95 C 792.15 133.00 787.22 138.44 784.78 144.69 C 790.40 144.03 797.91 146.09 802.28 141.25 C 805.07 137.30 802.33 132.34 801.91 128.06 C 804.28 130.39 806.68 132.70 809.11 135.00 C 811.86 134.89 817.37 134.67 820.12 134.57 C 820.89 124.19 813.53 116.49 808.73 108.12 C 814.24 112.72 819.34 118.15 826.13 120.91 C 830.44 122.84 835.19 121.09 839.64 120.48 C 838.66 116.89 838.95 112.65 836.25 109.81 C 830.87 104.06 825.25 98.50 820.60 92.13 C 829.48 98.83 839.09 108.62 851.38 105.50 C 855.23 105.59 857.80 101.78 856.96 98.19 C 851.98 91.79 845.22 87.11 839.53 81.40 C 844.07 83.56 848.52 85.92 853.18 87.82 C 858.16 89.97 863.66 88.21 868.76 87.29 C 868.80 78.02 859.68 74.28 853.78 69.22 C 860.17 70.47 869.02 75.94 874.32 69.33 C 879.18 66.20 875.53 60.94 874.60 56.82 C 844.76 59.14 814.22 55.36 784.98 62.98 M 953.01 62.19 C 943.41 61.89 934.90 67.18 927.34 72.52 C 964.20 74.64 1001.09 76.13 1037.98 77.84 C 1081.65 79.30 1125.29 82.07 1169.01 82.22 C 1192.56 83.12 1216.77 83.44 1239.46 76.09 C 1236.98 69.74 1233.42 63.91 1230.03 58.02 C 1137.68 58.09 1045.36 61.83 953.01 62.19 M 380.40 69.44 C 369.24 71.08 357.92 71.70 346.86 73.90 C 341.85 75.07 340.50 81.22 341.34 85.63 C 343.67 88.83 347.58 90.38 351.15 91.73 C 361.15 91.38 370.82 88.42 380.63 86.64 C 385.47 85.37 390.95 84.96 395.05 81.79 C 395.28 79.40 394.16 77.16 392.38 75.62 C 388.94 72.87 385.35 68.54 380.40 69.44 M 881.47 69.73 C 877.07 72.45 871.23 76.06 870.96 81.78 C 874.72 85.01 879.97 85.38 884.59 86.51 C 893.13 88.09 901.57 90.28 910.17 91.61 C 916.12 92.80 920.69 88.62 925.45 85.96 C 923.98 81.50 924.11 74.71 918.41 73.60 C 906.26 71.29 893.85 69.74 881.47 69.73 M 619.45 77.49 C 579.77 80.34 540.06 94.36 510.23 121.24 C 493.77 136.17 480.22 155.09 475.03 176.98 C 469.87 201.31 473.55 227.88 486.98 249.02 C 497.89 267.85 514.55 282.66 532.76 294.26 C 566.73 315.11 607.44 324.91 647.19 321.38 C 691.55 318.06 736.36 300.07 766.17 266.17 C 782.44 247.85 793.45 223.82 792.94 199.00 C 793.33 171.48 779.56 145.58 760.65 126.36 C 723.93 90.08 670.33 73.83 619.45 77.49 M 926.54 78.23 C 927.46 83.80 927.71 89.43 927.41 95.06 C 973.19 101.35 1019.36 104.09 1065.32 108.67 C 1095.27 110.73 1125.03 114.98 1154.98 116.94 C 1172.76 116.46 1192.58 118.87 1208.49 109.08 C 1207.72 103.92 1206.92 98.57 1203.89 94.16 C 1199.41 91.71 1193.87 92.64 1189.01 91.92 C 1113.03 87.50 1036.96 84.73 961.00 80.08 C 949.50 79.56 938.05 78.00 926.54 78.23 M 293.41 89.51 C 220.01 94.97 146.40 96.50 72.88 99.82 C 69.89 105.36 67.05 111.04 65.35 117.14 C 84.72 125.27 106.22 127.26 127.00 125.22 C 201.07 118.81 274.85 109.15 348.87 102.33 C 341.98 109.71 331.32 109.96 321.97 110.97 C 254.81 118.97 187.73 127.63 120.45 134.53 C 116.53 135.28 109.96 134.83 109.07 140.08 C 106.65 145.34 108.15 152.20 114.10 153.90 C 134.86 160.16 157.19 161.33 178.56 157.54 C 211.55 152.15 244.20 144.95 276.85 137.82 C 303.99 132.59 331.03 126.84 358.32 122.43 C 354.01 120.18 349.95 117.51 346.16 114.46 C 347.27 110.31 348.53 106.20 349.94 102.14 C 344.12 96.91 338.80 90.33 330.99 88.11 C 318.45 87.55 305.93 88.94 293.41 89.51 M 369.00 95.00 C 363.53 96.38 358.04 98.11 353.35 101.31 C 351.11 104.43 350.64 108.40 349.62 112.01 C 357.49 115.12 366.07 119.31 374.61 116.57 C 381.38 114.31 387.82 111.21 394.42 108.53 C 399.66 106.11 406.50 104.32 407.00 97.34 C 402.85 95.31 398.73 93.10 394.30 91.78 C 385.69 90.32 377.23 92.86 369.00 95.00 M 871.67 91.69 C 865.98 93.03 859.75 96.08 858.76 102.56 C 869.69 107.75 880.73 112.80 892.13 116.87 C 900.57 119.58 908.77 114.72 916.49 111.97 C 915.20 108.65 914.80 104.95 913.09 101.82 C 910.59 98.89 906.35 98.36 902.99 96.99 C 892.87 93.82 882.43 90.28 871.67 91.69 M 917.12 100.68 C 917.69 106.05 918.17 111.44 918.36 116.84 C 980.81 125.95 1042.95 137.02 1105.31 146.73 C 1124.90 148.82 1144.93 148.69 1164.39 145.42 C 1172.77 143.38 1166.85 132.56 1166.16 126.88 C 1137.57 122.62 1108.72 120.47 1080.05 116.92 C 1040.01 112.78 1000.00 108.42 960.00 103.92 C 945.74 102.44 931.52 99.55 917.12 100.68 M 397.95 111.84 C 388.76 115.93 379.71 120.36 370.80 125.03 C 371.50 128.44 372.21 131.84 372.93 135.26 C 379.98 137.71 387.56 140.53 395.08 138.08 C 404.72 134.33 413.69 128.99 422.23 123.19 C 425.46 121.12 424.72 115.39 421.33 113.72 C 414.39 109.75 405.31 107.88 397.95 111.84 M 845.32 113.41 C 841.99 114.77 841.65 118.76 840.47 121.70 C 849.93 127.26 859.08 133.46 869.14 137.92 C 875.34 140.77 882.61 139.15 888.69 136.65 C 892.84 135.11 894.86 130.45 894.63 126.26 C 893.80 123.83 890.97 123.18 889.07 121.92 C 880.52 117.66 871.91 113.49 863.02 110.03 C 856.93 108.72 850.73 110.70 845.32 113.41 M 897.98 125.90 C 896.65 128.38 896.44 131.28 895.77 133.98 C 898.38 133.75 901.04 133.68 903.61 134.35 C 946.51 146.31 989.88 156.49 1032.86 168.15 C 1058.82 175.39 1085.98 181.40 1113.03 177.99 C 1121.44 176.76 1122.23 166.42 1123.71 159.83 C 1112.77 156.73 1101.54 154.83 1090.43 152.57 C 1046.54 144.30 1002.61 136.32 958.67 128.38 C 942.61 125.59 926.38 122.82 910.02 123.22 C 906.03 123.53 901.33 123.32 897.98 125.90 M 301.34 139.36 C 254.24 148.78 207.45 159.66 160.51 169.80 C 160.64 175.84 162.47 183.00 169.13 184.78 C 185.37 188.97 202.47 189.73 219.15 188.27 C 237.59 185.80 255.12 179.16 272.91 174.02 C 306.54 164.48 339.94 154.13 373.36 143.88 C 371.01 138.15 369.70 132.09 368.24 126.10 C 345.60 128.65 323.63 134.89 301.34 139.36 M 422.76 129.84 C 413.37 135.19 404.63 141.62 395.50 147.39 C 396.53 150.39 396.28 154.66 399.27 156.68 C 403.35 157.56 407.63 157.42 411.80 157.50 C 424.43 156.91 432.97 146.46 441.19 138.20 C 444.86 135.74 442.35 130.19 438.72 129.30 C 433.47 128.64 427.89 128.48 422.76 129.84 M 827.38 129.36 C 823.13 130.07 821.62 136.37 824.85 139.12 C 831.30 145.39 837.97 151.59 845.72 156.23 C 852.45 158.78 859.73 157.25 866.62 156.51 C 869.69 154.85 869.19 150.38 870.52 147.70 C 862.58 142.61 854.78 137.30 846.92 132.10 C 841.59 127.26 833.82 129.00 827.38 129.36 M 881.95 147.67 C 907.61 157.76 932.81 169.01 958.17 179.83 C 972.14 185.79 985.72 192.67 999.93 198.07 C 1018.43 204.44 1038.80 206.15 1057.95 201.87 C 1062.64 198.78 1064.57 193.08 1066.55 188.06 C 1059.30 184.93 1051.62 183.04 1044.08 180.79 C 1003.72 168.79 963.27 157.10 922.88 145.22 C 914.59 143.20 906.43 140.45 897.93 139.53 C 892.21 141.26 887.37 145.16 881.95 147.67 M 444.31 143.31 C 436.45 148.39 430.26 155.55 423.79 162.21 C 425.82 165.70 426.99 170.08 430.35 172.56 C 435.60 174.13 442.24 174.97 446.20 170.21 C 453.28 163.20 460.10 155.43 464.09 146.19 C 458.50 142.12 450.82 140.35 444.31 143.31 M 802.74 149.32 C 807.14 157.17 813.06 164.23 819.76 170.24 C 824.16 174.74 831.00 172.66 836.52 173.73 C 837.79 169.70 841.47 165.83 840.67 161.34 C 838.29 156.37 833.28 153.24 829.52 149.43 C 824.87 145.57 819.75 140.35 813.03 141.93 C 808.77 141.24 801.81 144.11 802.74 149.32 M 344.10 158.24 C 319.82 166.72 295.13 174.00 271.05 183.06 C 257.68 188.50 243.39 191.47 230.45 197.97 C 231.84 202.19 233.01 206.68 235.76 210.23 C 239.90 212.93 245.22 212.49 249.98 212.98 C 267.01 212.83 285.35 214.17 300.97 205.96 C 323.77 194.89 346.10 182.87 368.97 171.94 C 377.79 167.55 386.41 162.67 395.77 159.47 C 393.80 155.41 393.11 149.07 387.70 148.31 C 372.45 147.08 358.43 154.25 344.10 158.24 M 463.92 152.91 C 459.24 158.46 455.55 164.77 452.06 171.10 C 450.85 173.50 449.35 176.43 450.92 179.03 C 453.10 184.38 459.40 185.62 464.43 186.80 C 466.97 173.62 471.43 161.01 477.18 148.92 C 472.72 150.05 467.69 150.04 463.92 152.91 M 787.75 148.78 C 793.59 160.83 799.22 173.09 801.38 186.43 C 807.61 186.66 814.78 182.51 815.73 176.12 C 812.78 167.89 807.56 160.58 802.39 153.58 C 798.71 149.58 792.68 149.94 787.75 148.78 M 873.57 150.39 C 871.31 155.84 869.25 162.03 863.21 164.20 C 891.13 178.95 916.03 198.57 942.78 215.22 C 952.30 221.12 963.62 222.40 974.51 223.64 C 983.41 224.50 992.99 225.91 1001.57 222.55 C 1004.09 219.39 1003.98 215.01 1004.66 211.26 C 970.02 194.45 935.27 177.86 900.37 161.58 C 891.61 157.48 883.20 152.16 873.57 150.39 M 384.99 169.99 C 353.98 186.74 322.36 202.31 291.41 219.18 C 291.65 224.57 294.22 230.05 300.14 230.80 C 313.70 231.87 327.38 229.34 340.30 225.28 C 356.76 218.14 370.40 206.15 385.11 196.14 C 397.75 186.68 411.55 178.26 421.78 166.03 C 409.67 162.11 395.93 163.36 384.99 169.99 M 846.39 165.23 C 841.81 169.64 840.37 176.38 835.53 180.66 C 858.35 194.52 876.62 214.52 899.10 228.84 C 906.70 234.12 916.20 235.05 925.00 237.05 C 932.37 239.29 939.58 235.83 946.21 232.94 C 944.91 229.75 943.29 226.59 940.10 224.93 C 916.35 207.35 892.79 189.51 869.12 171.83 C 862.66 166.91 854.71 163.40 846.39 165.23 M 374.42 211.44 C 366.16 218.42 356.79 224.52 350.82 233.75 C 363.02 244.13 381.73 240.71 393.78 231.79 C 413.61 217.16 428.70 197.14 448.73 182.75 C 439.55 180.20 427.97 183.45 421.95 174.06 C 405.69 185.97 390.26 198.98 374.42 211.44 M 820.44 180.63 C 817.32 184.13 814.27 187.71 811.31 191.34 C 825.62 202.33 838.78 214.73 851.85 227.14 C 859.62 234.01 867.69 241.30 877.98 244.02 C 883.25 246.25 888.87 244.16 893.88 242.27 C 893.30 234.47 886.46 230.38 881.32 225.66 C 866.32 213.03 852.23 199.36 837.22 186.74 C 832.73 182.34 826.26 181.85 820.44 180.63 M 447.59 189.90 C 431.59 203.95 417.76 220.17 403.13 235.58 C 405.26 237.59 407.37 239.99 410.39 240.60 C 419.15 241.73 428.15 240.56 436.39 237.40 C 448.76 231.95 455.74 219.78 464.93 210.54 C 464.61 205.25 464.26 199.98 463.59 194.72 C 458.19 193.33 452.98 191.32 447.59 189.90 M 802.53 193.78 C 801.76 202.39 800.92 211.01 800.06 219.62 C 809.41 227.02 816.62 237.20 827.59 242.46 C 832.81 244.29 838.40 245.60 844.00 245.07 C 848.76 246.69 851.22 242.51 853.51 239.50 C 842.86 227.82 831.03 217.27 820.70 205.29 C 815.76 199.98 810.50 193.68 802.53 193.78 M 453.58 238.37 C 457.14 245.14 466.77 244.48 473.10 245.65 C 470.61 236.40 468.10 227.12 464.64 218.18 C 459.73 223.92 451.80 229.89 453.58 238.37 M 799.53 226.01 C 796.69 233.80 793.76 241.56 790.81 249.31 C 796.98 248.63 804.97 248.59 808.46 242.41 C 810.31 235.61 804.12 230.10 799.53 226.01 M 426.76 250.10 C 446.06 298.91 488.18 336.71 536.75 355.36 C 543.38 344.44 551.58 334.03 554.62 321.38 C 536.86 309.60 517.88 299.47 502.15 284.86 C 491.91 276.63 484.59 265.68 476.38 255.61 C 472.59 253.21 467.64 253.54 463.46 252.29 C 456.94 251.26 451.56 247.03 446.60 242.98 C 440.04 245.51 433.42 247.86 426.76 250.10 M 815.54 246.28 C 812.46 248.93 809.56 251.91 805.91 253.77 C 800.14 256.41 793.44 255.40 787.61 257.72 C 780.83 265.30 776.15 274.66 768.77 281.76 C 757.71 292.22 745.65 301.69 732.57 309.48 C 726.31 313.11 719.52 316.16 714.34 321.34 C 712.12 323.82 713.82 327.33 714.86 330.03 C 718.57 337.73 723.08 345.00 727.31 352.42 C 746.76 345.12 765.32 334.78 780.74 320.74 C 802.23 302.20 820.53 279.01 830.24 252.13 C 825.32 250.25 820.42 248.27 815.54 246.28 M 410.96 249.98 C 413.32 256.45 415.46 263.05 418.89 269.05 C 428.11 285.64 436.99 302.86 450.76 316.24 C 463.97 328.79 477.16 341.69 492.97 351.00 C 504.85 357.93 516.90 364.81 529.83 369.59 C 531.63 366.20 533.23 362.71 534.49 359.08 C 521.45 352.81 508.12 347.01 496.01 338.98 C 483.30 331.44 472.69 321.04 461.78 311.21 C 443.94 294.29 430.89 272.83 421.70 250.15 C 419.01 250.11 413.64 250.03 410.96 249.98 M 834.33 253.03 C 822.79 283.94 800.12 309.28 774.76 329.76 C 761.03 341.10 745.01 349.10 728.86 356.36 C 730.57 360.13 732.38 363.83 734.19 367.56 C 759.85 359.36 781.66 342.23 801.28 324.28 C 821.81 305.19 837.25 280.73 845.98 254.11 C 842.08 253.76 838.21 253.39 834.33 253.03 M 709.14 311.20 C 660.34 330.80 604.06 330.23 555.37 310.60 C 541.78 305.86 529.89 297.54 517.60 290.27 C 529.41 302.00 546.61 305.87 558.20 317.81 C 561.10 320.86 559.22 325.53 558.10 329.03 C 552.31 341.82 544.02 353.33 538.08 366.06 C 535.17 371.52 535.91 378.15 538.34 383.67 C 539.43 385.50 541.29 387.48 543.64 386.65 C 550.54 385.07 556.72 380.29 560.01 374.03 C 567.75 360.43 569.54 344.46 576.92 330.69 C 578.08 331.17 579.24 331.65 580.41 332.14 C 577.88 344.55 572.27 355.97 567.74 367.70 C 565.50 374.76 562.92 383.50 568.00 389.99 C 569.12 392.72 572.54 394.74 575.39 393.49 C 582.15 390.69 587.76 385.00 589.79 377.90 C 593.64 364.17 593.56 349.69 597.90 336.05 C 598.78 336.04 600.54 336.03 601.41 336.03 C 601.87 346.57 598.27 356.72 595.81 366.85 C 594.36 373.54 591.90 380.43 593.69 387.33 C 595.70 391.80 599.50 395.19 602.85 398.69 C 606.50 396.48 610.03 394.06 613.24 391.22 C 616.93 386.94 618.37 381.23 618.68 375.70 C 619.47 363.46 618.48 351.08 620.44 338.92 C 621.40 338.95 623.33 339.00 624.29 339.03 C 625.03 353.38 619.66 367.29 620.44 381.61 C 620.39 389.50 626.01 395.86 632.11 400.08 C 638.67 398.96 643.59 392.78 645.84 386.88 C 647.85 370.42 639.63 354.32 643.35 337.95 C 644.44 339.37 645.68 340.74 646.39 342.42 C 648.94 356.19 646.67 370.46 649.79 384.14 C 651.58 391.26 658.76 394.94 664.27 398.89 C 666.20 396.61 668.06 394.27 669.85 391.87 C 675.42 385.87 672.29 376.97 671.11 369.91 C 668.88 358.53 663.13 347.06 666.44 335.28 C 674.63 347.65 671.54 363.82 676.58 377.34 C 678.36 386.45 687.34 390.58 694.65 394.67 C 697.40 389.67 700.98 384.75 701.83 379.00 C 699.77 362.64 687.48 348.88 688.40 331.95 C 698.15 343.32 697.97 359.27 705.01 372.01 C 708.65 380.45 717.92 384.27 726.25 386.53 C 728.74 380.47 731.33 373.68 728.81 367.17 C 724.19 356.80 718.55 346.91 712.86 337.09 C 710.58 332.82 706.61 329.12 706.03 324.14 C 708.61 315.74 717.54 312.70 723.88 307.82 C 737.67 298.10 753.26 289.95 763.25 275.91 C 747.55 290.76 729.73 304.02 709.14 311.20 Z" />
<path fill="#000000" opacity="1.00" d=" M 615.45 79.60 C 663.62 75.13 714.58 88.36 751.34 120.65 C 770.95 137.73 786.03 161.26 789.48 187.41 C 793.64 219.32 778.53 251.11 755.94 272.95 C 737.90 291.26 714.55 303.43 690.29 311.32 C 636.36 327.65 574.48 320.70 527.87 288.10 C 499.53 268.18 476.86 236.61 475.93 201.02 C 474.14 176.07 485.18 151.79 501.43 133.41 C 529.59 100.17 572.99 83.66 615.45 79.60 M 599.13 110.17 C 576.05 115.24 551.89 124.18 537.41 144.00 C 541.30 148.90 546.12 153.01 549.62 158.22 C 550.19 186.58 550.71 215.08 549.30 243.41 C 545.92 248.54 541.12 252.59 537.47 257.52 C 558.90 278.78 589.42 286.99 618.53 290.61 C 642.28 292.19 666.64 291.17 689.33 283.35 C 697.34 280.26 704.79 275.79 711.62 270.60 C 721.26 261.91 728.38 249.35 727.06 235.98 C 727.51 217.45 712.30 204.12 698.29 194.56 C 698.23 194.00 698.12 192.89 698.07 192.34 C 707.51 185.66 718.46 178.31 721.43 166.38 C 723.34 156.59 722.68 145.62 716.84 137.18 C 708.28 123.66 693.19 116.18 678.32 111.72 C 652.60 104.27 625.22 105.24 599.13 110.17 Z" />
<path fill="#000000" opacity="1.00" d=" M 622.40 119.51 C 635.30 118.26 649.63 117.46 660.94 125.07 C 671.00 131.62 673.84 144.75 673.12 156.01 C 673.47 169.31 666.68 183.92 653.33 188.34 C 640.93 191.80 627.37 192.00 615.09 187.84 C 604.22 184.24 596.55 173.46 595.69 162.17 C 594.05 150.60 594.75 137.25 603.35 128.35 C 608.63 123.63 615.21 120.05 622.40 119.51 Z" />
<path fill="#000000" opacity="1.00" d=" M 625.39 201.48 C 642.43 199.14 664.62 201.24 673.90 218.09 C 680.33 233.13 680.27 252.07 671.00 266.00 C 662.62 278.17 646.64 280.30 633.04 279.91 C 623.31 279.05 613.10 276.98 605.36 270.63 C 593.60 260.36 593.03 242.95 594.60 228.64 C 597.07 213.85 610.93 203.14 625.39 201.48 Z" />
</g>
<g>
<path fill="#FFFFFF" opacity="1.00" d=" M 528.68 28.47 C 562.74 15.01 599.38 8.46 635.96 8.20 C 653.22 8.91 670.47 10.77 687.33 14.64 C 703.64 18.44 720.15 22.48 735.33 29.74 C 729.88 33.19 723.38 38.43 716.64 35.55 C 687.57 25.58 656.92 19.85 626.13 20.28 C 608.96 21.30 591.72 22.72 574.98 26.86 C 564.19 28.94 553.87 32.97 543.02 34.72 C 537.97 33.36 533.30 30.88 528.68 28.47 Z" />
<path fill="#FFFFFF" opacity="1.00" d=" M 18.71 23.79 C 32.44 21.81 46.23 24.26 59.96 25.18 C 88.55 27.69 117.29 29.32 146.00 28.11 C 181.50 27.71 216.93 23.47 252.46 25.41 C 288.69 26.57 324.77 30.58 361.00 31.65 C 388.69 30.70 416.34 28.54 444.03 27.24 C 472.16 26.34 501.38 26.65 527.96 37.10 C 533.03 39.19 539.38 42.02 540.63 47.99 C 539.52 56.36 533.18 62.83 528.04 69.04 C 518.79 80.44 505.41 88.04 497.99 100.99 C 492.17 108.33 491.33 119.41 497.72 126.73 C 494.24 131.34 490.37 135.61 486.17 139.56 C 481.79 135.51 477.70 130.53 478.24 124.11 C 480.26 105.88 496.52 92.86 498.46 74.57 C 500.09 68.17 496.80 61.95 492.72 57.29 C 485.27 52.98 476.51 51.61 468.06 50.76 C 438.39 48.21 408.66 52.20 378.97 50.38 C 349.58 50.59 320.57 45.50 291.54 41.60 C 254.47 38.05 217.22 36.63 180.00 36.01 C 169.68 35.83 159.39 36.79 149.13 37.69 C 152.46 40.41 156.55 42.27 161.00 41.81 C 199.64 42.35 238.34 42.96 276.86 46.27 C 293.07 47.79 309.11 50.72 325.19 53.20 C 324.80 54.68 324.40 56.16 324.00 57.64 C 295.70 55.87 267.33 56.14 239.00 54.95 C 188.12 53.13 137.23 51.53 86.32 50.69 C 64.60 49.30 41.93 51.61 21.18 43.65 C 15.45 41.66 9.99 39.02 4.51 36.47 C 8.47 31.55 12.53 25.97 18.71 23.79 Z" />
<path fill="#FFFFFF" opacity="1.00" d=" M 1129.87 28.39 C 1166.35 29.89 1202.66 25.15 1239.02 23.05 C 1248.80 21.41 1256.77 29.03 1261.68 36.60 C 1243.98 45.97 1223.96 49.97 1204.02 49.88 C 1117.00 51.30 1030.04 54.89 943.05 57.10 C 943.10 58.53 943.18 59.96 943.26 61.38 C 942.35 58.67 941.56 55.96 940.75 53.23 C 959.80 50.60 978.73 46.96 997.96 45.76 C 1033.24 43.11 1068.62 42.14 1104.00 41.81 C 1108.62 42.05 1113.15 40.61 1116.92 37.98 C 1088.79 34.99 1060.51 36.60 1032.32 37.32 C 1012.74 38.74 993.07 39.05 973.58 41.54 C 947.43 44.71 921.41 49.64 895.01 49.99 C 878.53 50.25 862.05 51.63 845.59 50.51 C 825.04 50.11 804.10 48.27 783.88 52.84 C 778.14 54.72 771.27 56.70 768.99 62.99 C 764.10 72.89 769.47 84.01 773.98 93.01 C 779.46 104.48 788.72 115.41 787.03 128.99 C 786.24 133.80 782.16 136.97 778.50 139.70 C 774.79 135.45 771.16 131.14 768.03 126.45 C 770.15 122.23 773.62 118.26 772.68 113.16 C 770.93 102.61 763.29 94.28 756.13 86.88 C 745.78 76.88 734.29 67.52 727.26 54.71 C 725.23 51.07 723.77 45.70 727.72 42.74 C 739.33 34.51 753.66 31.74 767.41 29.44 C 805.10 24.19 843.17 28.65 880.97 30.26 C 899.61 32.10 918.38 31.86 937.04 30.28 C 981.28 27.40 1025.64 22.97 1070.00 25.93 C 1089.94 27.03 1109.90 27.92 1129.87 28.39 Z" />
<path fill="#FFFFFF" opacity="1.00" d=" M 548.19 41.98 C 603.00 25.41 663.74 23.22 717.52 44.70 C 717.69 50.16 715.98 56.18 718.77 61.22 C 728.37 78.67 745.65 89.75 758.23 104.78 C 762.22 108.76 764.65 113.90 766.53 119.14 C 746.89 101.99 724.53 87.60 699.69 79.31 C 645.43 60.19 583.01 65.31 533.08 94.07 C 520.83 100.96 510.13 110.16 499.43 119.17 C 500.20 116.49 500.99 113.77 502.57 111.44 C 514.34 94.80 531.93 83.32 543.81 66.80 C 549.58 59.79 549.10 50.43 548.19 41.98 Z" />
<path fill="#FFFFFF" opacity="1.00" d=" M 876.92 57.46 C 896.96 55.30 917.17 55.45 937.20 53.10 C 938.05 55.38 938.81 57.70 939.52 60.03 C 923.02 69.58 903.24 67.14 885.11 64.80 C 880.96 64.44 878.57 60.87 876.92 57.46 Z" />
<path fill="#FFFFFF" opacity="1.00" d=" M 327.98 53.93 C 348.29 54.24 368.62 55.25 388.83 57.30 C 387.26 60.01 385.99 63.84 382.38 64.28 C 371.68 66.11 360.79 66.43 349.97 66.83 C 341.65 67.37 334.04 63.55 326.76 60.04 C 327.14 58.00 327.55 55.96 327.98 53.93 Z" />
<path fill="#FFFFFF" opacity="1.00" d=" M 36.80 56.90 C 77.44 56.86 118.04 58.94 158.68 59.35 C 209.45 60.48 260.25 60.84 311.03 62.15 C 321.59 61.42 330.27 68.28 339.00 73.09 C 338.75 75.59 338.25 80.59 338.00 83.09 C 336.45 83.87 334.89 84.64 333.33 85.39 C 333.77 84.10 334.23 82.82 334.68 81.53 C 287.28 82.80 239.95 85.98 192.55 87.42 C 162.69 88.06 132.89 90.62 103.00 90.06 C 84.19 90.29 65.19 89.13 47.01 83.96 C 40.93 82.13 33.97 81.21 29.17 76.70 C 29.09 69.58 33.00 62.80 36.80 56.90 Z" />
<path fill="#FFFFFF" opacity="1.00" d=" M 391.63 56.80 C 399.76 57.00 407.90 57.11 416.03 57.57 C 437.67 58.46 459.88 56.72 480.90 63.10 C 486.12 64.92 491.89 67.31 494.58 72.47 C 496.63 81.55 491.45 89.62 486.98 96.97 C 482.61 104.95 476.61 112.44 474.59 121.46 C 472.07 129.84 477.24 136.93 481.11 143.76 C 475.25 143.96 467.91 146.46 463.32 141.67 C 461.14 137.33 463.69 132.23 464.58 127.79 C 461.79 130.33 458.93 132.82 456.11 135.31 C 452.65 135.08 449.28 134.91 445.84 134.66 C 445.06 123.96 453.28 116.25 457.50 107.20 C 450.20 113.68 442.83 122.89 432.00 122.04 C 427.74 122.19 424.48 116.54 427.11 113.12 C 432.97 105.65 440.54 99.70 446.04 91.92 C 439.51 96.95 432.88 102.17 425.12 105.15 C 419.30 107.01 413.31 105.46 407.93 103.13 C 408.88 92.36 420.27 88.58 426.42 81.16 C 419.68 83.94 413.69 89.27 405.98 88.78 C 402.90 88.90 399.92 87.97 396.96 87.26 C 396.51 78.11 406.02 74.91 411.38 69.51 C 406.65 70.56 402.05 72.75 397.14 72.68 C 393.86 71.50 391.35 68.84 388.49 66.94 C 389.29 63.49 390.33 60.10 391.63 56.80 Z" />
<path fill="#FFFFFF" opacity="1.00" d=" M 784.98 62.98 C 814.22 55.36 844.76 59.14 874.60 56.82 C 875.53 60.94 879.18 66.20 874.32 69.33 C 869.02 75.94 860.17 70.47 853.78 69.22 C 859.68 74.28 868.80 78.02 868.76 87.29 C 863.66 88.21 858.16 89.97 853.18 87.82 C 848.52 85.92 844.07 83.56 839.53 81.40 C 845.22 87.11 851.98 91.79 856.96 98.19 C 857.80 101.78 855.23 105.59 851.38 105.50 C 839.09 108.62 829.48 98.83 820.60 92.13 C 825.25 98.50 830.87 104.06 836.25 109.81 C 838.95 112.65 838.66 116.89 839.64 120.48 C 835.19 121.09 830.44 122.84 826.13 120.91 C 819.34 118.15 814.24 112.72 808.73 108.12 C 813.53 116.49 820.89 124.19 820.12 134.57 C 817.37 134.67 811.86 134.89 809.11 135.00 C 806.68 132.70 804.28 130.39 801.91 128.06 C 802.33 132.34 805.07 137.30 802.28 141.25 C 797.91 146.09 790.40 144.03 784.78 144.69 C 787.22 138.44 792.15 133.00 792.00 125.95 C 790.10 107.50 773.11 94.95 770.57 76.79 C 770.04 68.91 778.72 65.25 784.98 62.98 Z" />
<path fill="#FFFFFF" opacity="1.00" d=" M 953.01 62.19 C 1045.36 61.83 1137.68 58.09 1230.03 58.02 C 1233.42 63.91 1236.98 69.74 1239.46 76.09 C 1216.77 83.44 1192.56 83.12 1169.01 82.22 C 1125.29 82.07 1081.65 79.30 1037.98 77.84 C 1001.09 76.13 964.20 74.64 927.34 72.52 C 934.90 67.18 943.41 61.89 953.01 62.19 Z" />
<path fill="#FFFFFF" opacity="1.00" d=" M 380.40 69.44 C 385.35 68.54 388.94 72.87 392.38 75.62 C 394.16 77.16 395.28 79.40 395.05 81.79 C 390.95 84.96 385.47 85.37 380.63 86.64 C 370.82 88.42 361.15 91.38 351.15 91.73 C 347.58 90.38 343.67 88.83 341.34 85.63 C 340.50 81.22 341.85 75.07 346.86 73.90 C 357.92 71.70 369.24 71.08 380.40 69.44 Z" />
<path fill="#FFFFFF" opacity="1.00" d=" M 881.47 69.73 C 893.85 69.74 906.26 71.29 918.41 73.60 C 924.11 74.71 923.98 81.50 925.45 85.96 C 920.69 88.62 916.12 92.80 910.17 91.61 C 901.57 90.28 893.13 88.09 884.59 86.51 C 879.97 85.38 874.72 85.01 870.96 81.78 C 871.23 76.06 877.07 72.45 881.47 69.73 Z" />
<path fill="#FFFFFF" opacity="1.00" d=" M 619.45 77.49 C 670.33 73.83 723.93 90.08 760.65 126.36 C 779.56 145.58 793.33 171.48 792.94 199.00 C 793.45 223.82 782.44 247.85 766.17 266.17 C 736.36 300.07 691.55 318.06 647.19 321.38 C 607.44 324.91 566.73 315.11 532.76 294.26 C 514.55 282.66 497.89 267.85 486.98 249.02 C 473.55 227.88 469.87 201.31 475.03 176.98 C 480.22 155.09 493.77 136.17 510.23 121.24 C 540.06 94.36 579.77 80.34 619.45 77.49 M 615.45 79.60 C 572.99 83.66 529.59 100.17 501.43 133.41 C 485.18 151.79 474.14 176.07 475.93 201.02 C 476.86 236.61 499.53 268.18 527.87 288.10 C 574.48 320.70 636.36 327.65 690.29 311.32 C 714.55 303.43 737.90 291.26 755.94 272.95 C 778.53 251.11 793.64 219.32 789.48 187.41 C 786.03 161.26 770.95 137.73 751.34 120.65 C 714.58 88.36 663.62 75.13 615.45 79.60 Z" />
<path fill="#FFFFFF" opacity="1.00" d=" M 926.54 78.23 C 938.05 78.00 949.50 79.56 961.00 80.08 C 1036.96 84.73 1113.03 87.50 1189.01 91.92 C 1193.87 92.64 1199.41 91.71 1203.89 94.16 C 1206.92 98.57 1207.72 103.92 1208.49 109.08 C 1192.58 118.87 1172.76 116.46 1154.98 116.94 C 1125.03 114.98 1095.27 110.73 1065.32 108.67 C 1019.36 104.09 973.19 101.35 927.41 95.06 C 927.71 89.43 927.46 83.80 926.54 78.23 Z" />
<path fill="#FFFFFF" opacity="1.00" d=" M 293.41 89.51 C 305.93 88.94 318.45 87.55 330.99 88.11 C 338.80 90.33 344.12 96.91 349.94 102.14 C 348.53 106.20 347.27 110.31 346.16 114.46 C 349.95 117.51 354.01 120.18 358.32 122.43 C 331.03 126.84 303.99 132.59 276.85 137.82 C 244.20 144.95 211.55 152.15 178.56 157.54 C 157.19 161.33 134.86 160.16 114.10 153.90 C 108.15 152.20 106.65 145.34 109.07 140.08 C 109.96 134.83 116.53 135.28 120.45 134.53 C 187.73 127.63 254.81 118.97 321.97 110.97 C 331.32 109.96 341.98 109.71 348.87 102.33 C 274.85 109.15 201.07 118.81 127.00 125.22 C 106.22 127.26 84.72 125.27 65.35 117.14 C 67.05 111.04 69.89 105.36 72.88 99.82 C 146.40 96.50 220.01 94.97 293.41 89.51 Z" />
<path fill="#FFFFFF" opacity="1.00" d=" M 369.00 95.00 C 377.23 92.86 385.69 90.32 394.30 91.78 C 398.73 93.10 402.85 95.31 407.00 97.34 C 406.50 104.32 399.66 106.11 394.42 108.53 C 387.82 111.21 381.38 114.31 374.61 116.57 C 366.07 119.31 357.49 115.12 349.62 112.01 C 350.64 108.40 351.11 104.43 353.35 101.31 C 358.04 98.11 363.53 96.38 369.00 95.00 Z" />
<path fill="#FFFFFF" opacity="1.00" d=" M 871.67 91.69 C 882.43 90.28 892.87 93.82 902.99 96.99 C 906.35 98.36 910.59 98.89 913.09 101.82 C 914.80 104.95 915.20 108.65 916.49 111.97 C 908.77 114.72 900.57 119.58 892.13 116.87 C 880.73 112.80 869.69 107.75 858.76 102.56 C 859.75 96.08 865.98 93.03 871.67 91.69 Z" />
<path fill="#FFFFFF" opacity="1.00" d=" M 917.12 100.68 C 931.52 99.55 945.74 102.44 960.00 103.92 C 1000.00 108.42 1040.01 112.78 1080.05 116.92 C 1108.72 120.47 1137.57 122.62 1166.16 126.88 C 1166.85 132.56 1172.77 143.38 1164.39 145.42 C 1144.93 148.69 1124.90 148.82 1105.31 146.73 C 1042.95 137.02 980.81 125.95 918.36 116.84 C 918.17 111.44 917.69 106.05 917.12 100.68 Z" />
<path fill="#FFFFFF" opacity="1.00" d=" M 599.13 110.17 C 625.22 105.24 652.60 104.27 678.32 111.72 C 693.19 116.18 708.28 123.66 716.84 137.18 C 722.68 145.62 723.34 156.59 721.43 166.38 C 718.46 178.31 707.51 185.66 698.07 192.34 C 698.12 192.89 698.23 194.00 698.29 194.56 C 712.30 204.12 727.51 217.45 727.06 235.98 C 728.38 249.35 721.26 261.91 711.62 270.60 C 704.79 275.79 697.34 280.26 689.33 283.35 C 666.64 291.17 642.28 292.19 618.53 290.61 C 589.42 286.99 558.90 278.78 537.47 257.52 C 541.12 252.59 545.92 248.54 549.30 243.41 C 550.71 215.08 550.19 186.58 549.62 158.22 C 546.12 153.01 541.30 148.90 537.41 144.00 C 551.89 124.18 576.05 115.24 599.13 110.17 M 622.40 119.51 C 615.21 120.05 608.63 123.63 603.35 128.35 C 594.75 137.25 594.05 150.60 595.69 162.17 C 596.55 173.46 604.22 184.24 615.09 187.84 C 627.37 192.00 640.93 191.80 653.33 188.34 C 666.68 183.92 673.47 169.31 673.12 156.01 C 673.84 144.75 671.00 131.62 660.94 125.07 C 649.63 117.46 635.30 118.26 622.40 119.51 M 625.39 201.48 C 610.93 203.14 597.07 213.85 594.60 228.64 C 593.03 242.95 593.60 260.36 605.36 270.63 C 613.10 276.98 623.31 279.05 633.04 279.91 C 646.64 280.30 662.62 278.17 671.00 266.00 C 680.27 252.07 680.33 233.13 673.90 218.09 C 664.62 201.24 642.43 199.14 625.39 201.48 Z" />
<path fill="#FFFFFF" opacity="1.00" d=" M 397.95 111.84 C 405.31 107.88 414.39 109.75 421.33 113.72 C 424.72 115.39 425.46 121.12 422.23 123.19 C 413.69 128.99 404.72 134.33 395.08 138.08 C 387.56 140.53 379.98 137.71 372.93 135.26 C 372.21 131.84 371.50 128.44 370.80 125.03 C 379.71 120.36 388.76 115.93 397.95 111.84 Z" />
<path fill="#FFFFFF" opacity="1.00" d=" M 845.32 113.41 C 850.73 110.70 856.93 108.72 863.02 110.03 C 871.91 113.49 880.52 117.66 889.07 121.92 C 890.97 123.18 893.80 123.83 894.63 126.26 C 894.86 130.45 892.84 135.11 888.69 136.65 C 882.61 139.15 875.34 140.77 869.14 137.92 C 859.08 133.46 849.93 127.26 840.47 121.70 C 841.65 118.76 841.99 114.77 845.32 113.41 Z" />
<path fill="#FFFFFF" opacity="1.00" d=" M 897.98 125.90 C 901.33 123.32 906.03 123.53 910.02 123.22 C 926.38 122.82 942.61 125.59 958.67 128.38 C 1002.61 136.32 1046.54 144.30 1090.43 152.57 C 1101.54 154.83 1112.77 156.73 1123.71 159.83 C 1122.23 166.42 1121.44 176.76 1113.03 177.99 C 1085.98 181.40 1058.82 175.39 1032.86 168.15 C 989.88 156.49 946.51 146.31 903.61 134.35 C 901.04 133.68 898.38 133.75 895.77 133.98 C 896.44 131.28 896.65 128.38 897.98 125.90 Z" />
<path fill="#FFFFFF" opacity="1.00" d=" M 301.34 139.36 C 323.63 134.89 345.60 128.65 368.24 126.10 C 369.70 132.09 371.01 138.15 373.36 143.88 C 339.94 154.13 306.54 164.48 272.91 174.02 C 255.12 179.16 237.59 185.80 219.15 188.27 C 202.47 189.73 185.37 188.97 169.13 184.78 C 162.47 183.00 160.64 175.84 160.51 169.80 C 207.45 159.66 254.24 148.78 301.34 139.36 Z" />
<path fill="#FFFFFF" opacity="1.00" d=" M 422.76 129.84 C 427.89 128.48 433.47 128.64 438.72 129.30 C 442.35 130.19 444.86 135.74 441.19 138.20 C 432.97 146.46 424.43 156.91 411.80 157.50 C 407.63 157.42 403.35 157.56 399.27 156.68 C 396.28 154.66 396.53 150.39 395.50 147.39 C 404.63 141.62 413.37 135.19 422.76 129.84 Z" />
<path fill="#FFFFFF" opacity="1.00" d=" M 827.38 129.36 C 833.82 129.00 841.59 127.26 846.92 132.10 C 854.78 137.30 862.58 142.61 870.52 147.70 C 869.19 150.38 869.69 154.85 866.62 156.51 C 859.73 157.25 852.45 158.78 845.72 156.23 C 837.97 151.59 831.30 145.39 824.85 139.12 C 821.62 136.37 823.13 130.07 827.38 129.36 Z" />
<path fill="#FFFFFF" opacity="1.00" d=" M 881.95 147.67 C 887.37 145.16 892.21 141.26 897.93 139.53 C 906.43 140.45 914.59 143.20 922.88 145.22 C 963.27 157.10 1003.72 168.79 1044.08 180.79 C 1051.62 183.04 1059.30 184.93 1066.55 188.06 C 1064.57 193.08 1062.64 198.78 1057.95 201.87 C 1038.80 206.15 1018.43 204.44 999.93 198.07 C 985.72 192.67 972.14 185.79 958.17 179.83 C 932.81 169.01 907.61 157.76 881.95 147.67 Z" />
<path fill="#FFFFFF" opacity="1.00" d=" M 444.31 143.31 C 450.82 140.35 458.50 142.12 464.09 146.19 C 460.10 155.43 453.28 163.20 446.20 170.21 C 442.24 174.97 435.60 174.13 430.35 172.56 C 426.99 170.08 425.82 165.70 423.79 162.21 C 430.26 155.55 436.45 148.39 444.31 143.31 Z" />
<path fill="#FFFFFF" opacity="1.00" d=" M 802.74 149.32 C 801.81 144.11 808.77 141.24 813.03 141.93 C 819.75 140.35 824.87 145.57 829.52 149.43 C 833.28 153.24 838.29 156.37 840.67 161.34 C 841.47 165.83 837.79 169.70 836.52 173.73 C 831.00 172.66 824.16 174.74 819.76 170.24 C 813.06 164.23 807.14 157.17 802.74 149.32 Z" />
<path fill="#FFFFFF" opacity="1.00" d=" M 344.10 158.24 C 358.43 154.25 372.45 147.08 387.70 148.31 C 393.11 149.07 393.80 155.41 395.77 159.47 C 386.41 162.67 377.79 167.55 368.97 171.94 C 346.10 182.87 323.77 194.89 300.97 205.96 C 285.35 214.17 267.01 212.83 249.98 212.98 C 245.22 212.49 239.90 212.93 235.76 210.23 C 233.01 206.68 231.84 202.19 230.45 197.97 C 243.39 191.47 257.68 188.50 271.05 183.06 C 295.13 174.00 319.82 166.72 344.10 158.24 Z" />
<path fill="#FFFFFF" opacity="1.00" d=" M 463.92 152.91 C 467.69 150.04 472.72 150.05 477.18 148.92 C 471.43 161.01 466.97 173.62 464.43 186.80 C 459.40 185.62 453.10 184.38 450.92 179.03 C 449.35 176.43 450.85 173.50 452.06 171.10 C 455.55 164.77 459.24 158.46 463.92 152.91 Z" />
<path fill="#FFFFFF" opacity="1.00" d=" M 787.75 148.78 C 792.68 149.94 798.71 149.58 802.39 153.58 C 807.56 160.58 812.78 167.89 815.73 176.12 C 814.78 182.51 807.61 186.66 801.38 186.43 C 799.22 173.09 793.59 160.83 787.75 148.78 Z" />
<path fill="#FFFFFF" opacity="1.00" d=" M 873.57 150.39 C 883.20 152.16 891.61 157.48 900.37 161.58 C 935.27 177.86 970.02 194.45 1004.66 211.26 C 1003.98 215.01 1004.09 219.39 1001.57 222.55 C 992.99 225.91 983.41 224.50 974.51 223.64 C 963.62 222.40 952.30 221.12 942.78 215.22 C 916.03 198.57 891.13 178.95 863.21 164.20 C 869.25 162.03 871.31 155.84 873.57 150.39 Z" />
<path fill="#FFFFFF" opacity="1.00" d=" M 384.99 169.99 C 395.93 163.36 409.67 162.11 421.78 166.03 C 411.55 178.26 397.75 186.68 385.11 196.14 C 370.40 206.15 356.76 218.14 340.30 225.28 C 327.38 229.34 313.70 231.87 300.14 230.80 C 294.22 230.05 291.65 224.57 291.41 219.18 C 322.36 202.31 353.98 186.74 384.99 169.99 Z" />
<path fill="#FFFFFF" opacity="1.00" d=" M 846.39 165.23 C 854.71 163.40 862.66 166.91 869.12 171.83 C 892.79 189.51 916.35 207.35 940.10 224.93 C 943.29 226.59 944.91 229.75 946.21 232.94 C 939.58 235.83 932.37 239.29 925.00 237.05 C 916.20 235.05 906.70 234.12 899.10 228.84 C 876.62 214.52 858.35 194.52 835.53 180.66 C 840.37 176.38 841.81 169.64 846.39 165.23 Z" />
<path fill="#FFFFFF" opacity="1.00" d=" M 374.42 211.44 C 390.26 198.98 405.69 185.97 421.95 174.06 C 427.97 183.45 439.55 180.20 448.73 182.75 C 428.70 197.14 413.61 217.16 393.78 231.79 C 381.73 240.71 363.02 244.13 350.82 233.75 C 356.79 224.52 366.16 218.42 374.42 211.44 Z" />
<path fill="#FFFFFF" opacity="1.00" d=" M 820.44 180.63 C 826.26 181.85 832.73 182.34 837.22 186.74 C 852.23 199.36 866.32 213.03 881.32 225.66 C 886.46 230.38 893.30 234.47 893.88 242.27 C 888.87 244.16 883.25 246.25 877.98 244.02 C 867.69 241.30 859.62 234.01 851.85 227.14 C 838.78 214.73 825.62 202.33 811.31 191.34 C 814.27 187.71 817.32 184.13 820.44 180.63 Z" />
<path fill="#FFFFFF" opacity="1.00" d=" M 447.59 189.90 C 452.98 191.32 458.19 193.33 463.59 194.72 C 464.26 199.98 464.61 205.25 464.93 210.54 C 455.74 219.78 448.76 231.95 436.39 237.40 C 428.15 240.56 419.15 241.73 410.39 240.60 C 407.37 239.99 405.26 237.59 403.13 235.58 C 417.76 220.17 431.59 203.95 447.59 189.90 Z" />
<path fill="#FFFFFF" opacity="1.00" d=" M 802.53 193.78 C 810.50 193.68 815.76 199.98 820.70 205.29 C 831.03 217.27 842.86 227.82 853.51 239.50 C 851.22 242.51 848.76 246.69 844.00 245.07 C 838.40 245.60 832.81 244.29 827.59 242.46 C 816.62 237.20 809.41 227.02 800.06 219.62 C 800.92 211.01 801.76 202.39 802.53 193.78 Z" />
<path fill="#FFFFFF" opacity="1.00" d=" M 453.58 238.37 C 451.80 229.89 459.73 223.92 464.64 218.18 C 468.10 227.12 470.61 236.40 473.10 245.65 C 466.77 244.48 457.14 245.14 453.58 238.37 Z" />
<path fill="#FFFFFF" opacity="1.00" d=" M 799.53 226.01 C 804.12 230.10 810.31 235.61 808.46 242.41 C 804.97 248.59 796.98 248.63 790.81 249.31 C 793.76 241.56 796.69 233.80 799.53 226.01 Z" />
<path fill="#FFFFFF" opacity="1.00" d=" M 426.76 250.10 C 433.42 247.86 440.04 245.51 446.60 242.98 C 451.56 247.03 456.94 251.26 463.46 252.29 C 467.64 253.54 472.59 253.21 476.38 255.61 C 484.59 265.68 491.91 276.63 502.15 284.86 C 517.88 299.47 536.86 309.60 554.62 321.38 C 551.58 334.03 543.38 344.44 536.75 355.36 C 488.18 336.71 446.06 298.91 426.76 250.10 Z" />
<path fill="#FFFFFF" opacity="1.00" d=" M 815.54 246.28 C 820.42 248.27 825.32 250.25 830.24 252.13 C 820.53 279.01 802.23 302.20 780.74 320.74 C 765.32 334.78 746.76 345.12 727.31 352.42 C 723.08 345.00 718.57 337.73 714.86 330.03 C 713.82 327.33 712.12 323.82 714.34 321.34 C 719.52 316.16 726.31 313.11 732.57 309.48 C 745.65 301.69 757.71 292.22 768.77 281.76 C 776.15 274.66 780.83 265.30 787.61 257.72 C 793.44 255.40 800.14 256.41 805.91 253.77 C 809.56 251.91 812.46 248.93 815.54 246.28 Z" />
<path fill="#FFFFFF" opacity="1.00" d=" M 410.96 249.98 C 413.64 250.03 419.01 250.11 421.70 250.15 C 430.89 272.83 443.94 294.29 461.78 311.21 C 472.69 321.04 483.30 331.44 496.01 338.98 C 508.12 347.01 521.45 352.81 534.49 359.08 C 533.23 362.71 531.63 366.20 529.83 369.59 C 516.90 364.81 504.85 357.93 492.97 351.00 C 477.16 341.69 463.97 328.79 450.76 316.24 C 436.99 302.86 428.11 285.64 418.89 269.05 C 415.46 263.05 413.32 256.45 410.96 249.98 Z" />
<path fill="#FFFFFF" opacity="1.00" d=" M 834.33 253.03 C 838.21 253.39 842.08 253.76 845.98 254.11 C 837.25 280.73 821.81 305.19 801.28 324.28 C 781.66 342.23 759.85 359.36 734.19 367.56 C 732.38 363.83 730.57 360.13 728.86 356.36 C 745.01 349.10 761.03 341.10 774.76 329.76 C 800.12 309.28 822.79 283.94 834.33 253.03 Z" />
<path fill="#FFFFFF" opacity="1.00" d=" M 709.14 311.20 C 729.73 304.02 747.55 290.76 763.25 275.91 C 753.26 289.95 737.67 298.10 723.88 307.82 C 717.54 312.70 708.61 315.74 706.03 324.14 C 706.61 329.12 710.58 332.82 712.86 337.09 C 718.55 346.91 724.19 356.80 728.81 367.17 C 731.33 373.68 728.74 380.47 726.25 386.53 C 717.92 384.27 708.65 380.45 705.01 372.01 C 697.97 359.27 698.15 343.32 688.40 331.95 C 687.48 348.88 699.77 362.64 701.83 379.00 C 700.98 384.75 697.40 389.67 694.65 394.67 C 687.34 390.58 678.36 386.45 676.58 377.34 C 671.54 363.82 674.63 347.65 666.44 335.28 C 663.13 347.06 668.88 358.53 671.11 369.91 C 672.29 376.97 675.42 385.87 669.85 391.87 C 668.06 394.27 666.20 396.61 664.27 398.89 C 658.76 394.94 651.58 391.26 649.79 384.14 C 646.67 370.46 648.94 356.19 646.39 342.42 C 645.68 340.74 644.44 339.37 643.35 337.95 C 639.63 354.32 647.85 370.42 645.84 386.88 C 643.59 392.78 638.67 398.96 632.11 400.08 C 626.01 395.86 620.39 389.50 620.44 381.61 C 619.66 367.29 625.03 353.38 624.29 339.03 C 623.33 339.00 621.40 338.95 620.44 338.92 C 618.48 351.08 619.47 363.46 618.68 375.70 C 618.37 381.23 616.93 386.94 613.24 391.22 C 610.03 394.06 606.50 396.48 602.85 398.69 C 599.50 395.19 595.70 391.80 593.69 387.33 C 591.90 380.43 594.36 373.54 595.81 366.85 C 598.27 356.72 601.87 346.57 601.41 336.03 C 600.54 336.03 598.78 336.04 597.90 336.05 C 593.56 349.69 593.64 364.17 589.79 377.90 C 587.76 385.00 582.15 390.69 575.39 393.49 C 572.54 394.74 569.12 392.72 568.00 389.99 C 562.92 383.50 565.50 374.76 567.74 367.70 C 572.27 355.97 577.88 344.55 580.41 332.14 C 579.24 331.65 578.08 331.17 576.92 330.69 C 569.54 344.46 567.75 360.43 560.01 374.03 C 556.72 380.29 550.54 385.07 543.64 386.65 C 541.29 387.48 539.43 385.50 538.34 383.67 C 535.91 378.15 535.17 371.52 538.08 366.06 C 544.02 353.33 552.31 341.82 558.10 329.03 C 559.22 325.53 561.10 320.86 558.20 317.81 C 546.61 305.87 529.41 302.00 517.60 290.27 C 529.89 297.54 541.78 305.86 555.37 310.60 C 604.06 330.23 660.34 330.80 709.14 311.20 Z" />
</g>
</svg>