<?xml version="1.0" encoding="UTF-8" standalone="no"?>
<!-- Created with Inkscape (http://www.inkscape.org/) -->

<svg
   version="1.1"
   id="svg2"
   width="464.32001"
   height="816.58667"
   viewBox="0 0 464.32001 816.58667"
   sodipodi:docname="ferrari.eps"
   xmlns:inkscape="http://www.inkscape.org/namespaces/inkscape"
   xmlns:sodipodi="http://sodipodi.sourceforge.net/DTD/sodipodi-0.dtd"
   xmlns="http://www.w3.org/2000/svg"
   xmlns:svg="http://www.w3.org/2000/svg">
  <defs
     id="defs6" />
  <sodipodi:namedview
     id="namedview4"
     pagecolor="#ffffff"
     bordercolor="#000000"
     borderopacity="0.25"
     inkscape:showpageshadow="2"
     inkscape:pageopacity="0.0"
     inkscape:pagecheckerboard="0"
     inkscape:deskcolor="#d1d1d1" />
  <g
     id="g8"
     inkscape:groupmode="layer"
     inkscape:label="ink_ext_XXXXXX"
     transform="matrix(1.3333333,0,0,-1.3333333,0,816.58667)">
    <g
       id="g10"
       transform="scale(0.1)">
      <path
         d="M 3394.59,5204.85 H 87.7852 V 263.602 c 0,-88.524 70.9138,-160.942 157.5898,-160.942 H 3236.99 c 86.68,0 157.6,72.418 157.6,160.942 v 4941.248 0"
         style="fill:#f6f016;fill-opacity:1;fill-rule:evenodd;stroke:none"
         id="path12" />
      <path
         d="m 1589.64,4892.32 c 4.95,0 7.45,-13.03 13.3,-25.63 4.55,-9.81 30.13,-33.58 30.79,-35.88 3.43,-11.91 -1.16,-23.86 -9.96,-23.86 -10.15,0 -16.55,8.48 -23.98,11.36 -14.19,5.49 -24.85,9.09 -29.41,13.1 -5.65,4.98 -7.38,15.84 -2.79,21.09 5.16,5.89 7.58,5.53 11.1,10.88 7.34,11.16 6.42,28.94 10.95,28.94 z m -88.93,-540.27 c -27.09,6.58 -46.24,15.19 -71.53,21.07 -14.95,3.49 -36.7,1.8 -65.29,0.55 -12.21,-0.53 -25.79,-1.14 -40.01,-6.59 -0.72,-0.28 -1.26,-0.51 -1.99,-0.82 -14.65,-6.39 -33.86,-15.15 -51.12,-14.75 -45.88,1.06 -81.38,27.49 -6.5,39.03 23.7,3.65 42.8,16.47 45.57,21.85 3.83,7.41 2.86,14.69 -5.99,15.78 -29.73,3.65 -66.16,-28.01 -90.34,-23.64 -101.96,18.42 -30.04,124.7 18.14,174.99 10.84,11.32 97.98,12.66 112.24,21.14 70.11,41.69 143.41,76.24 197.97,108.33 39.03,22.96 -88.34,55.86 -102.12,56.41 -7.28,0.29 -16.46,-1.62 -21.79,-2.83 -7.4,-1.68 -10.11,-5.04 -15.61,-4.84 -11.94,0.43 -15.38,7.99 3.31,18.09 7.09,3.82 24.15,7.77 42.04,7.48 12.1,-0.2 23.99,-0.55 35.2,2.2 4.07,1 3.62,11.7 -3.56,10.85 -14.45,-1.71 -22.69,-1.63 -26.29,0.86 -3.6,2.5 -3.39,7.65 3.16,13.76 4.24,3.96 14.44,-1.36 25.94,3.57 10.08,4.31 21.23,10.84 33.13,10.3 14.69,-0.66 25.65,-4.38 32.36,-7.95 34.93,-18.59 69.69,-33.24 89.89,-32.37 15.64,0.67 31.12,-5.94 32.67,10.34 0.58,6.07 0.88,10.1 -1.46,20.47 -2.35,10.38 -8.21,25.2 -6.45,29.79 0.85,2.23 0.97,6 3.46,8.99 10.84,13.03 11.35,42.94 29.06,40.13 5.6,-0.88 8.69,-10.72 18.67,-21.76 19.82,-21.94 24.67,-27.03 36.6,-41.78 5.33,-6.59 26.68,-25.52 33.29,-35.19 6.79,-9.95 34.89,-0.47 76.46,-8.6 29.92,-5.85 79.7,-39.38 109.14,-72.56 1.45,-1.63 144.85,-2.12 146.84,-2.79 9.63,-3.23 27.06,-14.25 25.53,-18.52 -3.02,-8.44 -12.5,-10.02 -21.07,-12.33 -52.65,-14.23 -92.28,-33.38 -92.85,-43.62 -0.45,-8.32 76.63,-10.24 139.7,-95.51 0.51,-0.7 3.82,2.23 5.73,2.38 44.24,3.48 85.99,-28.47 96.11,-70.84 5.11,-21.41 40.57,-25.45 27.3,-38.56 -7.99,-7.89 -22.94,2.69 -29.96,7.83 -15.78,11.54 -30.07,26.73 -36.21,40.38 -0.4,0.88 -0.29,2.59 -1.27,2.63 -93.58,4.11 -111.47,15.89 -151.89,47.81 -8.58,6.78 -36.14,6.26 -37.99,-8.12 -1.31,-10.12 30.52,-7.63 49.52,-29.67 3.19,-3.72 52.11,-58.41 57.68,-59.31 14.93,-2.41 71.79,3.48 75.98,-1.56 1.68,-2.03 2.43,-10.35 7.9,-10.23 7.03,0.16 16.83,1.49 25.43,-3.1 52.42,-28.01 74.36,-69.15 62.19,-74.1 -10.82,-4.4 -28.9,35.7 -57.64,42.16 -1.2,0.27 -2.41,0.51 -3.6,0.81 -4.98,1.23 -9.85,4.41 -14.89,3.69 -21.1,-3 -41.63,-10.83 -61.73,-8.57 -19.88,2.25 -59.44,19.67 -68.71,3.03 -3.13,-5.65 9.91,-25.15 29.3,-35.78 12.9,-7.07 39.7,-8.84 62.15,-19.2 18.59,-8.59 34.7,-23.41 40.42,-27 15.81,-9.95 34.9,3.07 37.79,-3.16 6.88,-14.79 -7.26,-19.74 -27.94,-24.54 -13.31,-3.09 -30.54,12.89 -50.68,17.59 -9.74,2.26 -20.83,6.38 -32.88,8.3 -28.56,4.54 -62.52,8.8 -96.75,33.77 -6.8,4.96 -12.02,5.03 -17.25,4.87 -0.76,-0.02 -10.5,-10.64 -2.01,-16.29 56.42,-37.49 107.44,-134.9 114.87,-141.69 22.55,-20.64 26.18,-32.68 33.76,-50.21 16.29,-37.68 42.12,-42.37 46.79,-51.95 8.42,-17.24 -13.05,-15.34 -47.4,5.62 -23.5,14.35 -47.57,46.1 -83.66,66.53 -20.38,11.54 -76.76,72.35 -84.87,60.3 -12.38,-18.36 51.31,-57.32 99.06,-87.78 18.43,-11.75 28.3,-29.91 31.2,-43.45 1.42,-6.69 4.3,-20.37 11.32,-29.3 11.89,-15.15 47.96,-28.62 83.5,-36.65 12.52,-2.83 10.59,-9.75 7.84,-11.98 -12.08,-9.8 -27.96,-13.3 -45.88,-11.38 -39.12,4.2 -63.94,15.34 -94.36,51.08 -5.74,6.75 -87.77,40.61 -107.3,27.41 -3.57,-2.42 -6.54,-11.87 1.43,-17.62 20.87,-15.05 30.94,-9.47 56.58,-54.23 0.4,-0.7 1.33,-0.98 2.01,-1.47 20.81,-15.25 58.32,-28.82 76.76,-46.4 0.82,-0.78 1.65,-1.59 2.47,-2.41 4.22,-4.23 60.45,-81.52 60.66,-91.33 0.21,-10.91 -15.39,-1.84 -51.05,31.52 -14.69,13.76 -47.14,14.61 -69.36,36.51 -1.15,1.15 -11.43,1.95 -13.44,2.42 -1.14,0.26 -4.58,-1.37 -10.38,-3.34 -18.56,-6.32 28.21,-33.23 24.08,-45.84 -4.31,-13.15 -80.13,49.94 -87.72,22.71 -1.39,-4.98 0.51,-13.97 5.26,-16 27.36,-11.7 53.15,-11.86 80.47,-23.54 33.37,-14.27 40.51,-35.35 73.82,-49.59 13.13,-5.61 39.45,-3.81 40.33,-18.05 1.11,-18.04 -25.57,-12.95 -38.65,-12.46 -37.27,1.42 -64.35,20.8 -95.13,39.28 -8.93,5.36 -24.22,2.64 -34.83,3.98 -17.5,2.21 -31.19,-1.39 -40.67,-6.3 -5.12,-2.67 1.71,-8.68 11.54,-11.18 9.82,-2.5 22.54,-2.36 29.45,-2.72 14.81,-0.76 32.7,-7.15 43.92,-11.87 12.55,-5.3 28.4,-22.47 40.27,-32.13 10.15,-8.27 22.13,-19.32 29.73,-27.03 6.69,-6.81 3.16,-12.6 -1.21,-10.07 -25.25,14.62 -55.77,29.62 -63.69,29.66 -4.27,0.02 -7.6,-1.24 -11.82,-2.01 -7.06,-1.28 -15.09,-2.99 -22.26,-3.34 -13.35,-0.64 -26.71,-3.88 -40.07,-3.54 -12.91,0.32 -25.94,2.53 -38.75,4.14 -8.64,1.09 -25.34,7.88 -28.04,-0.39 -0.99,-3.05 1.07,-13.58 4.89,-14.92 10.79,-3.79 16.63,-3.74 26.61,-9.31 5.79,-3.23 31.72,-6.04 37.24,-9.72 20.25,-13.45 39.59,-18.68 53.57,-30.74 15.85,-13.67 24.3,-32.22 47.21,-47.45 1.31,-0.87 2.57,-1.8 3.9,-2.6 12.32,-7.38 28.05,-9.83 37.48,-10.29 7.7,-0.37 16.88,5.43 24.08,8.1 8.88,3.31 16.77,0.66 25.65,3.96 8.88,3.3 28.35,25.29 27.63,15.86 -0.4,-5.2 0.15,-12.73 -4.19,-15.61 -4.46,-2.94 -5.71,-6.29 -10.39,-8.82 -5.66,-3.08 -14.68,-3.56 -19.94,-7.25 -15.42,-10.77 -31.24,-17.68 -49.24,-16.45 -6.45,0.44 -12.91,0.72 -19.33,1.33 -71.37,6.83 -79.36,37.32 -133.64,47.82 -5.63,1.09 -32.51,1.68 -43.61,5.68 -29.79,10.74 -28.01,13.09 -42.24,14.13 -3.68,0.26 -1.39,-3.6 3.66,-9.57 6.5,-7.69 25.07,-14.32 37.23,-20.24 12.71,-6.19 30.31,-16.72 71.1,-35.43 5.26,-2.42 16.95,-15.07 29.43,-26.56 15.08,-13.85 30.84,-51.01 16.29,-42.76 -14.33,8.13 -40.6,30.82 -73.6,54.19 -15.89,11.24 -32.02,-1.85 -49.6,-4.13 -10.81,-1.42 35.56,-3.79 58.93,-30.67 38.97,-44.83 88.87,-94.13 66.16,-90.65 -32.36,4.94 -70.64,50.86 -102.96,67.39 -22.02,11.26 -47.8,20.28 -65.37,18.33 -33.18,-3.68 -68.25,43.78 -86.21,32.41 -10.44,-6.61 4.63,-90.69 33.61,-162.69 18.16,-45.14 33.74,-60.15 55.15,-84.96 12.85,-14.89 21.46,-28.88 51.76,-67.45 69.11,-87.96 83.4,-64.82 265.71,-227.68 93.39,-83.43 143.12,-151.57 208.46,-292.08 2.79,-5.99 16.5,-3.06 19.27,-9.05 3.59,-7.69 280.85,65.5 258.78,326.12 -3.38,39.95 -29.49,279.1 -66.35,343.01 -1.63,2.82 -3.92,5.42 -4.59,8.54 -60.64,287.58 250.52,461.54 211.88,402.71 -16.63,-25.32 -66.81,-68.59 -98.46,-120.58 -20.28,-33.32 -36.47,-70.44 -43.94,-103.62 -7.85,-34.86 -3.24,-67.83 4.23,-84.27 5.01,-11.05 30.35,11.48 44.64,33.65 15.82,24.56 72.31,79.94 100.25,97.34 25.08,15.61 24.4,66.18 46.21,64.41 7.81,-0.63 5.5,-18.89 -2.59,-45.91 -13.49,-45.02 -85.02,-127.11 -104.73,-175.66 -2.26,-5.57 -28.24,-141.35 2.35,-137.42 21.37,2.74 36.63,50.66 48.76,62.01 18.54,17.36 33.61,30.24 51.93,47.03 18.77,17.21 25.67,53.38 31.12,59.43 7.45,8.24 10.61,-16.25 6.56,-53.08 -0.22,-1.94 0.01,-4.04 -0.9,-5.71 -17.19,-31.4 -42.75,-52.06 -51.95,-79.11 -5.56,-16.3 -15.69,-38.75 -21.11,-63.65 -5.59,-25.7 -3.7,-53.83 -3.38,-63.02 1.25,-35.38 -1.24,-63.03 4.03,-95.22 2.14,-13.11 5.98,-22.65 9.22,-36.23 5.76,-24.22 6.97,-55.17 7.88,-75.75 1.94,-43.66 8.07,-87.71 0.95,-123.51 -3.8,-19.11 -26.96,-181.33 -210.42,-238.61 -3.22,-1 -12.93,-10.28 -7.85,-20.06 23.87,-45.92 39.03,-85.68 25.44,-147.05 -11.14,-50.24 1.68,-127.29 -9.75,-117.19 -27.53,24.33 -18.44,115.15 -40.27,176.02 -11.92,33.24 -28.95,78.6 -51.82,67.39 -3.89,-1.89 -24.84,-18.69 -12.08,-22.63 65.54,-20.29 55.71,-160.74 -26.78,-293.11 -8.43,-13.53 -19.38,-21.4 -30.64,-38.59 -6.75,-10.31 -12.36,-19.99 -18.76,-27.38 -24.26,-28.08 -4.56,-75.59 -19.82,-68.89 -20.05,8.8 -11.19,41.05 -13.97,82.71 -1.45,21.82 106.23,140.57 66.78,270.39 -2.01,6.65 -18.07,-6.48 -20.99,-24.28 -7.95,-48.41 -7.62,-46.82 -21.92,-87.45 -0.54,-1.55 4.98,-84.65 -11.98,-67.96 -8.84,8.69 -12.07,61.54 -11.44,94.41 0.12,5.95 2.3,11.41 2.66,15.74 0.35,4.34 0.37,7.86 1.42,9.06 1.99,2.28 4.49,4.22 5.25,6.84 5.91,20.31 2.8,128.22 -24.91,130.76 -4.37,0.4 -8.24,-1.03 -16.08,-10.93 -6.91,-8.74 -2.57,-75.27 -10.55,-76.74 -5.32,-0.99 -5.43,-15.49 -14.14,-47.85 -13.58,-50.49 -172.14,-243.02 -242.79,-265.02 -52.58,-16.38 -83.66,-83.61 -80.37,-149.09 2.34,-46.28 18.76,-67.38 46.08,-88.43 24.89,-19.18 24.36,-131.87 -21.26,-134.11 -44.97,-2.21 -158.6,-145.63 -218.73,-183.28 -1.53,-0.95 -7.54,-6.49 -10.41,-14.8 -8.63,-24.93 -24.04,-85.4 -85.69,-100.94 -0.76,-0.19 -2.16,-0.04 -2.18,-0.8 -0.83,-27.49 -0.27,-55.51 -11.8,-81.21 -8.12,-18.08 -175.17,-96.63 -196.4,-44.87 -0.53,1.29 -0.57,4.62 -0.57,7.61 0.03,26.45 3.79,26.14 8.4,55.38 1.02,6.49 3.51,13.86 7.47,21.58 16,31.11 41.33,58.08 58.39,80.37 19.35,25.26 98.56,98.53 104.2,111 0.48,1.05 21.53,1.75 39.49,15.3 39.55,29.79 81.76,86.69 83.13,87.93 44.7,40.56 77.08,82.43 100.84,124.31 2.2,3.89 3.75,14.82 -4.73,26.62 -34.39,47.89 -113.79,162.75 -147.19,294.99 -15.78,62.49 -22.14,207.16 25.56,222.95 0.71,0.24 -49.12,5.56 -50.59,-1.37 -55.12,-259.42 88.75,-358.2 62.95,-408.22 -6.25,-12.15 -10.74,-16.73 -16.61,-24.45 -12.72,-16.75 -16.73,-35.6 -30.72,-37.23 -23.32,-2.72 -73.73,17.4 -116.6,39.91 -32.36,16.98 -60.94,26.04 -94.75,36.87 -69.74,22.34 -134.82,34.88 -192.4,35.02 -5.37,0.02 -10.7,0.21 -15.89,-0.14 -32.16,-2.16 -50.39,-1.39 -56.41,4.02 -3.99,3.58 -6,9.92 -8.67,12.57 -4.8,4.77 -57.55,3.92 -65.68,2.35 -19.89,-3.84 -24.4,-7.68 -47.7,-8.81 -6.53,-0.31 -12.57,-0.26 -16.89,0.15 -92.08,8.62 -159.21,79.31 -167.81,117.82 -2.04,9.18 3.58,16.83 9.99,20.83 11.34,7.08 29.33,4.18 51.35,9.18 22.1,5.03 68.98,-8.72 140.91,-10.6 13.48,-0.35 45.49,-24.52 59.1,-23.84 36.9,1.83 77.43,10.65 139.94,-19.57 23.88,-11.56 99.38,-33.97 133.33,-37.96 39.78,-4.67 128.61,-26.54 157.56,-7.13 3.66,2.44 19.21,27.26 -0.08,47.96 -121.05,129.84 -194.02,351.71 -196.81,518.7 -0.17,10.31 29.09,-6.7 31.34,12.2 0.68,5.7 7.06,23.87 2.06,26.95 -196.15,120.62 -321.1,246.61 -391.63,374.55 -6.89,12.51 29.11,3.85 23.25,16.39 -1.43,3.04 -0.86,9.21 -4.19,9.12 -36.54,-0.93 -71.87,-8.09 -103.68,-0.94 -86.78,19.51 -100.61,73.76 -130.403,89.1 -77.883,40.1 -58.39,12.06 -158.172,93.14 -10.965,8.91 -32.199,14.37 -47.859,6.56 -12.191,-6.07 -25.523,-9.68 -25.231,-18.99 1.372,-43.68 7.954,-87.52 23.649,-108.32 14.605,-19.36 15.656,-64.78 23.195,-104.13 9.453,-49.39 38.371,-65.37 46.563,-92.21 3.437,-11.27 -11.379,-59.71 21.676,-55.98 1.32,0.15 3.285,0.75 4.96,-0.35 24.399,-16.03 64.372,-25.35 69.434,-58.42 19.922,-129.99 -8.805,-189.02 -43.789,-173.94 -70.219,30.27 -96.641,109.47 -117.102,139.84 -11.765,17.46 -14.445,33.51 -23.968,48.4 -9.52,14.89 -34.645,23.94 -38.504,41.55 -22.844,104.19 -81.047,365.22 -85.969,423.23 -2.762,32.56 30.777,125.06 75.273,130.39 21.106,2.53 83.407,35.23 256.055,-29.19 8.496,-3.17 7.414,23.01 0.899,28.39 -66.215,54.7 -122.547,105.07 -151.125,161.28 -4.707,9.25 -15.891,2.85 -22.379,2.52 -8.352,-0.42 -18.235,-0.5 -21.254,-11.15 -2.301,-8.11 -3.688,-21.84 -5.305,-38.81 -4.141,-43.39 -26.664,-91.71 -90.211,-109.46 -28.875,-8.05 -56.691,-94.56 -58.926,-125.92 -4.675,-65.79 33.282,-143.34 29.297,-189.97 -0.222,-2.58 -0.574,-5.22 -1.054,-7.89 -3.145,-17.47 -20.379,-28.84 -32.79,-44.95 -15.96,-20.71 -30.847,-48.15 -56.046,-51.62 -9.485,-1.3 -22.75,26.24 -22.758,34.16 -0.016,9.62 -6.52,19.68 -0.813,40.55 2.422,8.88 -3,10.02 -1.394,24.69 4.086,37.48 13.062,101.78 13.051,154.2 -0.012,33.15 32.921,76.87 41.707,103.87 4.476,13.77 8.636,27.67 12.554,41.62 3.922,13.96 5.629,28.62 11.106,41.93 25.207,61.37 40.558,125.87 54.504,176.79 26.214,95.7 60.882,171.89 142.332,173.01 24.031,0.32 48.8,-4.17 68.578,-20.55 34.961,-28.97 57.23,-52.39 78.887,-67.37 31.152,-21.54 69.472,-34.71 97.432,-53.73 18.4,-12.51 30.96,-28.5 47.47,-39.35 13.3,-8.74 38.26,-4.63 48.82,4.23 36.22,30.43 102.98,89.6 151.46,103.47 14.48,4.14 30.66,14.88 42,34.54 8.88,15.38 17.06,40.25 19.78,42.51 164.17,136.71 283.58,399.54 258.09,422.85 -15.74,14.39 -77.96,6.98 -101.78,12.77 v 0"
         style="fill:#312f30;fill-opacity:1;fill-rule:evenodd;stroke:none"
         id="path14" />
      <path
         d="M 87.7852,5794.65 H 3394.59 v 66.15 c 0,88.53 -70.92,160.95 -157.6,160.95 H 245.375 c -86.68,0 -157.5898,-72.42 -157.5898,-160.95 v -66.15 0"
         style="fill:#4bb448;fill-opacity:1;fill-rule:evenodd;stroke:none"
         id="path16" />
      <path
         d="M 87.7852,5252.41 H 3394.59 v 223.55 H 87.7852 v -223.55 0"
         style="fill:#d42937;fill-opacity:1;fill-rule:evenodd;stroke:none"
         id="path18" />
      <path
         d="M 87.7852,5523.53 H 3394.59 v 223.56 H 87.7852 v -223.56 0"
         style="fill:#ffffff;fill-opacity:1;fill-rule:evenodd;stroke:none"
         id="path20" />
      <path
         d="M 263.965,1033.99 H 2840.54 v -74.119 c -785.17,0 -1570.35,0 -2355.52,0 -21.875,-13.293 -13.012,-189.363 -15.782,-199.332 l 52.328,-0.519 -0.113,48.808 57.203,0.422 0.461,-162.289 -58.332,0.309 -0.305,53.281 -51.519,-0.16 0.273,-177.711 c 0.383,-18.692 8.051,-17.512 14.243,-17.731 l 66.378,-0.09 -0.23,-74.507 -288.863,0.429 0.258,74.09 61.515,0.027 c 9.047,0 17.938,2.153 17.938,16.204 l 0.023,424.648 h -76.531 v 88.24 0"
         style="fill:#312f30;fill-opacity:1;fill-rule:evenodd;stroke:none"
         id="path22" />
      <path
         d="M 1120.47,486.5 H 1167 v 325.738 h -41.63 v 51.434 h 161.19 v -51.223 c 3.18,-2.09 6.03,-3.531 7.38,-2.258 56.82,53.379 171.87,89.399 198.8,4.5 V 628.559 h -105.31 c 0,60.461 0,113.16 0,173.64 -32.12,3.43 -69.83,-34.109 -107.77,-79.808 V 486.5 h 46.54 v -51.43 h -205.73 v 51.43 0"
         style="fill:#312f30;fill-opacity:1;fill-rule:evenodd;stroke:none"
         id="path24" />
      <path
         d="m 1590.7,486.5 h 46.54 v 325.738 h -41.64 v 51.434 h 161.2 v -51.223 c 3.17,-2.09 6.02,-3.531 7.37,-2.258 56.83,53.379 171.87,89.399 198.81,4.5 V 628.559 h -105.31 c 0,60.461 0,113.16 0,173.64 -32.12,3.43 -69.84,-34.109 -107.77,-79.808 V 486.5 h 46.54 V 435.07 H 1590.7 v 51.43 0"
         style="fill:#312f30;fill-opacity:1;fill-rule:evenodd;stroke:none"
         id="path26" />
      <path
         d="m 2469.94,486.5 h 46.53 v 325.738 h -41.63 v 51.434 h 161.2 v -51.223 c 3.17,-2.09 6.02,-3.531 7.37,-2.258 56.82,53.379 171.87,89.399 198.81,4.5 V 628.559 H 2736.9 c 0,60.461 0,113.16 0,173.64 -32.11,3.43 -69.83,-34.109 -107.76,-79.808 V 486.5 h 46.53 v -51.43 h -205.73 v 51.43 0"
         style="fill:#312f30;fill-opacity:1;fill-rule:evenodd;stroke:none"
         id="path28" />
      <path
         d="m 2166.35,648.16 h 94.73 V 462.012 h -94.73 c -9.48,0 -17.24,7.769 -17.24,17.246 V 630.91 c 0,9.481 7.76,17.25 17.24,17.25 z m -58.88,217.961 h 193.49 c 43.1,0 78.37,-35.269 78.37,-78.371 V 489.828 h 32.87 l 0.02,-57.199 h -304.75 c -43.09,0 -78.37,35.262 -78.37,78.371 v 116.238 c 0,31.313 25.29,59.121 58.87,57.641 h 171.32 c 0.02,0 0.03,0.019 0.03,0.043 v 53.808 c 0,0.008 -0.03,69.879 -0.03,69.891 -3.19,30.551 -37.22,28.707 -55.5,29.047 -17.73,0.34 -51.82,-0.578 -52.55,-26.988 0.03,-23.84 0.07,-47.68 0.1,-71.52 l -115.66,-0.34 v 48.93 c 0,43.109 28.69,78.371 71.79,78.371 v 0"
         style="fill:#312f30;fill-opacity:1;fill-rule:evenodd;stroke:none"
         id="path30" />
      <path
         d="m 2920.59,866.121 h 210.62 v -51.43 h -44.08 V 493.859 h 44.08 V 430.18 h -210.62 v 63.679 h 41.64 v 320.832 h -41.64 v 51.43 0"
         style="fill:#312f30;fill-opacity:1;fill-rule:evenodd;stroke:none"
         id="path32" />
      <path
         d="m 3023.45,1030.22 c 52.75,0 95.51,-16.45 95.51,-36.74 0,-20.289 -42.76,-36.742 -95.51,-36.742 -52.75,0 -95.52,16.453 -95.52,36.742 0,20.29 42.77,36.74 95.52,36.74"
         style="fill:#312f30;fill-opacity:1;fill-rule:evenodd;stroke:none"
         id="path34" />
      <path
         d="m 834.898,827.941 h 68.848 c 18.457,0 33.633,-14.711 34.391,-32.992 h 0.031 V 793.52 718.941 660.129 H 805.105 v 58.812 74.579 1.429 h 0.036 c 0.757,18.281 11.3,32.992 29.757,32.992 z m -83.46,37.297 h 228.589 c 37.723,0 68.583,-31.226 68.583,-69.386 V 619.961 H 805.16 v -121.91 c -0.117,-22.813 8.641,-35.242 28.578,-34.551 26.93,0.191 50.149,0.398 77.078,0.602 15.809,-0.211 24.004,10.058 23.11,33.328 l 0.398,66.59 h 117.156 v -59.7 c 0,-38.172 -30.86,-69.39 -68.582,-69.39 h -231.46 c -37.723,0 -68.583,31.218 -68.583,69.39 v 291.532 c 0,38.16 30.86,69.386 68.583,69.386 v 0"
         style="fill:#312f30;fill-opacity:1;fill-rule:evenodd;stroke:none"
         id="path36" />
      <path
         d="m 1859.22,3886.03 c 4.8,1.81 9.59,0.01 9.59,-2.27 0,-2.29 -3.93,-9.03 -8.73,-10.82 -4.81,-1.81 -14.75,-3.32 -14.75,-1.03 0,2.29 9.08,12.31 13.89,14.12 z m -12.6,-45.75 c 6.54,0 11.31,-3.85 11.31,-6.45 0,-2.59 -8.49,-5.58 -15.03,-5.58 -6.54,0 -8.74,2.99 -8.74,5.58 0,2.6 5.92,6.45 12.46,6.45 z m -15.17,-40.37 c 5.12,0 9.3,-2.12 9.3,-4.73 0,-2.6 -4.18,-4.72 -9.3,-4.72 -5.13,0 -9.31,2.12 -9.31,4.72 0,2.61 4.18,4.73 9.31,4.73 z m 38.93,130.84 c 4.82,0 9.59,-3.59 9.59,-5.87 0,-2.29 -5.35,-5.59 -10.16,-5.59 -4.81,0 -13.02,3.59 -13.02,5.87 0,2.29 8.79,5.59 13.59,5.59 v 0"
         style="fill:#e8e7e6;fill-opacity:1;fill-rule:evenodd;stroke:none"
         id="path38" />
      <path
         d="m 1928.78,4408.87 c -3.39,1.15 -5.59,-3.78 -6.15,-8.44 -0.57,-4.67 -1.14,-8.44 6.15,-8.45 7.29,-0.01 9.88,4.08 9.88,8.73 0,4.65 -6.48,7.02 -9.88,8.16 z m -3.57,40.94 c -2.21,0 -4.3,-3.09 -4.3,-6.15 0,-3.08 2.37,-3.59 4.58,-3.59 2.21,0 4.87,1.09 4.87,4.15 0,3.08 -2.95,5.59 -5.15,5.59 z m -48.25,129.98 c -3.05,-0.38 -7.79,-0.97 -13.67,-4.46 -10.49,-6.25 -21.82,-29.72 -23.69,-39.48 -2.14,-11.16 0.11,-20.44 5.24,-22.25 5.27,-1.86 19.2,10.41 36.35,18.27 22.77,10.43 47.87,17.41 47.45,22.3 -0.86,9.98 -34.89,-5.47 -47.97,-4.11 -10.56,1.11 1.69,30.39 -3.71,29.73 z m -11.95,112.4 c 5.84,-0.72 10.96,-4.28 12.78,-4.89 1.84,-0.6 0.57,-6.96 -6.7,-7.82 -7.26,-0.87 -19.67,2.04 -19.67,4.68 0,2.64 7.75,8.76 13.59,8.03 z m 66.92,-332.57 c 4.18,0 8.45,-1.89 8.45,-3.86 0,-1.97 -4.55,-5.58 -8.73,-5.58 -4.18,0 -9.88,3.9 -9.88,5.87 0,1.96 5.98,3.57 10.16,3.57 z m -2.14,-34.92 c 6.15,0 7.44,-8.76 7.44,-10.03 0,-1.26 -14.75,-5.72 -20.9,-5.72 -6.15,0 -1.43,4.46 -1.43,5.72 0,1.27 8.73,10.03 14.89,10.03 z m 7.29,-45.24 c -7.01,0 -18.75,-2.33 -18.75,-6.58 0,-4.26 -9.16,-11.17 -2.15,-11.17 7.02,0 16.47,2.05 16.47,6.3 0,4.26 11.45,11.45 4.43,11.45 z m -23.76,-117.67 c 6.54,0 2.54,4.1 9.7,7.74 7.15,3.62 10.21,8.3 2.81,9.44 -7.4,1.14 -10.84,-2.1 -17.99,-5.72 -7.15,-3.63 -1.06,-11.46 5.48,-11.46 z m 2.58,50.39 c 6.54,0 7.69,0.38 14.84,4.01 7.15,3.63 12.51,11.17 5.11,12.31 -7.39,1.14 -13.42,-3.53 -20.57,-7.16 -7.15,-3.62 -5.92,-9.16 0.62,-9.16 z m -10.12,-97.05 c 6.76,0 11.95,4.96 19.35,8.59 7.39,3.62 13.49,11.16 5.85,12.31 -7.65,1.14 -7.57,2.48 -14.96,-1.15 -7.39,-3.62 -17.01,-19.75 -10.24,-19.75 z m 1.39,-48.96 c 10.25,0 26.91,7.13 26.91,10.59 0,3.47 -3.78,11.74 -14.03,11.74 -10.25,0 -15.74,-4.26 -15.74,-7.73 0,-3.47 -7.4,-14.6 2.86,-14.6 z m -6.15,-21.76 c 9.85,0 17.31,-6.67 17.31,-9.59 0,-2.92 -10.04,-7.87 -19.89,-7.87 -9.86,0 -15.89,4.95 -15.89,7.87 0,2.92 8.61,9.59 18.47,9.59 z m -7.31,-50.39 c -6.62,0 -19.47,-5.97 -19.47,-12.6 0,-6.62 -0.89,-12.02 5.73,-12.02 6.62,0 20.62,6.84 20.62,13.46 0,6.62 -0.26,11.16 -6.88,11.16 z m -222.72,229.21 c -3.84,2.38 -16.4,-7.3 -29.46,-25.38 -16.8,-23.25 -36.38,-59.94 -59.77,-97.69 -15.59,-25.15 -23.83,-52.06 -34.02,-73.36 -17,-35.5 -40.64,-63.11 -35.17,-66.5 8.77,-5.42 66.87,48.57 108.46,115.67 22.74,36.7 44.84,71.98 52.72,100.66 6.52,23.75 1.21,44.14 -2.76,46.6 z m 35.33,140.48 c 21.87,23.51 46.92,34.59 48.51,21.62 1.61,-12.97 -13.7,-29.24 -38.51,-40.28 -24.8,-11.04 -51.04,-17.02 -54.15,-11.65 -0.53,0.92 -0.36,2.05 0.4,3.36 0.76,1.3 0.56,9.22 2.67,10.49 14.81,8.91 33.41,8.2 41.08,16.46 z m -1.33,74.36 c 19.43,0 8.33,-15.7 5.12,-19.56 -3.2,-3.86 -5.47,-10.51 -18.48,-20.85 -13.01,-10.33 -30.54,-20.14 -30.54,-11.03 0,9.11 24.47,51.44 43.9,51.44 z m -108.9,-20.29 c 16.01,14.13 26.26,38.69 22.96,42.43 -3.29,3.73 -20.11,-8.37 -36.13,-22.5 -16.01,-14.13 -39.19,-20.72 -35.89,-24.46 3.3,-3.74 33.04,-9.6 49.06,4.53 z m 252.33,327.91 c 8.25,-2 15.46,-7.9 18.04,-9.06 2.58,-1.16 0.81,-9.92 -9.45,-9.92 -10.25,0 -27.78,6.2 -27.78,9.92 0,3.73 10.95,11.06 19.19,9.06 z m -425.3,-155.54 c 33.85,13.37 58,34.51 54.42,36.96 -3.57,2.43 -29.29,0.64 -63.81,-15.85 -22.53,-10.78 -29.47,-15.84 -56.76,-28.63 -7.76,-3.63 -12.62,-10.61 -10.64,-10.92 6.47,-0.98 42.94,5.08 76.79,18.44 z m 211.88,66.98 c 12.94,1.16 21.18,3.31 21.18,7.36 0,4.04 -4.2,13.4 -12.53,13.4 -8.34,0 -13.98,-8.21 -18.6,-13.4 -4.61,-5.21 -2.99,-8.51 9.95,-7.36 z m -406.35,-130.54 c -12.14,0 -35.01,-25.99 -35.01,-41.94 0,-15.95 4.71,-22.91 15.99,-22.91 11.28,0 37.61,23.39 37.61,39.34 0,15.95 -6.45,25.51 -18.59,25.51 z m 56.63,-10.38 c 5.72,0 10.37,-4.66 10.37,-10.37 0,-5.72 -4.65,-10.38 -10.37,-10.38 -5.71,0 -10.37,4.66 -10.37,10.38 0,5.71 4.66,10.37 10.37,10.37 z m 65.71,-64.85 c 4.28,0 12.1,-11.47 7.78,-11.67 -4.32,-0.19 -8.68,-8.21 -12.97,-8.21 -4.29,0 -2.59,8.02 -2.59,12.54 0,4.52 3.49,7.34 7.78,7.34 z m 85.87,-619.97 c 19.56,0 45.83,-0.46 61.19,-7 29.34,-12.49 36.05,-37.51 40.5,-46.29 6.33,-12.47 -42.44,24.8 -115.53,18.31 -73.08,-6.48 -84.81,-25.99 -90.3,-10.98 -5.49,15.02 37.45,45.96 104.14,45.96 z m 173.28,-159.45 c 13.44,0 27.66,-7.63 27.66,-21.96 0,-14.34 -14.22,-27.67 -27.66,-27.67 -13.44,0 -27.66,13.33 -27.66,27.67 0,14.33 14.22,21.96 27.66,21.96 z m 148.98,-156.25 c 13.48,-0.74 28.21,-68.07 44.93,-117.34 6.55,-19.29 18.5,-34.98 23.13,-44.1 41.32,-81.3 103.51,-132.76 97.49,-140.4 -6.03,-7.63 -51.1,10.1 -125.28,112.69 -74.18,102.6 -64.95,190.49 -40.27,189.15 z m -434.96,-410.3 c 9.49,9.36 40.64,-15.76 136.06,-123.79 95.41,-108.04 134.2,-129.94 124.72,-139.29 -6.52,-6.43 -41.72,21.18 -98.19,69.7 -25.67,22.06 -60.88,38.22 -84.9,62.57 -36.05,36.55 -61.32,65.53 -72.91,86.95 -13.14,24.28 -9.82,38.89 -4.78,43.86 z m 573.63,-99.32 c -11.43,0 -19.92,-24.73 -29.28,-53.31 -9.38,-28.56 -9.12,-44.76 2.32,-44.76 11.43,0 18.97,11.94 28.34,40.51 2.93,8.92 10.62,24.22 11.67,31.24 2.33,15.47 -5.2,26.32 -13.05,26.32 z m -192.23,-329.7 c 12.32,-11.43 35,-31.5 42.83,-76.96 7.72,-44.88 35.97,-90.99 70.81,-90.22 25.45,0.56 54.45,34.4 72.33,80.34 16.8,43.15 22.94,97.53 32.92,128.58 11.38,35.39 43.48,31.19 26.94,8.3 -3.56,-4.92 -18.3,-20.48 -18.86,-36.05 -1.59,-43.89 -11.27,-83.75 -17.88,-98.42 -23.38,-51.9 -32.32,-57.44 -52.46,-88.35 -10.93,-16.77 -24.4,-22.3 -34.47,-20.31 -54.01,10.69 -75.28,49.83 -82.81,61.47 -9.08,14.03 -15.08,46.8 -26.39,71.81 -6.79,15 -17.62,27.58 -26.23,36.65 -82.34,86.7 -108.93,83.13 -126.99,102.15 -4.82,5.08 -1.39,28.33 -2.05,30.21 -2.6,7.32 74.74,-46.55 142.31,-109.2 z m 205.65,-189.82 c -5.14,0 -33.88,-30.92 -40.69,-64.32 -6.83,-33.4 -8.22,-61.69 -3.08,-61.69 1.63,0 6.39,-4.22 10.01,5.22 2.82,7.35 4.14,27.14 8.16,36.76 4.08,9.78 16.18,23.52 18.31,33.95 6.82,33.38 12.43,50.08 7.29,50.08 z m 14.28,-291.23 c 4.55,0 11.45,-5.39 15.15,-23.09 1.81,-8.65 2.14,-25.32 4.64,-35.6 7.65,-31.39 10.74,-53.3 3.96,-53.3 -4.13,0 -7.64,15.19 -14.09,31.77 -4.14,10.62 -12.18,22.43 -15.16,34.69 -7.66,31.39 -1.28,45.53 5.5,45.53 z m 166.85,-274.27 c -3.56,0 -10.21,-4.44 -12.19,-8.07 -1.98,-3.63 -5.44,-11.15 -1.87,-11.15 3.58,0 16.15,3.77 16.15,7.84 0,4.07 1.49,11.38 -2.09,11.38 z m -173.97,-115.13 c 48.74,46.87 64.14,60.1 68.76,55.28 4.62,-4.8 -4.12,-25.86 -52.85,-72.73 -48.74,-46.87 -76.45,-73.27 -81.07,-68.47 -4.62,4.81 16.43,39.05 65.16,85.92 z m -151.03,-140.99 c -4.63,0 -12.02,-6.71 -16.44,-14.94 -4.44,-8.23 -4.28,-14.94 0.35,-14.94 4.63,0 12.02,6.71 16.46,14.94 4.42,8.23 4.26,14.94 -0.37,14.94 z m -97.6,-144.11 c -8.48,0 -17.91,-3.76 -28.55,-20.21 -10.64,-16.46 -16.52,-21.39 -5.7,-23.73 10.81,-2.34 29.04,4.93 37.33,23.73 8.3,18.79 5.38,20.21 -3.08,20.21 z m -531.53,714.14 c 14.63,0 22.36,-6.46 25.15,-10.97 2.8,-4.5 -10.52,-10.96 -25.15,-10.96 -14.62,0 -26.55,6.46 -26.55,10.96 0,4.51 11.93,10.97 26.55,10.97 z m 227.09,-15.15 c 6.55,0 11.88,-1.89 11.88,-4.2 0,-2.31 -5.33,-4.19 -11.88,-4.19 -6.54,0 -11.88,1.88 -11.88,4.19 0,2.31 5.34,4.2 11.88,4.2 z m 177.48,-44.72 c 29.24,0 63.56,-8.74 81.88,-17.74 16.17,-7.94 16.8,-11.83 19.44,-18.6 0.56,-1.43 -12.05,4.15 -30.45,7.85 -23.66,4.75 -55.08,8.22 -61.09,8.92 -59.58,6.98 -97.12,28.61 -97.12,37.73 0,3.03 10.22,3.89 28.96,-2.05 14.57,-4.62 34.31,-16.11 58.38,-16.11 z m 240.04,-8.37 c -2.19,3.62 -5.37,7.94 -13.93,2.75 -8.56,-5.18 -13.74,-12.37 -11.56,-15.98 2.2,-3.63 10.97,-2.36 19.53,2.83 8.55,5.18 8.16,6.79 5.96,10.4 z m 549.51,485.92 c 6.44,0 22.76,-17.27 22.76,-36.92 0,-19.64 -8.94,-40.59 -15.38,-40.59 -6.44,0 -17.83,33.25 -17.83,52.9 0,19.65 4.01,24.61 10.45,24.61 z m 434.12,522.02 c 9.22,-2.38 58.3,-155.74 12.47,-255.78 -45.84,-100.04 -116.03,-161.41 -130.42,-139.84 -14.41,21.59 65.14,68.17 97.75,155.59 32.62,87.41 10.97,242.43 20.2,240.03 z m -1683.4,481.33 c -9.31,4.54 -13.67,-29.18 -36.05,-75.08 -22.39,-45.88 -43.81,-73.59 -34.5,-78.13 9.32,-4.54 35.17,18.44 57.56,64.34 22.38,45.88 22.3,84.33 12.99,88.87 z m -387.03,114.19 c -10.36,0 -29.079,-25.96 -35.067,-57.77 -5.996,-31.83 -10.5,-55.09 -0.137,-55.09 10.36,0 26.387,23.26 32.383,55.09 5.996,31.81 13.184,57.77 2.821,57.77 z m 66.91,86 c 16.281,0 29.558,-3.8 29.558,-8.45 0,-4.65 -13.277,-16.51 -29.558,-16.51 -16.282,0 -29.563,11.86 -29.563,16.51 0,4.65 13.281,8.45 29.563,8.45 z M 888.828,3676.4 c 9.735,-11.14 14.711,-22.97 12.485,-24.92 -2.227,-1.94 -14.282,8.71 -24.016,19.85 -9.738,11.16 -14.145,21.26 -11.914,23.21 2.222,1.94 13.711,-6.99 23.445,-18.14 z m 40.758,-325.73 c 25.375,-14.5 42.48,-27.47 40.125,-31.59 -2.348,-4.11 -5.516,-11.2 -30.887,3.3 -25.379,14.49 -78.594,49.69 -76.242,53.81 2.352,4.11 41.633,-11.03 67.004,-25.52 z m -244.371,157.96 c 3.707,-1.68 0.762,-15.91 -4.91,-23 -5.672,-7.08 -13.313,-18.56 -17.02,-16.87 -3.707,1.68 -3.445,7.85 2.223,20.31 5.668,12.46 16,21.25 19.707,19.56 z m -6.934,-207.37 c 2.91,0 8.539,2.58 11.485,-8.73 3.785,-14.57 4.89,-45.98 8.629,-70.54 1.449,-9.55 8.476,-18.21 10.089,-25.9 5.786,-27.46 1.786,-38.6 -3.418,-38.6 -6.66,0 -24.222,27.55 -30.855,71.22 -6.637,43.66 -2.59,72.55 4.07,72.55 z m -129.66,-73.9 c 5.551,0 10.074,-3.62 10.074,-8.07 0,-4.43 -4.523,-8.05 -10.074,-8.05 -5.551,0 -10.074,3.62 -10.074,8.05 0,4.45 4.523,8.07 10.074,8.07 z m 307.34,-369.46 c 6.008,0 10.91,-4.9 10.91,-10.91 0,-6 -4.902,-10.91 -10.91,-10.91 -6.004,0 -10.906,4.91 -10.906,10.91 0,6.01 4.902,10.91 10.906,10.91 z M 1565.4,4629.47 c 13.69,0 23.07,-10.84 31.22,-23.4 3.19,-4.92 8.39,-9.37 10.28,-14.64 6.73,-18.75 8.48,-35.99 -34.58,-31.99 -8.89,0.82 -10.91,13.72 -19.68,19.09 -9.94,6.09 -26.15,4.41 -26.15,13.76 0,8.81 11.89,12.05 19.23,19.15 7.35,7.09 10.15,18.03 19.68,18.03 v 0"
         style="fill:#ffffff;fill-opacity:1;fill-rule:evenodd;stroke:none"
         id="path40" />
      <path
         d="m 78.7188,5743.89 v 51.88 H 3412.49 v -51.88 H 78.7188"
         style="fill:#302d2e;fill-opacity:1;fill-rule:evenodd;stroke:none"
         id="path42" />
      <path
         d="m 78.7188,5743.89 v 51.88 H 3412.49 v -51.88 z"
         style="fill:none;stroke:#231f20;stroke-width:2.16;stroke-linecap:butt;stroke-linejoin:miter;stroke-miterlimit:2.4142;stroke-dasharray:none;stroke-opacity:1"
         id="path44" />
      <path
         d="M 87.7773,5794.65 H 3394.58 v 66.15 c 0,88.53 -70.92,160.95 -157.6,160.95 H 245.375 c -86.68,0 -157.5977,-72.42 -157.5977,-160.95 z m 0,-271.12 H 3394.58 v 223.56 H 87.7773 Z M 3394.58,5204.85 H 87.7773 V 263.602 c 0,-88.524 70.9177,-160.942 157.5977,-160.942 H 3236.98 c 86.68,0 157.6,72.418 157.6,160.942 z m 0,266.71 H 87.7773 V 5252.41 H 3394.58 Z M 224.539,6124.41 H 3257.82 c 123.5,0 224.54,-101.39 224.54,-225.3 V 225.301 C 3482.36,101.391 3381.32,0 3257.82,0 H 224.539 C 101.039,0 0,101.391 0,225.301 V 5899.11 c 0,123.91 101.039,225.3 224.539,225.3 v 0"
         style="fill:#302d2e;fill-opacity:1;fill-rule:evenodd;stroke:none"
         id="path46" />
    </g>
  </g>
</svg>
