<?xml version="1.0" encoding="UTF-8" standalone="no"?>
<svg
   viewBox="0 0 50.231273 22.60738"
   version="1.1"
   id="svg1"
   sodipodi:docname="Jaguar logo 2022.svg"
   inkscape:version="1.3.2 (091e20ef0f, 2023-11-25)"
   width="50.231274"
   height="22.60738"
   xmlns:inkscape="http://www.inkscape.org/namespaces/inkscape"
   xmlns:sodipodi="http://sodipodi.sourceforge.net/DTD/sodipodi-0.dtd"
   xmlns="http://www.w3.org/2000/svg"
   xmlns:svg="http://www.w3.org/2000/svg">
  <defs
     id="defs1" />
  <sodipodi:namedview
     id="namedview1"
     pagecolor="#ffffff"
     bordercolor="#000000"
     borderopacity="0.25"
     inkscape:showpageshadow="2"
     inkscape:pageopacity="0.0"
     inkscape:pagecheckerboard="0"
     inkscape:deskcolor="#d1d1d1"
     inkscape:zoom="9.952708"
     inkscape:cx="23.611664"
     inkscape:cy="14.568899"
     inkscape:window-width="1280"
     inkscape:window-height="717"
     inkscape:window-x="0"
     inkscape:window-y="0"
     inkscape:window-maximized="1"
     inkscape:current-layer="layer1" />
  <g
     inkscape:groupmode="layer"
     id="layer1"
     inkscape:label="Layer 1"
     transform="translate(-8.037572,-8.5325508)">
    <path
       style="fill:#000000;fill-opacity:1;stroke-width:0.0181688"
       d="m 66.01334,48.946581 c -0.05738,-0.0084 -0.18002,-0.04057 -0.272531,-0.07148 -0.39243,-0.131103 -0.737762,-0.378745 -1.382707,-0.991552 -0.862479,-0.819507 -1.002147,-0.928598 -1.528988,-1.194266 -0.337709,-0.170299 -0.503743,-0.236093 -0.767167,-0.304014 -0.626938,-0.16165 -1.265806,-0.162703 -2.957438,-0.0049 -1.275424,0.118996 -1.882778,0.126703 -2.461874,0.03124 -0.971886,-0.16021 -1.799961,-0.571859 -2.529166,-1.257292 -0.165168,-0.155255 -0.4577,-0.487788 -0.634423,-0.721177 -0.275172,-0.363405 -0.440367,-0.624501 -1.040328,-1.644277 -0.1284,-0.218247 -0.196347,-0.312499 -0.301948,-0.418857 -0.375362,-0.378044 -0.951759,-0.650041 -1.480759,-0.698759 -0.175276,-0.01614 -0.713719,0.01765 -1.166516,0.07318 -1.244677,0.152681 -2.051193,0.21208 -2.885131,0.212484 -1.071628,5.3e-4 -1.739225,-0.09166 -2.683679,-0.370578 l -0.249057,-0.07355 -0.112509,0.100221 c -0.346821,0.308936 -0.824921,0.465717 -1.515126,0.496843 -0.383106,0.01728 -0.956432,-0.03848 -1.399701,-0.13612 -0.346668,-0.07636 -1.292972,-0.38476 -3.442288,-1.121834 -1.203862,-0.412848 -1.269084,-0.433056 -1.398997,-0.433504 -0.253209,-7.93e-4 -0.380693,0.103251 -0.56211,0.45909 -0.377391,0.740227 -0.954905,1.193043 -1.754415,1.3756 l -0.12718,0.02904 -0.163521,-0.08306 c -0.194516,-0.0988 -0.366577,-0.234159 -0.486656,-0.38285 -0.355179,-0.439809 -0.333462,-0.99905 0.06442,-1.65912 0.513738,-0.852265 1.291494,-1.49997 2.066509,-1.720969 0.182052,-0.05191 0.94741,-0.192659 1.335408,-0.245578 0.401764,-0.05479 0.376634,-0.04015 0.24243,-0.141325 -0.617429,-0.465473 -1.341216,-0.815292 -1.904876,-0.920665 -0.252711,-0.04724 -0.582038,-0.04425 -0.790342,0.0072 -0.484484,0.11962 -0.863177,0.282485 -1.237216,0.532095 -0.265763,0.177353 -0.49027,0.407329 -0.752271,0.770597 -0.114916,0.159337 -0.23558,0.319383 -0.268142,0.355663 -0.06636,0.07394 -0.189854,0.133546 -0.315084,0.152085 -0.09772,0.01447 -0.31995,-0.01593 -0.488339,-0.06682 -0.1647,-0.04977 -0.540636,-0.236503 -0.627639,-0.311761 l -0.07225,-0.0625 5.29e-4,-0.142843 c 5.29e-4,-0.127215 0.007,-0.153937 0.05902,-0.2442 l 0.05847,-0.101351 -0.04306,-0.143926 c -0.02368,-0.07916 -0.04872,-0.177533 -0.05565,-0.218606 l -0.01259,-0.07468 -0.121494,-0.01019 c -0.132456,-0.01111 -0.301318,-0.06672 -0.372441,-0.122664 -0.04137,-0.03255 -0.05099,-0.03336 -0.117403,-0.0099 -0.426691,0.150546 -0.90645,-0.111265 -1.186405,-0.64744 -0.05706,-0.109286 -0.136433,-0.228386 -0.19114,-0.286819 -0.138422,-0.147849 -0.16133,-0.200845 -0.160984,-0.372462 2.49e-4,-0.123785 0.0085,-0.16287 0.05575,-0.263446 0.08599,-0.183107 0.314302,-0.469706 0.638345,-0.801314 0.281903,-0.288483 0.295084,-0.305186 0.277463,-0.351533 -0.02954,-0.0777 -0.02106,-0.229691 0.0176,-0.314825 0.07983,-0.175888 0.380016,-0.493724 0.637275,-0.674749 0.637593,-0.448654 1.607992,-0.774419 2.815048,-0.94502 1.338053,-0.189116 2.945707,-0.152718 4.796568,0.108601 2.89833,0.409207 6.469583,1.3809 10.192702,2.773309 0.57867,0.216416 2.196192,0.860349 3.697353,1.471904 2.440903,0.994399 5.576883,2.353029 6.520421,2.824908 0.916403,0.458309 2.056207,1.065038 5.189379,2.762364 2.20155,1.192639 2.934896,1.581489 3.770029,1.999028 0.871268,0.435602 1.059283,0.508902 1.45674,0.567917 0.280591,0.04166 0.738132,0.03813 1.005134,-0.0078 0.426313,-0.07327 0.638776,-0.15621 1.111218,-0.4338 0.320059,-0.188058 0.4562,-0.240218 0.660241,-0.252971 0.355984,-0.02225 0.628418,0.112853 0.765199,0.37946 0.06489,0.12649 0.08012,0.349795 0.03578,0.524629 -0.06795,0.26792 -0.270106,0.601856 -0.522785,0.863587 -0.418629,0.43362 -0.970725,0.689517 -1.74987,0.811067 -0.214606,0.03348 -0.329618,0.03964 -0.735838,0.0394 -0.460782,-2.65e-4 -0.54828,-0.0066 -1.016876,-0.07376 l -0.08119,-0.01164 0.08491,0.09707 c 0.112019,0.128059 0.205491,0.317172 0.253291,0.512477 l 0.03881,0.158559 -0.06909,0.104889 c -0.207711,0.31532 -0.521538,0.655656 -0.706178,0.765821 -0.266136,0.15879 -0.627046,0.22861 -0.9427,0.182374 z m 0.533927,-0.452991 c 0.224081,-0.07113 0.224631,-0.08429 0.0036,-0.08661 -0.31115,-0.0033 -0.591992,-0.09313 -0.854565,-0.273445 -0.12433,-0.08538 -0.377473,-0.338701 -0.323567,-0.323791 0.665144,0.183957 1.159047,0.240064 1.450883,0.164819 0.213643,-0.05508 0.429588,-0.200617 0.429588,-0.289517 0,-0.08128 -0.09213,-0.232281 -0.215956,-0.353944 -0.139406,-0.136975 -0.231862,-0.200303 -0.556218,-0.380992 -0.331615,-0.184732 -0.554566,-0.34553 -0.781259,-0.563462 -0.327408,-0.314751 -0.707382,-0.723403 -0.9717,-1.045033 -0.568444,-0.691692 -0.694616,-0.82173 -0.990532,-1.020876 -0.230026,-0.154803 -0.506769,-0.265176 -0.817596,-0.326078 -0.145545,-0.02852 -0.309306,-0.03256 -1.489742,-0.03679 -1.385848,-0.005 -1.669357,-0.01651 -1.965243,-0.08004 -0.312132,-0.06702 -0.517692,-0.167352 -0.777039,-0.379273 -0.333883,-0.272825 -0.510519,-0.531288 -0.900943,-1.318307 -0.158631,-0.319773 -0.331312,-0.646427 -0.383736,-0.725903 -0.05242,-0.07948 -0.183407,-0.235442 -0.291081,-0.346591 -0.188111,-0.19418 -0.194691,-0.203634 -0.168109,-0.241586 0.01521,-0.02172 0.0353,-0.0395 0.04463,-0.0395 0.03002,0 0.421521,0.262549 0.569219,0.381728 0.173411,0.139933 0.327671,0.317161 0.53403,0.613542 0.561737,0.806794 1.049054,1.243346 1.612513,1.444527 0.338876,0.120994 0.86182,0.19085 2.207128,0.294831 0.803886,0.06213 1.07819,0.09326 1.285894,0.145904 0.219527,0.05564 0.529516,0.205253 0.722701,0.348795 0.08554,0.06356 0.462912,0.427913 0.925669,0.893736 0.429694,0.432541 0.85893,0.851718 0.953862,0.931505 0.591527,0.497161 1.317239,0.827382 2.034908,0.925944 0.227155,0.0312 1.001406,0.03118 1.262732,-3.7e-5 0.280138,-0.03346 0.617429,-0.10283 0.774914,-0.159385 0.380138,-0.136512 0.79089,-0.430059 0.987481,-0.705715 0.08947,-0.125447 0.154498,-0.299842 0.154236,-0.413626 -2.36e-4,-0.101957 -0.07146,-0.252412 -0.14392,-0.304009 -0.143695,-0.102322 -0.295487,-0.06557 -0.855186,0.207077 -0.336204,0.163771 -0.461727,0.215696 -0.590487,0.24426 -0.709194,0.157332 -1.567198,0.06357 -2.371029,-0.259101 -0.177168,-0.07112 -1.207103,-0.604086 -4.57854,-2.36928 C 61.273393,42.41834 60.900611,42.221821 59.976623,41.730402 58.208677,40.790131 55.444591,39.562539 51.924074,38.15409 49.73566,37.278574 48.830288,36.932753 46.958668,36.257467 45.119965,35.594061 42.299266,34.667901 40.765696,34.224041 l -0.09734,-0.02817 0.02939,0.04048 c 0.126388,0.174059 0.470582,0.70615 0.596201,0.921666 0.178292,0.305893 0.384622,0.689867 0.375087,0.698029 -0.0114,0.0098 -0.0856,0.04689 -0.0937,0.04689 -0.0043,0 -0.08414,-0.09607 -0.177512,-0.213485 -0.708834,-0.891384 -1.745861,-1.586309 -2.93294,-1.965401 -0.884375,-0.282422 -1.927275,-0.42009 -2.782014,-0.367239 -0.373113,0.02307 -0.579954,0.05953 -0.85483,0.150677 -0.221117,0.07332 -0.619188,0.270021 -0.82374,0.407035 -0.180036,0.120592 -0.381545,0.277659 -0.381545,0.297397 0,0.0075 0.06425,0.03489 0.142766,0.06076 0.670211,0.220811 1.323796,0.7601 1.904212,1.571212 0.121137,0.169286 0.333518,0.5158 0.332568,0.542608 -2.65e-4,0.0088 -0.02098,0.03095 -0.04595,0.04912 -0.04516,0.03288 -0.04581,0.03269 -0.131154,-0.03779 -0.892032,-0.736692 -2.139524,-1.427326 -2.780101,-1.53911 -0.652502,-0.113866 -1.072991,-0.367575 -1.122506,-0.677278 -0.01442,-0.09012 -0.02729,-0.08698 0.196692,-0.04787 0.239503,0.04182 0.567327,0.0263 0.782113,-0.03705 0.273677,-0.08071 0.503172,-0.21436 0.692965,-0.403566 0.09166,-0.09138 0.228256,-0.274209 0.228256,-0.305525 0,-0.0055 -0.2555,-0.0099 -0.567774,-0.0098 -0.952056,2.65e-4 -1.460032,0.05046 -2.112127,0.208566 -0.964591,0.233868 -1.648753,0.547032 -1.889556,0.86491 -0.0633,0.08357 -0.07268,0.108193 -0.07268,0.191008 0,0.112699 0.04884,0.17862 0.145801,0.196813 0.112671,0.02114 0.138581,7.94e-4 0.226563,-0.178086 0.149482,-0.303887 0.404109,-0.511503 0.682988,-0.556892 0.131712,-0.02143 0.897797,-0.04647 0.897797,-0.02934 0,0.02993 -0.12034,0.248558 -0.196302,0.356635 -0.109985,0.156488 -0.331534,0.384863 -0.46686,0.481248 -0.230968,0.164507 -0.405678,0.227285 -0.785786,0.282353 -0.147402,0.02135 -0.317061,0.05506 -0.377018,0.07489 -0.358034,0.118456 -0.711645,0.47693 -0.845151,0.856779 -0.07395,0.210404 -0.04098,0.349697 0.124209,0.524809 0.234537,0.248621 0.492863,0.299434 0.687573,0.135241 0.09154,-0.0772 0.172217,-0.214071 0.34939,-0.592817 0.286731,-0.612947 0.406093,-0.781603 0.632174,-0.893262 0.207396,-0.102429 0.495173,-0.08988 0.736685,0.03212 0.131595,0.06648 0.317029,0.260156 0.398168,0.415872 0.197036,0.378129 0.254363,0.905473 0.135298,1.244565 -0.120521,0.343236 -0.445672,0.776089 -0.909595,1.210887 -0.134692,0.126235 -0.193337,0.193117 -0.186029,0.212156 0.02037,0.05308 0.358725,0.175813 0.484682,0.175813 0.04202,0 0.0871,-0.01479 0.117118,-0.03839 0.02684,-0.02111 0.215413,-0.253097 0.419042,-0.515516 0.286523,-0.369245 0.381825,-0.48001 0.421489,-0.489882 0.180039,-0.04481 0.541327,-0.257897 0.70013,-0.412938 0.282641,-0.275947 0.380161,-0.566681 0.339958,-1.013531 -0.03493,-0.38826 -0.138772,-0.709829 -0.300263,-0.929823 l -0.06484,-0.08833 0.07876,5.29e-4 c 0.10205,5.29e-4 0.289373,0.065 0.42209,0.14509 0.274818,0.165846 0.586243,0.531995 0.801534,0.942377 0.03869,0.07374 0.109927,0.17739 0.158316,0.230335 0.08829,0.0966 0.242337,0.189741 0.313828,0.189741 0.06682,0 0.537781,0.122296 0.735859,0.191085 0.596069,0.206999 1.007568,0.417787 1.796373,0.920181 0.345236,0.219882 0.422867,0.262721 0.41521,0.229126 -0.0052,-0.02273 -0.02823,-0.123084 -0.05121,-0.223012 -0.05933,-0.257876 -0.0603,-0.737504 -0.0021,-0.988499 0.02183,-0.094 0.04328,-0.174492 0.04767,-0.178877 0.0044,-0.0044 0.03238,-0.0026 0.06222,0.0039 0.0494,0.01085 0.05539,0.02035 0.06701,0.106198 0.07521,0.555649 0.475494,1.175486 1.071388,1.659043 0.449115,0.364445 1.188112,0.73872 1.885011,0.954686 l 0.195313,0.06053 2e-6,0.05905 c 3e-6,0.05378 -0.005,0.05905 -0.05572,0.05905 -0.07707,0 -0.497977,-0.06655 -0.70703,-0.111781 -0.288623,-0.06245 -0.674706,-0.185283 -1.190397,-0.378722 -0.552336,-0.207182 -0.75774,-0.271963 -1.050698,-0.331365 -0.177583,-0.03601 -0.254047,-0.04091 -0.611748,-0.03927 -0.426014,0.0019 -1.015249,0.04894 -1.453505,0.115895 -1.084931,0.165738 -1.731827,0.616029 -2.343187,1.631056 -0.198003,0.328742 -0.255711,0.532828 -0.219254,0.775425 0.03531,0.234987 0.208589,0.513567 0.421714,0.677992 l 0.09916,0.0765 0.103222,-0.04052 c 0.05677,-0.02228 0.103235,-0.04479 0.103256,-0.05002 1.9e-5,-0.0052 -0.02945,-0.02537 -0.06548,-0.04478 -0.106622,-0.05742 -0.256919,-0.221578 -0.315775,-0.3449 -0.104185,-0.2183 -0.105003,-0.470495 -0.0024,-0.751525 0.05479,-0.150114 0.214366,-0.439076 0.24248,-0.439076 0.0084,0 0.03454,0.01257 0.058,0.02795 l 0.04266,0.02795 -0.03335,0.107164 c -0.01834,0.05894 -0.0387,0.166957 -0.04523,0.240038 -0.03701,0.414049 0.183697,0.712896 0.607613,0.822743 l 0.11308,0.0293 0.06715,-0.05343 c 0.101092,-0.08043 0.316145,-0.309176 0.382973,-0.407352 0.07764,-0.114054 0.144325,-0.266912 0.15833,-0.36291 0.02252,-0.154462 0.226811,-0.396923 0.422127,-0.501026 0.203575,-0.108503 0.488696,-0.140526 0.769114,-0.08638 0.07333,0.01416 0.975448,0.258903 2.004711,0.543872 2.646286,0.732677 2.597764,0.720421 3.111172,0.785781 0.313507,0.03991 0.812747,0.04 1.048708,1.8e-4 0.222541,-0.03755 0.471014,-0.119084 0.627602,-0.205938 0.153461,-0.08512 0.378217,-0.309529 0.442164,-0.441484 0.162274,-0.334857 0.130045,-0.863232 -0.08806,-1.44381 -0.174254,-0.463847 -0.52891,-1.092465 -0.884179,-1.567193 l -0.05775,-0.07717 0.0416,-0.04428 0.0416,-0.04428 0.138758,0.105349 c 1.084122,0.82309 2.619936,1.400159 4.334735,1.628741 0.299691,0.03995 0.779571,0.08022 0.957154,0.08032 l 0.156707,9e-5 0.01148,0.05741 c 0.0063,0.03157 0.0076,0.06133 0.0028,0.06612 -0.0048,0.0048 -0.0723,0.01998 -0.150019,0.03372 -0.640353,0.113286 -1.459566,0.125171 -2.239798,0.03249 -0.51271,-0.0609 -1.211795,-0.203377 -1.726039,-0.351768 -0.134903,-0.03893 -0.247409,-0.06873 -0.250013,-0.06623 -0.0026,0.0024 0.03143,0.08146 0.07564,0.175453 0.177533,0.377497 0.267634,0.72929 0.271796,1.06117 0.0013,0.109921 -0.0039,0.24257 -0.01169,0.294778 l -0.01418,0.09492 0.159544,0.07991 c 0.470191,0.235516 1.181177,0.410191 2.021842,0.496726 0.257247,0.02648 0.475798,0.03265 1.144636,0.0323 0.967763,-5.29e-4 1.375457,-0.02904 2.361946,-0.165362 0.44323,-0.06125 1.007882,-0.07795 1.243943,-0.03679 0.08959,0.01564 0.165759,0.02553 0.169254,0.02204 0.0158,-0.0158 -0.04165,-0.176414 -0.10641,-0.297437 -0.103148,-0.192767 -0.251084,-0.382045 -0.495017,-0.633338 l -0.214767,-0.221247 0.02997,-0.04575 c 0.03516,-0.05366 0.05481,-0.04915 0.245126,0.05632 0.535525,0.296781 1.198094,0.916559 1.749505,1.636514 0.186303,0.24325 0.321857,0.450765 0.530513,0.812144 0.317153,0.549293 0.530267,0.866405 0.818089,1.217311 0.843732,1.028668 1.845924,1.624036 3.025513,1.797354 0.385807,0.05669 0.644544,0.05448 1.952419,-0.01664 1.059336,-0.05761 1.308007,-0.06584 1.744204,-0.05774 0.94659,0.0176 1.651696,0.142994 2.159823,0.38412 0.383299,0.181893 1.194271,0.821735 1.861209,1.468461 0.654037,0.634217 0.983059,0.89226 1.373531,1.077227 0.314463,0.148963 0.645388,0.192403 0.885391,0.116224 z M 32.323678,33.889645 c -0.04233,-0.0099 -0.05581,-0.02405 -0.06034,-0.06349 -0.01077,-0.09378 0.190576,-0.232762 0.426098,-0.294108 0.155493,-0.0405 0.791689,-0.03944 0.825563,0.0013 0.03883,0.04678 0.0013,0.08245 -0.184091,0.174529 -0.265854,0.132118 -0.454253,0.181005 -0.725612,0.188289 -0.12491,0.0034 -0.251637,2.64e-4 -0.281617,-0.0066 z m -1.75812,3.721536 c 0.07253,-0.04422 0.203846,-0.220035 0.276104,-0.36966 0.165743,-0.343193 0.138776,-0.844476 -0.05958,-1.107519 -0.158077,-0.209632 -0.45181,-0.211347 -0.659309,-0.0038 -0.157541,0.15754 -0.314423,0.529066 -0.315209,0.746468 -2.65e-4,0.09319 0.02755,0.185383 0.126984,0.419746 l 0.07857,0.185206 0.113829,0.05604 c 0.238686,0.117507 0.338958,0.134323 0.438605,0.07357 z M 29.940941,34.76604 c 0.142298,-0.03646 0.241572,-0.09436 0.330845,-0.192963 l 0.07082,-0.07822 -0.09051,-0.0058 c -0.212196,-0.01365 -0.344342,0.05346 -0.427948,0.217342 -0.05315,0.104178 -0.05442,0.103529 0.11679,0.05967 z"
       transform="translate(-14.938252,-24.127604)"
       id="path40" />
    <path
       style="fill:#000000;fill-opacity:1;stroke-width:0.0181688"
       d="m 65.836054,53.189762 v -1.99026 l 2.70261,0.007 c 2.872364,0.007 2.855825,0.007 3.273388,0.0945 0.758108,0.15955 1.110702,0.54267 1.10957,1.20562 -5.3e-4,0.37549 -0.131477,0.6367 -0.422855,0.84422 -0.296757,0.21135 -0.627319,0.31111 -1.221152,0.36853 -0.289804,0.028 -0.335222,0.0352 -0.316442,0.0497 0.0042,0.003 0.502216,0.31121 1.106784,0.68441 0.604567,0.3732 1.11534,0.68942 1.135052,0.70272 0.03008,0.0203 -0.09392,0.0241 -0.772176,0.0239 l -0.808011,-2.5e-4 -1.129925,-0.69925 -1.129919,-0.69925 h -2.037082 v 1.399 h -1.489842 z m 4.851074,0.11866 c 0.577413,-0.05 0.762458,-0.24612 0.762458,-0.80829 0,-0.49105 -0.14001,-0.69353 -0.553517,-0.80052 -0.117461,-0.0304 -0.258762,-0.0334 -1.848678,-0.0395 l -1.721495,-0.007 v 1.67324 l 1.576144,-1.8e-4 c 0.891709,0 1.666877,-0.008 1.785088,-0.0182 z"
       transform="translate(-14.938252,-24.127604)"
       id="path39" />
    <path
       style="fill:#000000;fill-opacity:1;stroke-width:0.0181688"
       d="m 56.163821,55.120702 c 0.02852,-0.0326 0.798907,-0.9279 1.711981,-1.98949 l 1.660131,-1.93015 h 1.534588 l 1.678276,1.94681 c 0.923052,1.07076 1.693447,1.96611 1.711987,1.98968 l 0.03371,0.0429 -0.823458,-0.005 -0.823454,-0.005 -0.378881,-0.4406 -0.378881,-0.44059 h -4.33356 l -0.379666,0.44431 -0.379664,0.4443 -0.442479,8e-4 -0.442476,7.9e-4 0.05185,-0.0593 z m 5.547913,-1.25857 c 0,-0.0198 -1.785654,-2.08097 -1.798386,-2.07587 -0.0199,0.008 -1.780022,2.05626 -1.780477,2.07198 -2.17e-4,0.007 0.804939,0.0136 1.789234,0.0136 0.984295,0 1.789629,-0.004 1.789629,-0.01 z"
       transform="translate(-14.938252,-24.127604)"
       id="path38" />
    <path
       style="fill:#000000;fill-opacity:1;stroke-width:0.0181688"
       d="m 42.171175,55.167202 c -0.297886,-0.0134 -0.880845,-0.0618 -1.059984,-0.088 -1.162563,-0.16987 -1.793076,-0.58543 -1.981864,-1.3062 -0.113456,-0.43316 -0.08527,-1.02432 0.06601,-1.38437 0.1578,-0.37557 0.463804,-0.65616 0.920835,-0.84434 0.223859,-0.0922 0.594201,-0.18676 0.912995,-0.23317 0.594085,-0.0865 0.885113,-0.0964 3.0997,-0.10492 l 2.084871,-0.008 v 0.45713 l -1.739664,5.3e-4 c -1.784247,5.3e-4 -2.232697,0.0115 -2.525207,0.0623 -0.759434,0.13181 -1.197333,0.47447 -1.360715,1.06477 -0.04999,0.18061 -0.04608,0.58033 0.0075,0.76733 0.173014,0.60382 0.627986,0.93996 1.448343,1.07004 0.218281,0.0346 0.337129,0.0381 1.567061,0.0463 l 1.330864,0.009 v -1.31212 h 1.489843 v 1.81688 l -2.066703,-0.004 c -1.136685,-0.002 -2.123932,-0.006 -2.193883,-0.009 z"
       id="path37"
       transform="translate(-14.938252,-24.127604)" />
    <path
       style="fill:#000000;fill-opacity:1;stroke-width:0.0181688"
       d="m 30.082157,55.144332 c 0.01371,-0.0196 0.781203,-0.9148 1.705541,-1.98924 l 1.680615,-1.95354 0.772176,10e-4 0.772173,0.001 1.698784,1.97334 c 0.934333,1.08532 1.701511,1.98002 1.704842,1.9882 0.0033,0.008 -0.361254,0.0149 -0.810188,0.0149 h -0.816245 l -0.37987,-0.44398 -0.379868,-0.44398 -2.171173,-7.9e-4 -2.171174,-8e-4 -0.380926,0.44465 -0.380926,0.44464 h -0.434345 c -0.428143,0 -0.433988,-5.3e-4 -0.409416,-0.0357 z m 5.554181,-1.29097 c -0.0087,-0.026 -1.765631,-2.06887 -1.78027,-2.06998 -0.0114,-8e-4 -1.755564,2.01856 -1.78421,2.0658 -0.01098,0.0181 0.349438,0.0227 1.778442,0.0227 1.210056,0 1.790207,-0.006 1.786038,-0.0185 z"
       transform="translate(-14.938252,-24.127604)"
       id="path36" />
    <path
       style="fill:#000000;fill-opacity:1;stroke-width:0.0181688"
       d="m 22.975824,54.918762 v -0.26417 l 1.657903,-0.006 c 1.807819,-0.007 1.745144,-0.003 2.13505,-0.11491 0.446799,-0.12802 0.782193,-0.38391 0.945224,-0.72114 0.153905,-0.31836 0.167066,-0.44843 0.167254,-1.65306 l 1.48e-4,-0.9584 h 1.474062 l -0.0073,1.16735 c -0.008,1.28233 -0.0074,1.27478 -0.125116,1.58046 -0.132975,0.34538 -0.428035,0.64255 -0.827069,0.83299 -0.294733,0.14066 -0.779113,0.26271 -1.25041,0.31506 -0.578062,0.0642 -0.763826,0.0701 -2.457334,0.078 l -1.71241,0.008 z"
       transform="translate(-14.938252,-24.127604)"
       id="path35" />
    <path
       style="fill:#000000;fill-opacity:1;stroke-width:0.0181688"
       d="m 50.892204,55.250922 c -0.780229,-0.0486 -1.299466,-0.14103 -1.723135,-0.30686 -0.524968,-0.20548 -0.868532,-0.53999 -1.009732,-0.98311 -0.08714,-0.27346 -0.09238,-0.36424 -0.09238,-1.59945 v -1.16042 h 1.469702 l 0.0067,1.15826 c 0.0073,1.24841 0.0065,1.23789 0.108145,1.49438 0.270135,0.68167 1.014053,0.99691 2.258119,0.95688 0.533164,-0.0171 0.897726,-0.0868 1.203026,-0.2299 0.401537,-0.18816 0.634441,-0.45196 0.762137,-0.86324 l 0.05077,-0.16352 0.0058,-1.17643 0.0058,-1.17643 h 1.491057 l -0.0078,1.19459 c -0.0073,1.11913 -0.01011,1.20493 -0.04472,1.35812 -0.0783,0.34664 -0.189466,0.55983 -0.403289,0.77342 -0.439017,0.43856 -1.146534,0.64997 -2.426906,0.72518 -0.356174,0.0209 -1.307076,0.0201 -1.653363,-0.002 z"
       transform="translate(-14.938252,-24.127604)"
       id="path34" />
  </g>
</svg>
