<?xml version="1.0" encoding="UTF-8"?>
<svg enable-background="new 0 0 476.2 250" version="1.1" viewBox="0 0 476.2 250" xml:space="preserve" xmlns="http://www.w3.org/2000/svg" xmlns:cc="http://creativecommons.org/ns#" xmlns:dc="http://purl.org/dc/elements/1.1/" xmlns:rdf="http://www.w3.org/1999/02/22-rdf-syntax-ns#" xmlns:xlink="http://www.w3.org/1999/xlink"><metadata><rdf:RDF><cc:Work rdf:about=""><dc:format>image/svg+xml</dc:format><dc:type rdf:resource="http://purl.org/dc/dcmitype/StillImage"/><dc:title/></cc:Work></rdf:RDF></metadata><defs><radialGradient id="radialGradient2807" cx="740.37" cy="125" r="238.1" gradientTransform="matrix(1.0104 0 0 .52499 -509.47 59.526)" gradientUnits="userSpaceOnUse"><stop stop-color="#e7e8e9" offset="0"/><stop stop-color="#e7e8e9" offset=".96687"/><stop stop-color="#464748" offset="1"/></radialGradient></defs>
<path d="m238.6 0.15c-131.5 0-238.1 56-238.1 125s106.6 125 238.1 125 238.1-56 238.1-125-106.6-125-238.1-125z" fill="url(#radialGradient2807)"/>
		<defs><path id="SVGID_1_" d="m9.3 125c0 63.6 102.4 115.2 228.7 115.2s228.8-51.6 228.8-115.2-102.4-115.2-228.8-115.2c-126.3 0-228.7 51.6-228.7 115.2"/></defs>
		<clipPath id="SVGID_2_">
			<use width="100%" height="100%" overflow="visible" xlink:href="#SVGID_1_"/>
		</clipPath>
		
			<linearGradient id="SVGID_3_" x1="-738.59" x2="-734.65" y1="557.92" y2="557.92" gradientTransform="matrix(30.526 65.463 -65.463 30.526 59247 31315)" gradientUnits="userSpaceOnUse">
			<stop stop-color="#008948" offset="0"/>
			<stop stop-color="#008948" offset=".3764"/>
			<stop stop-color="#004E25" offset=".5955"/>
			<stop offset="1"/>
		</linearGradient>
		<polygon points="91.1 415.4 -78.9 51 385.1 -165.4 555.1 199" clip-path="url(#SVGID_2_)" fill="url(#SVGID_3_)"/>
	<g fill="none">
		<path d="m238.1 23.6c-118.4 0-214.4 45.9-214.4 102.4s96 102.4 214.4 102.4 214.4-45.9 214.4-102.4-96-102.4-214.4-102.4" stroke="#004e25" stroke-width="2.9504"/>
		<path d="m238.1 17.6c-121.6 0-220.1 48.2-220.1 107.6s98.6 107.5 220.1 107.5c121.6 0 220.2-48.2 220.2-107.5-0.1-59.4-98.6-107.6-220.2-107.6" stroke="#f5f0cc" stroke-width="5.5897"/>
	</g>
		<defs><polygon id="SVGID_4_" points="356.4 93 329.9 102.6 328.1 107.9 369 93.9 373.5 79.9 337.5 79.9 333.2 93"/></defs>
		<clipPath id="SVGID_5_">
			<use width="100%" height="100%" overflow="visible" xlink:href="#SVGID_4_"/>
		</clipPath>
		
			<linearGradient id="SVGID_6_" x1="-734.51" x2="-730.57" y1="553.98" y2="553.98" gradientTransform="matrix(23.66 50.738 -50.738 23.66 45805 24186)" gradientUnits="userSpaceOnUse">
			<stop stop-color="#004E25" offset="0"/>
			<stop offset="1"/>
		</linearGradient>
		<polygon points="336.2 125.3 317.4 84.9 365.4 62.5 384.3 102.9" clip-path="url(#SVGID_5_)" fill="url(#SVGID_6_)"/>
	
		<defs><path id="SVGID_7_" d="m147.9 102v0zm-20.9-44.5c2.5 1.3 0.3 6.2 0.3 6.2s-16.2 47.2-17.3 49.6-2 2.7-2 2.7h35l4.9-13.9c-0.5 1.3-3.8 0.9-3.8 0.9h-14.6s13.6-37.9 14.7-40.7c1.6-4.2 2.7-4.7 3-4.7h-20.2zm20.1 0h0.1-0.1c0.1 0 0.1 0 0 0"/></defs>
		<clipPath id="SVGID_8_">
			<use width="100%" height="100%" overflow="visible" xlink:href="#SVGID_7_"/>
		</clipPath>
		
			<linearGradient id="SVGID_9_" x1="-740.48" x2="-736.54" y1="561.24" y2="561.24" gradientTransform="matrix(45.619 97.831 -97.831 45.619 88878 47060)" gradientUnits="userSpaceOnUse">
			<stop stop-color="#004E25" offset="0"/>
			<stop offset="1"/>
		</linearGradient>
		<polygon points="115.1 131.2 85.6 67.9 140.8 42.2 170.3 105.4" clip-path="url(#SVGID_8_)" fill="url(#SVGID_9_)"/>
	
		<defs><path id="SVGID_10_" d="m255.7 61c-0.6 1.5-9.6 26.7-9.6 26.7l-3.5-30.1h-17.1s0.9 1.5 0.3 3.1c-0.5 1.3-18.1 51.9-18.1 51.9s-1.1 3.2-2.1 3.2h16.5s-1.1-1.7-0.4-3.7c1-2.7 9.7-27.6 9.7-27.6l3.8 31.3h14.9l19.6-55.6s0.8-2.6 1.9-2.6h-15.9c0.1 0 0.6 1.9 0 3.4"/></defs>
		<clipPath id="SVGID_11_">
			<use width="100%" height="100%" overflow="visible" xlink:href="#SVGID_10_"/>
		</clipPath>
		
			<linearGradient id="SVGID_12_" x1="-740.19" x2="-736.26" y1="559.87" y2="559.87" gradientTransform="matrix(40.716 87.315 -87.315 40.716 79265 41932)" gradientUnits="userSpaceOnUse">
			<stop stop-color="#004E25" offset="0"/>
			<stop offset="1"/>
		</linearGradient>
		<polygon points="217.4 141.1 183.3 68 259.9 32.3 294 105.4" clip-path="url(#SVGID_11_)" fill="url(#SVGID_12_)"/>
	
		<defs><path id="SVGID_13_" d="m294.5 70.1h4.2s11-0.7 3.1 19.3c-4.8 12.2-11.9 13.1-15.7 13.1h-2.6zm5.4-12.5h-18.8s1.4 2.4-0.4 7.8c-1.8 5.5-16.2 46-16.2 46s-1.1 3.8-2.7 4.5h22.6s27.4 1.1 35.8-29c0 0 10.6-29.4-19.9-29.4-0.1 0.1-0.3 0.1-0.4 0.1"/></defs>
		<clipPath id="SVGID_14_">
			<use width="100%" height="100%" overflow="visible" xlink:href="#SVGID_13_"/>
		</clipPath>
		
			<linearGradient id="SVGID_15_" x1="-739.58" x2="-735.64" y1="558.69" y2="558.69" gradientTransform="matrix(36.647 78.589 -78.589 36.647 71285 37689)" gradientUnits="userSpaceOnUse">
			<stop stop-color="#004E25" offset="0"/>
			<stop offset="1"/>
		</linearGradient>
		<polygon points="274.1 143.5 239 68.2 318.5 31.1 353.6 106.4" clip-path="url(#SVGID_14_)" fill="url(#SVGID_15_)"/>
	
		<defs><polygon id="SVGID_16_" points="118.9 162.9 123.2 149.8 100 149.8 126.5 140.2 128.3 134.9 87.4 148.9 82.9 162.9"/></defs>
		<clipPath id="SVGID_17_">
			<use width="100%" height="100%" overflow="visible" xlink:href="#SVGID_16_"/>
		</clipPath>
		
			<linearGradient id="SVGID_18_" x1="-733.17" x2="-729.23" y1="557.25" y2="557.25" gradientTransform="matrix(23.661 50.74 -50.74 23.661 45761 24237)" gradientUnits="userSpaceOnUse">
			<stop stop-color="#004E25" offset="0"/>
			<stop offset="1"/>
		</linearGradient>
		<polygon points="91 180.3 72.2 139.9 120.2 117.5 139 157.9" clip-path="url(#SVGID_17_)" fill="url(#SVGID_18_)"/>
	
		<defs><path id="SVGID_19_" d="m159.9 142.1h3.9c8.4 0 5.4 6.6 5.4 6.6-2.6 5.8-9.5 5.1-9.5 5.1h-3.6zm9.4-13.4h-23.3c1.7 2 0.4 6.1 0.4 6.1s-14.5 43.3-15.6 46.6-3.2 5.7-3.2 5.7h18.4c-0.6 0-0.6-1.9-0.6-1.9l6.6-18.3s8.2 16.9 8.8 18.1 0.3 2.2 0.3 2.2h19.7c-1.9 0-3.8-3.7-3.8-3.7l-9.8-18.4c13.7 0 18.1-14.2 18.1-14.2 6.4-21.5-13.9-22-15.9-22l-0.1-0.2"/></defs>
		<clipPath id="SVGID_20_">
			<use width="100%" height="100%" overflow="visible" xlink:href="#SVGID_19_"/>
		</clipPath>
		
			<linearGradient id="SVGID_21_" x1="-738.65" x2="-734.71" y1="560.03" y2="560.03" gradientTransform="matrix(36.706 78.716 -78.716 36.706 71378 37792)" gradientUnits="userSpaceOnUse">
			<stop stop-color="#004E25" offset="0"/>
			<stop offset="1"/>
		</linearGradient>
		<polygon points="139 211.7 105.1 139.1 180.3 104.1 214.1 176.6" clip-path="url(#SVGID_20_)" fill="url(#SVGID_21_)"/>
	
		<defs><path id="SVGID_22_" d="m350 187.3m13.6-44.9h5.1s6.2-0.2 3.7 6.5c-2.1 5.6-9 5.1-9 5.1h-3.6zm9.5-13.5h-23.1c1.7 2 0.4 6.1 0.4 6.1s-15.1 43.5-16.2 46.8c-1.1 3.4-3.3 5.5-3.3 5.5h19.2c-1.3 0-0.4-3.6-0.4-3.6l5.9-16.7s8 16.9 8.5 18.1c0.6 1.2 0.3 2.2 0.3 2.2h20.4c-1.9 0-3.9-3.7-3.9-3.7l-9.8-18.4c13.7 0 17.9-13.7 17.9-13.7 6.6-21.6-11.9-22.6-15.3-22.6h-0.6"/></defs>
		<clipPath id="SVGID_23_">
			<use width="100%" height="100%" overflow="visible" xlink:href="#SVGID_22_"/>
		</clipPath>
		
			<linearGradient id="SVGID_24_" x1="-739.74" x2="-735.8" y1="558.45" y2="558.45" gradientTransform="matrix(36.727 78.762 -78.762 36.727 71449 37766)" gradientUnits="userSpaceOnUse">
			<stop stop-color="#004E25" offset="0"/>
			<stop offset="1"/>
		</linearGradient>
		<polygon points="342.3 212.1 308.4 139.3 383.9 104.1 417.8 176.9" clip-path="url(#SVGID_23_)" fill="url(#SVGID_24_)"/>
	
		<defs><path id="SVGID_25_" d="m211 174.7c-6.9-1.3-5.7-12.5-4.6-17.7 2.4-11.3 8.5-16.7 13-16.2 1.5 0.2 9.6 0.3 5.2 18.8-2.6 11-7.4 15.2-12.1 15.2-0.5 0.1-1 0-1.5-0.1m-21.9-15.5c-2.8 16.3 6 29.4 20.6 29.4 20.3 0 32.5-20.9 32.5-35.9 0-15.7-6.2-25.5-20.3-25.5-18 0-29.8 14.2-32.8 32"/></defs>
		<clipPath id="SVGID_26_">
			<use width="100%" height="100%" overflow="visible" xlink:href="#SVGID_25_"/>
		</clipPath>
		
			<linearGradient id="SVGID_27_" x1="-738.41" x2="-734.47" y1="559.28" y2="559.28" gradientTransform="matrix(34.86 74.757 -74.757 34.86 67764 35860)" gradientUnits="userSpaceOnUse">
			<stop stop-color="#004E25" offset="0"/>
			<stop offset="1"/>
		</linearGradient>
		<polygon points="196.3 209.9 162.8 138.1 232.2 105.8 265.7 177.6" clip-path="url(#SVGID_26_)" fill="url(#SVGID_27_)"/>
	
		<defs><path id="SVGID_28_" d="m247 128.9s1.4 0.8 1.4 4.5v50.6s-0.2 2.8-1.2 3.4h15.1s0-1.2 1.5-3.2 32.9-46 32.9-46 7.2-9.2 9.1-9.2h-21.7s1.7 1.2 0.4 3.3c-1.3 2.2-20.6 32.3-20.6 32.3l0.2-30.3s0-4.9 1.8-5.3z"/></defs>
		<clipPath id="SVGID_29_">
			<use width="100%" height="100%" overflow="visible" xlink:href="#SVGID_28_"/>
		</clipPath>
		
			<linearGradient id="SVGID_30_" x1="-738.88" x2="-734.95" y1="558.91" y2="558.91" gradientTransform="matrix(35.582 76.306 -76.306 35.582 69191 36598)" gradientUnits="userSpaceOnUse">
			<stop stop-color="#004E25" offset="0"/>
			<stop offset="1"/>
		</linearGradient>
		<polygon points="257.5 209.8 224.6 139.3 295.3 106.3 328.2 176.9" clip-path="url(#SVGID_29_)" fill="url(#SVGID_30_)"/>
	
		<defs><path id="SVGID_31_" d="m332.6 150.4zm-26-21.5s1.3 1.2-0.4 6.1-16.6 46.8-16.6 46.8-2.7 5.5-3.4 5.5h37.8l4.5-14s-0.6 0.8-4.1 0.8h-16l3.4-9.4h12.4s2.6-0.2 3.2 0.6l5.1-14.9c-0.1 0.2-0.6 1.3-3.8 1.3h-12l3.6-10.4h15.2s2.1-0.3 2.8 1.4l4.9-13.8z"/></defs>
		<clipPath id="SVGID_32_">
			<use width="100%" height="100%" overflow="visible" xlink:href="#SVGID_31_"/>
		</clipPath>
		
			<linearGradient id="SVGID_33_" x1="-741.28" x2="-737.34" y1="560.15" y2="560.15" gradientTransform="matrix(44.675 95.807 -95.807 44.675 87042 46033)" gradientUnits="userSpaceOnUse">
			<stop stop-color="#004E25" offset="0"/>
			<stop offset="1"/>
		</linearGradient>
		<polygon points="296.5 209.2 263.9 139.3 333.2 107 365.7 176.9" clip-path="url(#SVGID_32_)" fill="url(#SVGID_33_)"/>
	
		<defs><path id="SVGID_34_" d="m186.5 77.4 0.1 17.1h-10.2zm-3.2-19.9s1.3 1.6-1.1 5.3-33 51.1-33 51.1-0.6 1.2-2.2 1.9h18.1s-0.1-1.4 0.4-2.4c0.9-1.7 3.1-5.8 3.1-5.8h18.2v5.1s0.1 1.8-1.2 3.1h18.1s-1.3-0.8-1.6-3.1l-2.3-51.3s-0.1-3.3 1.4-4c0.1 0.1-17.9 0.1-17.9 0.1z"/></defs>
		<clipPath id="SVGID_35_">
			<use width="100%" height="100%" overflow="visible" xlink:href="#SVGID_34_"/>
		</clipPath>
		
			<linearGradient id="SVGID_36_" x1="-739.38" x2="-735.44" y1="559.92" y2="559.92" gradientTransform="matrix(38.232 81.988 -81.988 38.232 74380 39364)" gradientUnits="userSpaceOnUse">
			<stop stop-color="#004E25" offset="0"/>
			<stop offset="1"/>
		</linearGradient>
		<polygon points="157.2 137.6 124.7 67.9 193.6 35.8 226.1 105.5" clip-path="url(#SVGID_35_)" fill="url(#SVGID_36_)"/>
	<g fill="#f5f0cc"><polygon points="329.8 89.3 353.1 89.3 326.5 99 324.8 104.3 365.6 90.2 370.2 76.2 334.2 76.2"/><path d="m144.6 98.2-4.9 14h-35s0.8-0.3 2-2.7c1.1-2.4 17.3-49.6 17.3-49.6s2.2-4.9-0.3-6.2h20.3s-1.2-0.3-3.1 4.7c-1.1 2.9-14.7 40.7-14.7 40.7h14.6c0 0.1 3.3 0.5 3.8-0.9"/><path d="m202.3 112.1h16.5s-1.1-1.8-0.4-3.7c1-2.7 9.7-27.6 9.7-27.6l3.8 31.3h15l19.6-55.6s0.8-2.6 1.9-2.6h-15.9s0.5 1.9-0.1 3.4-9.6 26.7-9.6 26.7l-3.5-30.1h-17.1s0.9 1.5 0.3 3.1c-0.5 1.3-18.1 51.9-18.1 51.9s-1.2 3.2-2.1 3.2"/><path d="m296.5 53.9h-18.8s1.4 2.4-0.4 7.8c-1.8 5.5-16.2 46-16.2 46s-1.1 3.8-2.7 4.5h22.6s27.4 1.1 35.8-29c0 0.1 10.8-29.6-20.3-29.3m2 31.9c-4.8 12.2-11.9 13.1-15.7 13.1h-2.6l11-32.4h4.2s10.9-0.7 3.1 19.3"/><polygon points="119.9 146.2 96.6 146.2 123.2 136.5 124.9 131.2 84 145.3 79.5 159.3 115.5 159.3"/><path d="m181.9 147c6.8-22.6-16-22-16-22h-23.3c1.7 2 0.4 6.1 0.4 6.1s-14.5 43.3-15.6 46.7c-1.1 3.3-3.2 5.7-3.2 5.7h18.4c-0.6 0-0.6-1.9-0.6-1.9l6.6-18.3s8.2 16.9 8.8 18.1 0.3 2.2 0.3 2.2h19.7c-1.9 0-3.8-3.7-3.8-3.7l-9.8-18.4c13.7-0.3 18.1-14.5 18.1-14.5m-16-2c-2.6 5.8-9.5 5.1-9.5 5.1h-3.6l3.8-11.7h3.9c8.4 0 5.4 6.6 5.4 6.6"/><path d="m385.5 147.8c7.2-23.7-15.8-22.6-15.8-22.6h-23.1c1.7 2 0.4 6.1 0.4 6.1s-15.1 43.5-16.2 46.8-3.3 5.5-3.3 5.5h19.2c-1.4 0-0.4-3.6-0.4-3.6l5.9-16.7s7.9 16.9 8.5 18.1 0.3 2.2 0.3 2.2h20.4c-1.9 0-4-3.7-4-3.7l-9.8-18.4c13.7 0 17.9-13.7 17.9-13.7m-16.4-2.5c-2.1 5.6-9 5.1-9 5.1h-3.6l3.8-11.6h5.1s6.2-0.2 3.7 6.5"/><path d="m218.5 123.5c-18 0-29.8 14.3-32.8 32-2.8 16.3 6 29.4 20.6 29.4 20.3 0 32.5-20.9 32.5-35.9 0-15.7-6.2-25.5-20.3-25.5m2.7 32.5c-2.9 12.2-8.5 16-13.6 15-6.9-1.3-5.7-12.5-4.6-17.7 2.4-11.3 8.5-16.7 13-16.2 1.5 0.3 9.6 0.4 5.2 18.9"/><path d="m243.6 125.2s1.4 0.8 1.4 4.5v50.6s-0.2 2.8-1.2 3.4h15.2s0-1.2 1.5-3.2 32.9-46 32.9-46 7.1-9.2 9-9.2h-21.7s1.7 1.2 0.4 3.3c-1.3 2.2-20.6 32.3-20.6 32.3l0.2-30.4s0-4.9 1.8-5.3h-18.9"/><path d="m335.1 139 4.9-13.8h-36.7s1.3 1.2-0.4 6.1-16.6 46.8-16.6 46.8-2.7 5.5-3.4 5.5h37.8l4.5-14s-0.6 0.8-4.1 0.8h-16l3.4-9.4h12.5s2.6-0.2 3.2 0.6l5.1-14.9s-0.4 1.4-3.8 1.4h-12l3.6-10.4h15.2c0-0.1 2-0.4 2.8 1.3"/><path d="m200.4 112.2s-1.3-0.8-1.6-3.1l-2.3-51.3s-0.1-3.3 1.4-4h-17.9s1.3 1.6-1.1 5.3-33 51.1-33 51.1-0.6 1.2-2.1 1.9h18.1s-0.1-1.5 0.4-2.4c0.9-1.7 3.1-5.8 3.1-5.8h18.2v5.1s0.1 1.8-1.2 3.1c-0.1 0.1 18 0.1 18 0.1zm-27.3-21.4 10-17.1 0.1 17.1z"/>
</g></svg>
