<?xml version="1.0" encoding="utf-8"?>
<!-- Generator: Adobe Illustrator 26.0.3, SVG Export Plug-In . SVG Version: 6.00 Build 0)  -->
<svg version="1.0"
	 id="svg2949" inkscape:output_extension="org.inkscape.output.svg.inkscape" xmlns:cc="http://web.resource.org/cc/" xmlns:dc="http://purl.org/dc/elements/1.1/" xmlns:inkscape="http://www.inkscape.org/namespaces/inkscape" xmlns:rdf="http://www.w3.org/1999/02/22-rdf-syntax-ns#" xmlns:sodipodi="http://sodipodi.sourceforge.net/DTD/sodipodi-0.dtd" xmlns:svg="http://www.w3.org/2000/svg"
	 xmlns="http://www.w3.org/2000/svg" xmlns:xlink="http://www.w3.org/1999/xlink" x="0px" y="0px" viewBox="267 40.5 490 710"
	 style="enable-background:new 0 0 1024.4 791.3;" xml:space="preserve">
<style type="text/css">
	.st0{fill:#FFFFFF;}
	.st1{fill-rule:evenodd;clip-rule:evenodd;fill:#E21A22;}
	.st2{fill:#09264A;}
	.st3{fill:#0C2E59;}
</style>
<g id="layer1" transform="translate(-309.93544,165.42336)" inkscape:groupmode="layer" inkscape:label="Ebene 1">
	<g id="g2978" transform="matrix(7.1658303,0,0,7.1658303,-1911.0089,-3349.5134)">
		<path id="path320" class="st0" d="M413,499.6c0,27.1-14.2,48.8-31.6,48.8c-17.3,0-31.6-21.7-31.6-48.8c0-27.1,14.2-48.8,31.6-48.8
			C398.8,450.8,413,472.5,413,499.6"/>
		<path id="path322" class="st1" d="M377,503.9h9.3v2.3H377V503.9z"/>
		<path id="path324" class="st1" d="M378.1,507.1h7.1v2.6h-7.1V507.1z"/>
		<path id="path326" class="st1" d="M367.8,493.2h27.7v1.1h-27.7V493.2z"/>
		<path id="path328" class="st1" d="M366.3,495.4h30.7v1.1h-30.7V495.4z"/>
		<path id="path330" class="st1" d="M366.2,491.1h30.7v1.1h-30.7V491.1z"/>
		<path id="path332" class="st1" d="M386.5,499c-1.5,1.4-1.5,3.9-1.5,3.9h-3.3h-3.3c0,0,0-2.5-1.5-3.9c-1.1-1-2.4-1.2-2.4-1.2
			c-0.9-0.2-0.9-0.3-0.9-0.3h16.1c0,0,0,0.1-0.9,0.3C388.8,497.8,387.5,498,386.5,499"/>
		<path id="path334" class="st1" d="M367.9,497.5c0.3,0,2.9,0,3.3,0c0,2-1.3,2.9-3.3,2.4C367.9,498.7,367.9,498.2,367.9,497.5"/>
		<path id="path336" class="st1" d="M379.7,465.7c1.3-2.6,1.6-6.6,1.9-6.6c0.3,0.1,0.6,4,1.9,6.6c1.3,2.5,3.9,4.6,3.8,4.8
			c-0.2,0.3-1.7-0.5-2.4-0.8c-1.2-0.6-2.2-1-2.2-1s-0.5,6.3,1.1,12.1c1.3,4.7,4.2,9.1,4.5,9.4h-3.8c-0.1-0.2-0.2-0.4-0.4-0.6
			c-1-1.8-1.8-3.4-2.5-6.1c-0.7,2.7-1.5,4.3-2.5,6.1c-0.1,0.2-0.2,0.4-0.4,0.6h-3.8c0.3-0.4,3.3-4.7,4.5-9.4
			c1.5-5.8,1.1-12.1,1.1-12.1s-1,0.4-2.2,1c-0.7,0.4-2.2,1.1-2.4,0.8C375.8,470.3,378.4,468.2,379.7,465.7"/>
		<path id="path338" class="st1" d="M367.8,490.2c0-0.5-0.3-6.8-1.7-11.8c-1.6-5.5-4.9-8.7-4.7-9.1c0.2-0.3,2.9,0.2,5,1.6
			c2.2,1.5,4.3,4,4.1,4.1c-0.1,0.1-0.8-0.5-2.2-1c-1.4-0.5-2-0.4-2-0.4s2.3,3.9,3.5,8c1,3.5,1.5,8,1.5,8.4H367.8"/>
		<path id="path340" class="st1" d="M395.5,490.2c0-0.5,0.3-6.8,1.8-11.8c1.6-5.5,4.9-8.7,4.7-9.1c-0.2-0.3-2.9,0.2-5,1.6
			c-2.2,1.5-4.3,4-4.1,4.1c0.1,0.1,0.8-0.5,2.2-1c1.4-0.5,2-0.4,2-0.4s-2.3,3.9-3.5,8c-1,3.5-1.5,8-1.5,8.4H395.5"/>
		<path id="path342" class="st1" d="M395.4,497.5c-0.3,0-2.9,0-3.3,0c0,2,1.3,2.9,3.3,2.4C395.4,498.7,395.4,498.2,395.4,497.5"/>
		<path id="path344" class="st2" d="M381.4,450.1c17.9,0,32.2,22.3,32.2,49.5c0,27.1-14.3,49.4-32.2,49.4
			c-17.9,0-32.2-22.3-32.2-49.4C349.2,472.4,363.5,450.1,381.4,450.1z M381.4,450.9c-17.2,0-31.4,21.6-31.4,48.7
			c0,27,14.2,48.7,31.4,48.7c17.2,0,31.4-21.6,31.4-48.7C412.8,472.5,398.6,450.9,381.4,450.9"/>
		<path id="path346" class="st3" d="M353,509.7h56.8c0,0-1.1,15.1-9.8,26.2c-6.1,7.9-13.7,10.4-18.5,10.4c-5.3,0-12.3-2.3-18.5-10.4
			C354.4,524.7,353,509.7,353,509.7"/>
		<path id="path348" class="st0" d="M362.9,514.5l-2.1,5.3h-0.3l-2-5.3l-0.2,4.1c0,0.1,0,0.3,0,0.4c0,0.4,0.5,0.4,0.7,0.4h0.1v0.4
			h-2.3v-0.4c0.2,0,0.7,0,0.9-0.2c0.1-0.1,0.1-0.4,0.2-1l0.2-3.9c0-0.3,0-0.4-0.1-0.5c-0.1-0.1-0.6-0.1-0.7-0.1v-0.4h2l1.8,4.7
			l1.8-4.7h2v0.4h-0.1c-0.4,0-0.6,0-0.7,0.1c-0.1,0.1-0.1,0.3-0.1,0.8l0.2,3.7c0,0.2,0,0.7,0.1,0.8c0.2,0.2,0.6,0.2,0.8,0.2v0.4
			h-2.9v-0.4c0.2,0,0.5,0,0.7-0.1c0.1-0.1,0.2-0.2,0.2-0.4c0-0.1,0-0.4,0-0.5L362.9,514.5"/>
		<path id="path350" class="st0" d="M376,513.4h0.3l0.1,1.6h-0.4c-0.2-0.6-0.6-1.3-1.3-1.3c-0.5,0-1,0.4-1,0.9
			c0,0.3,0.1,0.5,0.3,0.7c0.4,0.4,0.9,0.7,1.3,1c0.7,0.5,1.2,1,1.2,2c0,1-0.9,1.9-2,1.9c-0.4,0-0.8-0.1-1.2-0.3l-0.1,0h-0.1
			c-0.1,0-0.1,0-0.1,0.1h-0.3l-0.2-1.7h0.4c0.2,0.6,0.7,1.4,1.4,1.4c0.4,0,1.2-0.3,1.2-1.1c0-0.4-0.1-0.6-0.4-0.9
			c-0.2-0.3-0.6-0.5-1.1-0.8c-1.2-0.8-1.4-1.4-1.4-2c0-1,1-1.7,1.8-1.7c0.3,0,0.6,0.1,0.9,0.1l0.2,0.1l0.1,0l0,0
			C375.9,513.5,376,513.4,376,513.4"/>
		<path id="path352" class="st0" d="M368.6,514.2l-0.8,2.4h1.6L368.6,514.2z M368.3,513.6l-0.2-0.5h1.1l1.8,5.5
			c0.2,0.6,0.2,0.8,1,0.8v0.4h-2.9v-0.4c0.2,0,0.5,0,0.7-0.1c0.1-0.1,0.2-0.1,0.2-0.3c0-0.2-0.1-0.5-0.2-0.8l-0.4-1.2h-1.8
			c-0.2,0.5-0.5,1.3-0.5,1.9c0,0.4,0.2,0.4,0.5,0.4l0.4,0l0.1,0.4h-2.4v-0.4c0.5-0.1,0.7-0.2,0.9-0.7c0.1-0.1,0.1-0.3,0.2-0.5
			L368.3,513.6"/>
		<path id="path354" class="st0" d="M381.2,513.9h-1.4v2.5h1.2c0.3,0,0.4,0,0.5-0.1c0.1-0.1,0.2-0.6,0.2-0.7h0.4v2.1h-0.4
			c0-0.7,0-0.8-0.7-0.8h-1.1v2c0,0.3,0,0.4,0.1,0.5c0.1,0.1,0.4,0.1,0.5,0.1h1c0.8,0,0.9-0.4,1.1-1.2h0.4l-0.1,1.7h-4.8v-0.4
			c0.8,0,0.9,0,0.9-0.8v-4.1c0-0.8-0.2-0.8-0.9-0.8v-0.4h4.6l0.1,1.5h-0.4C382,514.1,381.9,513.9,381.2,513.9"/>
		<path id="path356" class="st0" d="M396.6,514.9h-0.3l0.1-1.8h0.3c0,0.1,0.1,0.1,0.2,0.2c0,0,0.1,0,0.1,0h0.2h3.6
			c0.2,0,0.3,0,0.4,0c0.1,0,0.1-0.1,0.1-0.2h0.3l0.1,1.8h-0.4c0-0.2-0.1-0.8-0.3-1c-0.1-0.1-0.3-0.1-0.5-0.1h-1v4.7
			c0,0.4,0,0.6,0.2,0.7c0.2,0.1,0.7,0.1,0.9,0.1v0.4h-3.2v-0.4c0.2,0,0.8,0,0.9-0.1c0.1-0.1,0.1-0.2,0.1-0.7v-4.8h-0.9
			c-0.4,0-0.6,0-0.8,0.3C396.7,514.4,396.7,514.7,396.6,514.9"/>
		<path id="path358" class="st0" d="M402.8,513.4h3v0.4c-1,0.1-1,0.2-1,1.2v3.5c0.1,0.8,0.2,0.9,1,0.9v0.4h-3v-0.4
			c0.2,0,0.4,0,0.6-0.1c0.1,0,0.1-0.1,0.1-0.1c0.1-0.2,0.1-0.7,0.1-1.3v-3.2c0-0.8-0.2-0.9-1-0.9V513.4"/>
		<path id="path360" class="st0" d="M386.1,516.6h0.7c0.3,0,0.5,0,0.7-0.2c0.3-0.2,0.5-0.5,0.5-1.3c0-1.2-0.7-1.4-1.2-1.4
			c-0.2,0-0.5,0-0.7,0V516.6z M392.8,514.2l-0.8,2.4h1.6L392.8,514.2z M393.5,513.2l1.8,5.5c0.2,0.6,0.2,0.8,0.9,0.8v0.4h-2.9v-0.4
			c0.3,0,0.9,0,0.9-0.4c0-0.2-0.1-0.5-0.2-0.8l-0.4-1.2h-1.8c-0.2,0.6-0.5,1.2-0.5,1.9c0,0.5,0.6,0.5,0.9,0.5v0.4h-2.3
			c-0.9,0-1.6-0.2-2.2-1.2c-0.1-0.2-0.7-1.3-0.8-1.6h-0.8l0,1.4c0,0.9,0.1,1,0.6,1h0.5v0.4h-3.1v-0.4c0.8,0,1-0.1,1-0.8v-4.3
			c0-0.4,0-0.6-0.4-0.6c-0.2,0-0.4,0-0.6,0v-0.4c0.8,0,1.6,0,2.5,0c0.5,0,1,0,1.5,0.1c0.6,0.2,1.1,0.6,1.1,1.6
			c0,1.2-0.7,1.5-1.1,1.8c0.2,0.2,0.3,0.4,0.8,1.4c0.4,1,0.6,1.2,1.2,1.3c0.6,0,0.7-0.4,1-1.2l1.6-4.6l-0.2-0.5H393.5"/>
	</g>
</g>
</svg>
