<?xml version="1.0" encoding="UTF-8" standalone="no"?>
<svg
   xmlns:dc="http://purl.org/dc/elements/1.1/"
   xmlns:cc="http://creativecommons.org/ns#"
   xmlns:rdf="http://www.w3.org/1999/02/22-rdf-syntax-ns#"
   xmlns:svg="http://www.w3.org/2000/svg"
   xmlns="http://www.w3.org/2000/svg"
   xmlns:sodipodi="http://sodipodi.sourceforge.net/DTD/sodipodi-0.dtd"
   xmlns:inkscape="http://www.inkscape.org/namespaces/inkscape"
   height="41.78961"
   width="293.20159"
   version="1.1"
   viewBox="0 0 293.20159 41.78961"
   id="svg6"
   sodipodi:docname="McLaren_logo.svg"
   inkscape:version="0.92.4 (5da689c313, 2019-01-14)">
  <metadata
     id="metadata12">
    <rdf:RDF>
      <cc:Work
         rdf:about="">
        <dc:format>image/svg+xml</dc:format>
        <dc:type
           rdf:resource="http://purl.org/dc/dcmitype/StillImage" />
      </cc:Work>
    </rdf:RDF>
  </metadata>
  <defs
     id="defs10" />
  <sodipodi:namedview
     pagecolor="#ffffff"
     bordercolor="#666666"
     borderopacity="1"
     objecttolerance="10"
     gridtolerance="10"
     guidetolerance="10"
     inkscape:pageopacity="0"
     inkscape:pageshadow="2"
     inkscape:window-width="1920"
     inkscape:window-height="1017"
     id="namedview8"
     showgrid="false"
     inkscape:zoom="0.96861682"
     inkscape:cx="-21.1642"
     inkscape:cy="20.894806"
     inkscape:window-x="-8"
     inkscape:window-y="-8"
     inkscape:window-maximized="1"
     inkscape:current-layer="svg6" />
  <path
     d="M54.75675,41.73066H67.25236V17.9772H60.00254c-3.065,0-5.1279,1.29673-7.2498,3.006-2.29872,2.004-10.60951,9.19489-10.60951,9.19489v-12.142h-7.3677c-4.18484,0-6.30674,1.47354-8.60546,3.30073C24.51971,22.5157,0,41.73066,0,41.73066H14.85329l14.7354-12.142v12.142H41.55383L54.75675,29.76552Zm27.29,0h20.217V35.60074H85.70107c-1.53248,0-3.18284-.94307-3.18284-3.94909v-.41259c0-2.65237,1.35566-3.77226,3.1239-3.77226h16.62154V21.27793H81.63411c-8.42865,0-11.78833,3.65438-11.78833,9.31277v1.88613C69.84578,39.07829,73.50016,41.73066,82.0467,41.73066Zm45.14925,0v-6.2478h-9.66641V18.03614H104.975V41.78961h22.221Zm24.28394-7.95711c0,1.17883-.47153,1.88613-1.88613,1.88613h-6.77828c-1.17884,0-1.94508-.35365-1.94508-1.23777,0-.94307.47154-1.47354,1.94508-1.47354h8.66441Zm12.49562,0V29.294c0-5.12792-3.35967-8.01606-10.55055-8.01606H131.02717v5.89416h17.97717c1.8272,0,2.47555.58942,2.47555,2.004v.23577H137.1571c-6.01206,0-8.134,2.53449-8.134,5.83522v.64836a4.79829,4.79829,0,0,0,1.35566,3.53649c1.76826,1.65037,5.12792,2.18084,9.66642,2.18084H152.4819C160.61584,41.73066,163.97551,39.90348,163.97551,33.77355Zm15.26588-6.30675h7.83923V21.27793H171.0485c-2.59343,0-4.24379,1.35567-4.24379,3.65438V41.73066h12.55456V27.4668Zm32.35892,1.11989c0,.88412-.41259,1.4146-1.82719,1.4146h-8.90018V29.1761c0-1.17883.47155-1.88613,1.94509-1.88613h6.83721C210.77513,27.29,211.60031,27.64362,211.60031,28.58669Zm11.84726-.47153V27.29c0-3.35967-1.88613-5.9531-10.66843-5.9531H199.871c-8.134,0-11.49362,2.77026-11.49362,8.7823v3.5365c0,5.12791,3.35966,8.075,10.60949,8.075h22.92827v-5.9531H203.3485c-1.82719,0-2.47556-.53047-2.47556-1.94507v-.17682h14.38175C220.32367,33.59672,223.44757,31.94636,223.44757,28.11516Zm35.77756,13.6155V30.296c0-7.13193-3.41862-9.01806-13.55657-9.01806H225.80524V41.73066H238.3598V27.93833h3.35967c3.77226,0,5.01,2.18084,5.01,4.5385v9.31278h12.49562Z"
     fill="#272525"
     id="path2"
     style="fill:#000000;fill-opacity:1" />
  <path
     d="M282.625,0c-6.3657,0-15.50164,1.88613-25.40381,5.48157A132.95457,132.95457,0,0,0,232.112,17.80036a71.7896,71.7896,0,0,1,23.69453-4.47956c11.19889,0,19.33283,4.30274,7.48557,19.45073C298.24447,9.96113,297.24247,0,282.625,0Z"
     fill="#ff0034"
     id="path4"
     style="fill:#000000;fill-opacity:1" />
</svg>
