 <svg  version="1.0" xmlns="http://www.w3.org/2000/svg"  width="192.000000pt" height="192.000000pt" viewBox="0 0 192.000000 192.000000"  preserveAspectRatio="xMidYMid meet">  <g transform="translate(0.000000,192.000000) scale(0.033333,-0.033333)" fill="#ff2a39" stroke="none"> <path d="M2660 4193 c-52 -8 -108 -19 -125 -25 -16 -5 -46 -14 -65 -18 -58 -13 -216 -87 -305 -143 -33 -20 -147 -113 -196 -159 -51 -48 -153 -173 -195 -239 -77 -120 -184 -394 -184 -470 0 -19 -7 -56 -15 -83 -20 -67 -20 -303 0 -370 8 -27 15 -65 15 -84 0 -78 106 -348 184 -472 39 -60 149 -196 200 -244 42 -40 156 -131 191 -153 45 -28 182 -99 210 -108 17 -6 40 -16 52 -23 12 -6 31 -12 42 -12 11 0 35 -6 53 -14 88 -37 341 -55 454 -32 42 9 93 16 113 16 20 1 47 7 61 15 14 8 33 14 43 15 34 0 172 64 294 136 163 96 367 317 460 499 94 184 155 417 161 620 5 169 -53 448 -124 588 -8 16 -14 33 -14 38 0 18 -109 189 -164 257 -84 106 -221 228 -321 287 -120 70 -258 135 -292 135 -10 1 -29 7 -43 15 -14 8 -41 14 -60 15 -19 0 -70 7 -113 15 -94 18 -189 17 -317 -2z m270 -303 c174 -32 223 -46 310 -91 210 -107 374 -276 470 -483 22 -48 40 -94 40 -104 0 -9 7 -30 15 -46 8 -15 15 -48 15 -71 0 -38 -5 -48 -40 -78 -22 -18 -58 -40 -81 -47 -38 -13 -47 -12 -108 9 -36 13 -73 29 -81 36 -23 20 -115 70 -230 126 -58 28 -113 55 -122 60 -10 5 -28 9 -41 9 -12 0 -48 7 -80 15 -71 18 -164 24 -242 14 -179 -23 -276 -59 -480 -177 -146 -86 -203 -105 -261 -91 -53 14 -134 81 -134 112 0 25 42 163 58 192 6 11 21 42 34 70 83 179 259 355 453 452 71 36 176 73 208 73 12 1 45 7 72 15 56 15 158 18 225 5z m-2 -735 c167 -29 286 -119 335 -254 29 -76 29 -116 2 -171 -7 -14 -15 -39 -18 -56 -16 -83 -146 -245 -238 -296 -71 -39 -166 -54 -242 -37 -103 21 -181 75 -262 179 -50 66 -67 97 -93 175 -35 103 -36 127 -12 202 19 57 33 78 85 130 76 75 126 102 230 124 102 22 113 22 213 4z m-686 -513 c114 -38 208 -147 318 -370 65 -133 84 -194 83 -269 -2 -117 -26 -138 -118 -104 -141 53 -262 131 -366 238 -74 75 -169 202 -169 225 0 6 -8 20 -17 31 -13 14 -18 36 -18 81 0 91 44 144 144 171 65 18 81 17 143 -3z m1334 0 c78 -16 144 -91 144 -161 0 -69 -86 -214 -199 -337 -85 -91 -231 -188 -363 -240 -104 -41 -128 -21 -128 107 0 50 6 81 20 109 11 22 20 45 20 51 0 12 26 71 77 174 64 130 193 278 253 291 14 3 34 10 45 15 20 9 57 6 131 -9z"/> <path d="M2673 2996 c-52 -25 -80 -46 -107 -81 -33 -44 -36 -54 -36 -112 0 -56 5 -75 37 -137 94 -178 241 -250 369 -179 53 30 135 110 154 151 7 15 20 41 28 57 11 20 16 56 17 105 0 71 -2 77 -34 118 -23 28 -59 55 -104 77 -64 32 -77 35 -161 35 -84 0 -98 -3 -163 -34z"/> <path d="M380 3693 c0 -4 18 -37 40 -74 67 -113 189 -209 295 -231 28 -6 193 -13 369 -15 276 -3 321 -2 342 12 13 8 24 24 24 34 0 11 6 32 14 48 7 15 34 71 60 124 25 53 46 99 46 102 0 4 -268 7 -595 7 -327 0 -595 -3 -595 -7z"/> <path d="M4138 3608 c27 -51 59 -122 72 -158 13 -36 29 -68 34 -72 18 -12 603 -9 670 3 82 15 130 36 197 85 68 51 179 192 179 229 0 3 -270 5 -601 5 l-600 0 49 -92z"/> <path d="M50 3191 c0 -29 75 -134 134 -189 30 -26 85 -63 122 -82 l69 -33 477 -2 c262 -1 481 1 486 4 5 3 12 38 16 76 4 39 11 106 15 150 5 44 7 83 4 88 -2 4 -301 7 -664 7 -639 0 -659 -1 -659 -19z"/> <path d="M4293 3193 c-4 -9 -1 -60 7 -112 7 -53 15 -116 18 -141 2 -25 8 -47 12 -50 5 -3 223 -5 487 -4 l478 1 69 33 c84 41 162 111 216 193 70 107 135 97 -620 97 -611 0 -661 -1 -667 -17z"/> <path d="M490 2697 c0 -7 18 -41 40 -74 70 -109 154 -176 262 -212 59 -20 80 -21 343 -19 l280 3 -3 35 c-2 19 -10 50 -18 69 -8 18 -17 66 -20 105 -11 117 38 106 -454 106 -346 0 -430 -3 -430 -13z"/> <path d="M4306 2702 c-2 -4 -7 -41 -11 -82 -4 -41 -13 -93 -21 -115 -7 -22 -15 -56 -16 -75 l-3 -35 285 -3 c243 -2 291 0 325 14 78 31 141 66 178 100 59 55 144 184 130 198 -9 9 -861 7 -867 -2z"/> <path d="M1026 2232 c-2 -4 12 -34 32 -67 42 -70 143 -173 192 -196 100 -48 108 -49 255 -49 80 0 145 2 145 4 0 8 -26 53 -57 97 -17 25 -48 78 -67 118 -20 41 -40 79 -46 86 -8 10 -65 13 -230 14 -120 1 -221 -2 -224 -7z"/> <path d="M4199 2234 c-9 -3 -27 -28 -40 -57 -13 -29 -49 -96 -81 -149 -32 -54 -58 -100 -58 -103 0 -13 305 1 340 15 66 27 158 100 205 162 64 85 81 118 64 128 -13 8 -402 11 -430 4z"/> </g> </svg> 